999
dxflib 3.26.4.0
  0
SECTION
  2
HEADER
  9
$ACADVER
  1
AC1015
  9
$HANDSEED
  5
FFFF
  9
$DIMADEC
 70
0
  9
$DIMASZ
 40
2.5
  9
$DIMATFIT
 70
0
  9
$DIMAUNIT
 70
0
  9
$DIMAZIN
 70
2
  9
$DIMBLK
  1
0
  9
$DIMBLK1
  1
0
  9
$DIMBLK2
  1
0
  9
$DIMDEC
 70
4
  9
$DIMDLI
 40
5.0
  9
$DIMDSEP
 70
46
  9
$DIMEXE
 40
1.25
  9
$DIMEXO
 40
0.625
  9
$DIMGAP
 40
0.625
  9
$DIMLFAC
 40
1.0
  9
$DIMLUNIT
 70
2
  9
$DIMSCALE
 40
1.0
  9
$DIMTAD
 70
1
  9
$DIMTIH
 70
0
  9
$DIMTSZ
 40
0.0
  9
$DIMTXT
 40
2.5
  9
$DIMZIN
 70
8
  9
$DWGCODEPAGE
  3
ANSI_1252
  9
$INSUNITS
 70
4
  9
$LTSCALE
 40
1.0
  9
$MAXACTVP
 70
64
  9
$MEASUREMENT
 70
1
  9
$MIRRTEXT
 70
0
  9
$PDMODE
 70
0
  9
$PDSIZE
 40
0.0
  0
ENDSEC
  0
SECTION
  2
TABLES
  0
TABLE
  2
VPORT
  5
8
100
AcDbSymbolTable
 70
1
  0
VPORT
  5
30
100
AcDbSymbolTableRecord
100
AcDbViewportTableRecord
  2
*Active
 70
0
 10
0.0
 20
0.0
 11
1.0
 21
1.0
 12
286.3055555555554861
 22
148.5
 13
0.0
 23
0.0
 14
10.0
 24
10.0
 15
10.0
 25
10.0
 16
0.0
 26
0.0
 36
1.0
 17
0.0
 27
0.0
 37
0.0
 40
297.0
 41
1.92798353909465
 42
50.0
 43
0.0
 44
0.0
 50
0.0
 51
0.0
 71
0
 72
100
 73
1
 74
3
 75
1
 76
1
 77
0
 78
0
281
0
 65
1
110
0.0
120
0.0
130
0.0
111
1.0
121
0.0
131
0.0
112
0.0
122
1.0
132
0.0
 79
0
146
0.0
  0
ENDTAB
  0
TABLE
  2
LTYPE
  5
5
100
AcDbSymbolTable
 70
41
  0
LTYPE
  5
16
100
AcDbSymbolTableRecord
100
AcDbLinetypeTableRecord
  2
Continuous
 70
0
  3
Solid line
 72
65
 73
0
 40
0.0
  0
LTYPE
  5
31
100
AcDbSymbolTableRecord
100
AcDbLinetypeTableRecord
  2
DASHED2
 70
0
  3
Dashed (.5x) _ _ _ _ _ _ _ _ _ _ _ _ _ _ _ _ _ 
 72
65
 73
2
 40
9.5249999999999986
 49
6.3499999999999996
 74
0
 49
-3.1749999999999998
 74
0
  0
LTYPE
  5
32
100
AcDbSymbolTableRecord
100
AcDbLinetypeTableRecord
  2
ACAD_ISO06W100
 70
0
  3
ISO long-dash triple-dot ____ ... ____ ... ____
 72
65
 73
8
 40
36.0000000000000071
 49
24.0
 74
0
 49
-2.9500000000000002
 74
0
 49
0.1
 74
0
 49
-2.9000000000000004
 74
0
 49
0.1
 74
0
 49
-2.9000000000000004
 74
0
 49
0.1
 74
0
 49
-2.9500000000000002
 74
0
  0
LTYPE
  5
33
100
AcDbSymbolTableRecord
100
AcDbLinetypeTableRecord
  2
ACAD_ISO03W100
 70
0
  3
ISO dash space __    __    __    __    __    __
 72
65
 73
2
 40
30.0
 49
12.0
 74
0
 49
-18.0
 74
0
  0
LTYPE
  5
34
100
AcDbSymbolTableRecord
100
AcDbLinetypeTableRecord
  2
DASHDOTX2
 70
0
  3
Dash dot (2x) ____  .  ____  .  ____  .  ___
 72
65
 73
4
 40
50.7999999999999972
 49
25.3999999999999986
 74
0
 49
-12.6499999999999986
 74
0
 49
0.1
 74
0
 49
-12.6499999999999986
 74
0
  0
LTYPE
  5
35
100
AcDbSymbolTableRecord
100
AcDbLinetypeTableRecord
  2
ACAD_ISO02W100
 70
0
  3
ISO dash __ __ __ __ __ __ __ __ __ __ __ __ __
 72
65
 73
2
 40
15.0
 49
12.0
 74
0
 49
-3.0
 74
0
  0
LTYPE
  5
36
100
AcDbSymbolTableRecord
100
AcDbLinetypeTableRecord
  2
DASHEDX2
 70
0
  3
Dashed (2x) ____  ____  ____  ____  ____  ___
 72
65
 73
2
 40
38.0999999999999943
 49
25.3999999999999986
 74
0
 49
-12.6999999999999993
 74
0
  0
LTYPE
  5
37
100
AcDbSymbolTableRecord
100
AcDbLinetypeTableRecord
  2
ACAD_ISO10W100
 70
0
  3
ISO dash dot __ . __ . __ . __ . __ . __ . __ . 
 72
65
 73
4
 40
18.0
 49
12.0
 74
0
 49
-2.9500000000000002
 74
0
 49
0.1
 74
0
 49
-2.9500000000000002
 74
0
  0
LTYPE
  5
14
100
AcDbSymbolTableRecord
100
AcDbLinetypeTableRecord
  2
BYBLOCK
 70
0
  3

 72
65
 73
0
 40
0.0
  0
LTYPE
  5
38
100
AcDbSymbolTableRecord
100
AcDbLinetypeTableRecord
  2
DASHDOT2
 70
0
  3
Dash dot (.5x) _._._._._._._._._._._._._._._.
 72
65
 73
4
 40
12.6999999999999993
 49
6.3499999999999996
 74
0
 49
-3.125
 74
0
 49
0.1
 74
0
 49
-3.125
 74
0
  0
LTYPE
  5
39
100
AcDbSymbolTableRecord
100
AcDbLinetypeTableRecord
  2
PHANTOM2
 70
0
  3
Phantom (.5x) ___ _ _ ___ _ _ ___ _ _ ___ _ _
 72
65
 73
6
 40
31.7500000000000036
 49
15.875
 74
0
 49
-3.1749999999999998
 74
0
 49
3.1749999999999998
 74
0
 49
-3.1749999999999998
 74
0
 49
3.1749999999999998
 74
0
 49
-3.1749999999999998
 74
0
  0
LTYPE
  5
3A
100
AcDbSymbolTableRecord
100
AcDbLinetypeTableRecord
  2
BORDERX2
 70
0
  3
Border (2x) ____  ____  .  ____  ____  .  ___
 72
65
 73
6
 40
88.8999999999999773
 49
25.3999999999999986
 74
0
 49
-12.6999999999999993
 74
0
 49
25.3999999999999986
 74
0
 49
-12.6499999999999986
 74
0
 49
0.1
 74
0
 49
-12.6499999999999986
 74
0
  0
LTYPE
  5
3B
100
AcDbSymbolTableRecord
100
AcDbLinetypeTableRecord
  2
ACAD_ISO04W100
 70
0
  3
ISO long-dash dot ____ . ____ . ____ . ____ . _
 72
65
 73
4
 40
30.0
 49
24.0
 74
0
 49
-2.9500000000000002
 74
0
 49
0.1
 74
0
 49
-2.9500000000000002
 74
0
  0
LTYPE
  5
3C
100
AcDbSymbolTableRecord
100
AcDbLinetypeTableRecord
  2
DIVIDE
 70
0
  3
Divide ____ . . ____ . . ____ . . ____ . . ____
 72
65
 73
6
 40
31.7500000000000036
 49
12.6999999999999993
 74
0
 49
-6.2999999999999998
 74
0
 49
0.1
 74
0
 49
-6.25
 74
0
 49
0.1
 74
0
 49
-6.2999999999999998
 74
0
  0
LTYPE
  5
3D
100
AcDbSymbolTableRecord
100
AcDbLinetypeTableRecord
  2
ACAD_ISO07W100
 70
0
  3
ISO dot . . . . . . . . . . . . . . . . . . . . 
 72
65
 73
2
 40
3.0
 49
0.1
 74
0
 49
-2.8999999999999999
 74
0
  0
LTYPE
  5
3E
100
AcDbSymbolTableRecord
100
AcDbLinetypeTableRecord
  2
BORDER2
 70
0
  3
Border (.5x) __.__.__.__.__.__.__.__.__.__.__.
 72
65
 73
6
 40
22.2250000000000014
 49
6.3499999999999996
 74
0
 49
-3.1749999999999998
 74
0
 49
6.3499999999999996
 74
0
 49
-3.125
 74
0
 49
0.1
 74
0
 49
-3.125
 74
0
  0
LTYPE
  5
3F
100
AcDbSymbolTableRecord
100
AcDbLinetypeTableRecord
  2
HIDDENX2
 70
0
  3
Hidden (2x) ____ ____ ____ ____ ____ ____ ____ 
 72
65
 73
2
 40
19.0499999999999972
 49
12.6999999999999993
 74
0
 49
-6.3499999999999996
 74
0
  0
LTYPE
  5
40
100
AcDbSymbolTableRecord
100
AcDbLinetypeTableRecord
  2
ACAD_ISO14W100
 70
0
  3
ISO dash triple-dot __ . . . __ . . . __ . . . _
 72
65
 73
8
 40
24.0000000000000036
 49
12.0
 74
0
 49
-2.9500000000000002
 74
0
 49
0.1
 74
0
 49
-2.9000000000000004
 74
0
 49
0.1
 74
0
 49
-2.9000000000000004
 74
0
 49
0.1
 74
0
 49
-2.9500000000000002
 74
0
  0
LTYPE
  5
41
100
AcDbSymbolTableRecord
100
AcDbLinetypeTableRecord
  2
DOT2
 70
0
  3
Dot (.5x) ........................................
 72
65
 73
2
 40
3.1749999999999998
 49
0.1
 74
0
 49
-3.0749999999999997
 74
0
  0
LTYPE
  5
42
100
AcDbSymbolTableRecord
100
AcDbLinetypeTableRecord
  2
ACAD_ISO13W100
 70
0
  3
ISO double-dash double-dot __ __ . . __ __ . . _
 72
65
 73
8
 40
36.0000000000000071
 49
12.0
 74
0
 49
-3.0
 74
0
 49
12.0
 74
0
 49
-2.9500000000000002
 74
0
 49
0.1
 74
0
 49
-2.9000000000000004
 74
0
 49
0.1
 74
0
 49
-2.9500000000000002
 74
0
  0
LTYPE
  5
43
100
AcDbSymbolTableRecord
100
AcDbLinetypeTableRecord
  2
CENTER2
 70
0
  3
Center (.5x) ___ _ ___ _ ___ _ ___ _ ___ _ ___
 72
65
 73
4
 40
28.5750000000000028
 49
19.0500000000000007
 74
0
 49
-3.1749999999999998
 74
0
 49
3.1749999999999998
 74
0
 49
-3.1749999999999998
 74
0
  0
LTYPE
  5
44
100
AcDbSymbolTableRecord
100
AcDbLinetypeTableRecord
  2
ACAD_ISO09W100
 70
0
  3
ISO long-dash double-short-dash ____ __ __ ____
 72
65
 73
6
 40
45.0
 49
24.0
 74
0
 49
-3.0
 74
0
 49
6.0
 74
0
 49
-3.0
 74
0
 49
6.0
 74
0
 49
-3.0
 74
0
  0
LTYPE
  5
45
100
AcDbSymbolTableRecord
100
AcDbLinetypeTableRecord
  2
DASHED
 70
0
  3
Dashed __ __ __ __ __ __ __ __ __ __ __ __ __ _
 72
65
 73
2
 40
19.0499999999999972
 49
12.6999999999999993
 74
0
 49
-6.3499999999999996
 74
0
  0
LTYPE
  5
46
100
AcDbSymbolTableRecord
100
AcDbLinetypeTableRecord
  2
ACAD_ISO12W100
 70
0
  3
ISO dash double-dot __ . . __ . . __ . . __ . . 
 72
65
 73
6
 40
21.0
 49
12.0
 74
0
 49
-2.9500000000000002
 74
0
 49
0.1
 74
0
 49
-2.9000000000000004
 74
0
 49
0.1
 74
0
 49
-2.9500000000000002
 74
0
  0
LTYPE
  5
47
100
AcDbSymbolTableRecord
100
AcDbLinetypeTableRecord
  2
DASHDOT
 70
0
  3
Dash dot __ . __ . __ . __ . __ . __ . __ . __
 72
65
 73
4
 40
25.4000000000000021
 49
12.6999999999999993
 74
0
 49
-6.2999999999999998
 74
0
 49
0.1
 74
0
 49
-6.2999999999999998
 74
0
  0
LTYPE
  5
48
100
AcDbSymbolTableRecord
100
AcDbLinetypeTableRecord
  2
DOTX2
 70
0
  3
Dot (2x) .  .  .  .  .  .  .  .  .  .  .  .  .  .
 72
65
 73
2
 40
12.6999999999999993
 49
0.1
 74
0
 49
-12.5999999999999996
 74
0
  0
LTYPE
  5
49
100
AcDbSymbolTableRecord
100
AcDbLinetypeTableRecord
  2
ACAD_ISO08W100
 70
0
  3
ISO long-dash short-dash ____ __ ____ __ ____ _
 72
65
 73
4
 40
36.0
 49
24.0
 74
0
 49
-3.0
 74
0
 49
6.0
 74
0
 49
-3.0
 74
0
  0
LTYPE
  5
4A
100
AcDbSymbolTableRecord
100
AcDbLinetypeTableRecord
  2
CENTER
 70
0
  3
Center ____ _ ____ _ ____ _ ____ _ ____ _ ____
 72
65
 73
4
 40
50.8000000000000043
 49
31.75
 74
0
 49
-6.3499999999999996
 74
0
 49
6.3499999999999996
 74
0
 49
-6.3499999999999996
 74
0
  0
LTYPE
  5
4B
100
AcDbSymbolTableRecord
100
AcDbLinetypeTableRecord
  2
HIDDEN2
 70
0
  3
Hidden (.5x) _ _ _ _ _ _ _ _ _ _ _ _ _ _ _ _ _ 
 72
65
 73
2
 40
4.7624999999999993
 49
3.1749999999999998
 74
0
 49
-1.5874999999999999
 74
0
  0
LTYPE
  5
4C
100
AcDbSymbolTableRecord
100
AcDbLinetypeTableRecord
  2
ACAD_ISO11W100
 70
0
  3
ISO double-dash dot __ __ . __ __ . __ __ . __ _
 72
65
 73
6
 40
33.0
 49
12.0
 74
0
 49
-3.0
 74
0
 49
12.0
 74
0
 49
-2.9500000000000002
 74
0
 49
0.1
 74
0
 49
-2.9500000000000002
 74
0
  0
LTYPE
  5
4D
100
AcDbSymbolTableRecord
100
AcDbLinetypeTableRecord
  2
DIVIDEX2
 70
0
  3
Divide (2x) ________  .  .  ________  .  .  _
 72
65
 73
6
 40
63.5
 49
25.3999999999999986
 74
0
 49
-12.6499999999999986
 74
0
 49
0.1
 74
0
 49
-12.5999999999999979
 74
0
 49
0.1
 74
0
 49
-12.6499999999999986
 74
0
  0
LTYPE
  5
15
100
AcDbSymbolTableRecord
100
AcDbLinetypeTableRecord
  2
BYLAYER
 70
0
  3

 72
65
 73
0
 40
0.0
  0
LTYPE
  5
4E
100
AcDbSymbolTableRecord
100
AcDbLinetypeTableRecord
  2
DIVIDE2
 70
0
  3
Divide (.5x) __..__..__..__..__..__..__..__.._
 72
65
 73
6
 40
15.8749999999999982
 49
6.3499999999999996
 74
0
 49
-3.125
 74
0
 49
0.1
 74
0
 49
-3.0750000000000002
 74
0
 49
0.1
 74
0
 49
-3.125
 74
0
  0
LTYPE
  5
4F
100
AcDbSymbolTableRecord
100
AcDbLinetypeTableRecord
  2
ACAD_ISO15W100
 70
0
  3
ISO double-dash triple-dot __ __ . . . __ __ . .
 72
65
 73
10
 40
39.0000000000000071
 49
12.0
 74
0
 49
-3.0
 74
0
 49
12.0
 74
0
 49
-2.9500000000000002
 74
0
 49
0.1
 74
0
 49
-2.9000000000000004
 74
0
 49
0.1
 74
0
 49
-2.9000000000000004
 74
0
 49
0.1
 74
0
 49
-2.9500000000000002
 74
0
  0
LTYPE
  5
50
100
AcDbSymbolTableRecord
100
AcDbLinetypeTableRecord
  2
CENTERX2
 70
0
  3
Center (2x) ________  __  ________  __  _____
 72
65
 73
4
 40
101.6000000000000085
 49
63.5
 74
0
 49
-12.6999999999999993
 74
0
 49
12.6999999999999993
 74
0
 49
-12.6999999999999993
 74
0
  0
LTYPE
  5
51
100
AcDbSymbolTableRecord
100
AcDbLinetypeTableRecord
  2
DOT
 70
0
  3
Dot . . . . . . . . . . . . . . . . . . . . . . . .
 72
65
 73
2
 40
6.3499999999999996
 49
0.1
 74
0
 49
-6.25
 74
0
  0
LTYPE
  5
52
100
AcDbSymbolTableRecord
100
AcDbLinetypeTableRecord
  2
PHANTOM
 70
0
  3
Phantom ______  __  __  ______  __  __  ______ 
 72
65
 73
6
 40
63.5000000000000071
 49
31.75
 74
0
 49
-6.3499999999999996
 74
0
 49
6.3499999999999996
 74
0
 49
-6.3499999999999996
 74
0
 49
6.3499999999999996
 74
0
 49
-6.3499999999999996
 74
0
  0
LTYPE
  5
53
100
AcDbSymbolTableRecord
100
AcDbLinetypeTableRecord
  2
BORDER
 70
0
  3
Border __ __ . __ __ . __ __ . __ __ . __ __ .
 72
65
 73
6
 40
44.4499999999999957
 49
12.6999999999999993
 74
0
 49
-6.3499999999999996
 74
0
 49
12.6999999999999993
 74
0
 49
-6.2999999999999998
 74
0
 49
0.1
 74
0
 49
-6.2999999999999998
 74
0
  0
LTYPE
  5
54
100
AcDbSymbolTableRecord
100
AcDbLinetypeTableRecord
  2
ACAD_ISO05W100
 70
0
  3
ISO long-dash double-dot ____ .. ____ .. ____ . 
 72
65
 73
6
 40
33.0000000000000071
 49
24.0
 74
0
 49
-2.9500000000000002
 74
0
 49
0.1
 74
0
 49
-2.9000000000000004
 74
0
 49
0.1
 74
0
 49
-2.9500000000000002
 74
0
  0
LTYPE
  5
55
100
AcDbSymbolTableRecord
100
AcDbLinetypeTableRecord
  2
PHANTOMX2
 70
0
  3
Phantom (2x) ____________    ____    ____   _
 72
65
 73
6
 40
127.0000000000000142
 49
63.5
 74
0
 49
-12.6999999999999993
 74
0
 49
12.6999999999999993
 74
0
 49
-12.6999999999999993
 74
0
 49
12.6999999999999993
 74
0
 49
-12.6999999999999993
 74
0
  0
LTYPE
  5
56
100
AcDbSymbolTableRecord
100
AcDbLinetypeTableRecord
  2
HIDDEN
 70
0
  3
Hidden __ __ __ __ __ __ __ __ __ __ __ __ __ __
 72
65
 73
2
 40
9.5249999999999986
 49
6.3499999999999996
 74
0
 49
-3.1749999999999998
 74
0
  0
ENDTAB
  0
TABLE
  2
LAYER
  5
2
100
AcDbSymbolTable
 70
1
  0
LAYER
  5
10
100
AcDbSymbolTableRecord
100
AcDbLayerTableRecord
  2
0
 70
0
 62
7
420
16777215
  6
Continuous
370
25
390
F
  0
ENDTAB
  0
TABLE
  2
STYLE
  5
3
100
AcDbSymbolTable
 70
1
  0
STYLE
  5
57
100
AcDbSymbolTableRecord
100
AcDbTextStyleTableRecord
  2
Standard
 70
0
 40
0.0
 41
1.0
 50
0.0
 71
0
 42
2.5
  3

  4

1001
ACAD
1000
txt
1071
0
  0
ENDTAB
  0
TABLE
  2
VIEW
  5
6
100
AcDbSymbolTable
 70
0
  0
ENDTAB
  0
TABLE
  2
UCS
  5
7
100
AcDbSymbolTable
 70
0
  0
ENDTAB
  0
TABLE
  2
APPID
  5
9
100
AcDbSymbolTable
 70
1
  0
APPID
  5
12
100
AcDbSymbolTableRecord
100
AcDbRegAppTableRecord
  2
ACAD
 70
0
  0
APPID
  5
58
100
AcDbSymbolTableRecord
100
AcDbRegAppTableRecord
  2
QCAD
 70
0
  0
ENDTAB
  0
TABLE
  2
DIMSTYLE
  5
A
100
AcDbSymbolTable
 70
1
100
AcDbDimStyleTable
 71
0
  0
DIMSTYLE
105
27
100
AcDbSymbolTableRecord
100
AcDbDimStyleTableRecord
  2
Standard
 41
2.5
 42
0.625
 43
3.75
 44
1.25
 70
0
 73
0
 74
0
 77
1
 78
8
140
2.5
141
2.5
143
0.03937007874016
147
0.625
171
3
172
1
271
2
272
2
274
3
278
44
283
0
284
8
340
57
  0
ENDTAB
  0
TABLE
  2
BLOCK_RECORD
  5
1
100
AcDbSymbolTable
 70
1
  0
BLOCK_RECORD
  5
1F
100
AcDbSymbolTableRecord
100
AcDbBlockTableRecord
  2
*Model_Space
340
22
  0
BLOCK_RECORD
  5
1B
100
AcDbSymbolTableRecord
100
AcDbBlockTableRecord
  2
*Paper_Space
340
1E
  0
BLOCK_RECORD
  5
23
100
AcDbSymbolTableRecord
100
AcDbBlockTableRecord
  2
*Paper_Space0
340
26
  0
ENDTAB
  0
ENDSEC
  0
SECTION
  2
BLOCKS
  0
BLOCK
  5
20
100
AcDbEntity
  8
0
100
AcDbBlockBegin
  2
*Model_Space
 70
0
 10
0.0
 20
0.0
 30
0.0
  3
*Model_Space
  1

  0
ENDBLK
  5
21
100
AcDbEntity
  8
0
100
AcDbBlockEnd
  0
BLOCK
  5
1C
100
AcDbEntity
 67
1
  8
0
100
AcDbBlockBegin
  2
*Paper_Space
 70
0
 10
0.0
 20
0.0
 30
0.0
  3
*Paper_Space
  1

  0
ENDBLK
  5
1D
100
AcDbEntity
 67
1
  8
0
100
AcDbBlockEnd
  0
BLOCK
  5
24
100
AcDbEntity
  8
0
100
AcDbBlockBegin
  2
*Paper_Space0
 70
0
 10
0.0
 20
0.0
 30
0.0
  3
*Paper_Space0
  1

  0
ENDBLK
  5
25
100
AcDbEntity
  8
0
100
AcDbBlockEnd
  0
ENDSEC
  0
SECTION
  2
ENTITIES
  0
LINE
  5
59
100
AcDbEntity
  8
0
 62
256
370
-1
 48
1.0
  6
BYLAYER
100
AcDbLine
 10
11.5255638871409438
 20
11.9625588727531067
 30
0.0
 11
8.4467228516265696
 21
11.9625588727531067
 31
0.0
  0
LINE
  5
5A
100
AcDbEntity
  8
0
 62
256
370
-1
 48
1.0
  6
BYLAYER
100
AcDbLine
 10
8.4467228516265696
 20
11.9625588727531067
 30
0.0
 11
8.1985055642207829
 21
11.7720950492440419
 31
0.0
  0
LINE
  5
5B
100
AcDbEntity
  8
0
 62
256
370
-1
 48
1.0
  6
BYLAYER
100
AcDbLine
 10
7.7967431356048129
 20
11.2485080584170998
 30
0.0
 11
7.5441847147656338
 21
10.6387780935359277
 31
0.0
  0
LINE
  5
5C
100
AcDbEntity
  8
0
 62
256
370
-1
 48
1.0
  6
BYLAYER
100
AcDbLine
 10
7.5441847147656338
 20
10.6387780935359277
 30
0.0
 11
7.4580417407114208
 21
9.9844572440808417
 31
0.0
  0
LINE
  5
5D
100
AcDbEntity
  8
0
 62
256
370
-1
 48
1.0
  6
BYLAYER
100
AcDbLine
 10
7.4580417407114208
 20
9.9844572440808417
 30
0.0
 11
7.5441847147656187
 21
9.3301363946256917
 31
0.0
  0
LINE
  5
5E
100
AcDbEntity
  8
0
 62
256
370
-1
 48
1.0
  6
BYLAYER
100
AcDbLine
 10
7.7967431356047348
 20
8.7204064297447079
 30
0.0
 11
8.1985055642208149
 21
8.1968194389179523
 31
0.0
  0
LINE
  5
5F
100
AcDbEntity
  8
0
 62
256
370
-1
 48
1.0
  6
BYLAYER
100
AcDbLine
 10
8.1985055642208149
 20
8.1968194389179523
 30
0.0
 11
8.7220925550476167
 21
7.7950570103018268
 31
0.0
  0
LINE
  5
60
100
AcDbEntity
  8
0
 62
256
370
-1
 48
1.0
  6
BYLAYER
100
AcDbLine
 10
8.7220925550476167
 20
7.7950570103018268
 30
0.0
 11
9.3318225199286307
 21
7.5424985894625536
 31
0.0
  0
LINE
  5
61
100
AcDbEntity
  8
0
 62
256
370
-1
 48
1.0
  6
BYLAYER
100
AcDbLine
 10
9.3318225199286307
 20
7.5424985894625536
 30
0.0
 11
9.9861433693837185
 21
7.4563556154086372
 31
0.0
  0
LINE
  5
62
100
AcDbEntity
  8
0
 62
256
370
-1
 48
1.0
  6
BYLAYER
100
AcDbLine
 10
9.9861433693837185
 20
7.4563556154086372
 30
0.0
 11
10.6404642188387726
 21
7.5424985894625536
 31
0.0
  0
LINE
  5
63
100
AcDbEntity
  8
0
 62
256
370
-1
 48
1.0
  6
BYLAYER
100
AcDbLine
 10
11.2501941837199126
 20
7.7950570103015142
 30
0.0
 11
11.7737811745466523
 21
8.1968194389177036
 31
0.0
  0
LINE
  5
64
100
AcDbEntity
  8
0
 62
256
370
-1
 48
1.0
  6
BYLAYER
100
AcDbLine
 10
11.7737811745466523
 20
8.1968194389177036
 30
0.0
 11
12.1755436031628719
 21
8.7204064297445196
 31
0.0
  0
LINE
  5
65
100
AcDbEntity
  8
0
 62
256
370
-1
 48
1.0
  6
BYLAYER
100
AcDbLine
 10
12.1755436031628719
 20
8.7204064297445196
 30
0.0
 11
12.4281020240018165
 21
9.330136394625379
 31
0.0
  0
LINE
  5
66
100
AcDbEntity
  8
0
 62
256
370
-1
 48
1.0
  6
BYLAYER
100
AcDbLine
 10
12.4281020240018165
 20
9.330136394625379
 30
0.0
 11
12.5142449980560784
 21
9.9844572440808417
 31
0.0
  0
LINE
  5
67
100
AcDbEntity
  8
0
 62
256
370
-1
 48
1.0
  6
BYLAYER
100
AcDbLine
 10
12.5142449980560784
 20
9.9844572440808417
 30
0.0
 11
12.4281020240018165
 21
10.6387780935359277
 31
0.0
  0
LINE
  5
68
100
AcDbEntity
  8
0
 62
256
370
-1
 48
1.0
  6
BYLAYER
100
AcDbLine
 10
11.7737811745467464
 20
11.7720950492437915
 30
0.0
 11
11.5255638871409438
 21
11.9625588727531067
 31
0.0
  0
LINE
  5
69
100
AcDbEntity
  8
0
 62
256
370
-1
 48
1.0
  6
BYLAYER
100
AcDbLine
 10
8.1985055642207829
 20
11.7720950492440419
 30
0.0
 11
7.7967431356048129
 21
11.2485080584170998
 31
0.0
  0
LINE
  5
6A
100
AcDbEntity
  8
0
 62
256
370
-1
 48
1.0
  6
BYLAYER
100
AcDbLine
 10
7.5441847147656187
 20
9.3301363946256917
 30
0.0
 11
7.7967431356047348
 21
8.7204064297447079
 31
0.0
  0
LINE
  5
6B
100
AcDbEntity
  8
0
 62
256
370
-1
 48
1.0
  6
BYLAYER
100
AcDbLine
 10
10.6404642188387726
 20
7.5424985894625536
 30
0.0
 11
11.2501941837199126
 21
7.7950570103015142
 31
0.0
  0
LINE
  5
6C
100
AcDbEntity
  8
0
 62
256
370
-1
 48
1.0
  6
BYLAYER
100
AcDbLine
 10
12.4281020240018165
 20
10.6387780935359277
 30
0.0
 11
12.1755436031629038
 21
11.2485080584169115
 31
0.0
  0
LINE
  5
6D
100
AcDbEntity
  8
0
 62
256
370
-1
 48
1.0
  6
BYLAYER
100
AcDbLine
 10
12.1755436031629038
 20
11.2485080584169115
 30
0.0
 11
11.7737811745467464
 21
11.7720950492437915
 31
0.0
  0
LINE
  5
6E
100
AcDbEntity
  8
0
 62
256
370
-1
 48
1.0
  6
BYLAYER
100
AcDbLine
 10
7.6880314814402197
 20
3.3128547233480958
 30
0.0
 11
7.7183592089693462
 21
3.3919404598592564
 31
0.0
  0
LINE
  5
6F
100
AcDbEntity
  8
0
 62
256
370
-1
 48
1.0
  6
BYLAYER
100
AcDbLine
 10
7.6053911670085625
 20
3.1719881616533598
 30
0.0
 11
7.6880314814402197
 21
3.3128547233480958
 31
0.0
  0
LINE
  5
70
100
AcDbEntity
  8
0
 62
256
370
-1
 48
1.0
  6
BYLAYER
100
AcDbLine
 10
7.5076567908091789
 20
3.0369544525288461
 30
0.0
 11
7.6053911670085625
 21
3.1719881616533598
 31
0.0
  0
LINE
  5
71
100
AcDbEntity
  8
0
 62
256
370
-1
 48
1.0
  6
BYLAYER
100
AcDbLine
 10
7.4398399578412011
 20
2.9542923299713948
 30
0.0
 11
7.5076567908091789
 21
3.0369544525288461
 31
0.0
  0
LINE
  5
72
100
AcDbEntity
  8
0
 62
256
370
-1
 48
1.0
  6
BYLAYER
100
AcDbLine
 10
7.3628923418544332
 20
2.8681115688382874
 30
0.0
 11
7.4398399578412011
 21
2.9542923299713948
 31
0.0
  0
LINE
  5
73
100
AcDbEntity
  8
0
 62
256
370
-1
 48
1.0
  6
BYLAYER
100
AcDbLine
 10
7.2739539289403297
 20
2.7764864173156525
 30
0.0
 11
7.3628923418544332
 21
2.8681115688382874
 31
0.0
  0
LINE
  5
74
100
AcDbEntity
  8
0
 62
256
370
-1
 48
1.0
  6
BYLAYER
100
AcDbLine
 10
7.1723837484915123
 20
2.6802589949340927
 30
0.0
 11
7.2739539289403297
 21
2.7764864173156525
 31
0.0
  0
LINE
  5
75
100
AcDbEntity
  8
0
 62
256
370
-1
 48
1.0
  6
BYLAYER
100
AcDbLine
 10
7.0553139556237028
 20
2.5783643257279891
 30
0.0
 11
7.1723837484915123
 21
2.6802589949340927
 31
0.0
  0
LINE
  5
76
100
AcDbEntity
  8
0
 62
256
370
-1
 48
1.0
  6
BYLAYER
100
AcDbLine
 10
6.9274464343112356
 20
2.4761832513696618
 30
0.0
 11
7.0553139556237028
 21
2.5783643257279891
 31
0.0
  0
LINE
  5
77
100
AcDbEntity
  8
0
 62
256
370
-1
 48
1.0
  6
BYLAYER
100
AcDbLine
 10
6.7844270789172612
 20
2.3713550903905798
 30
0.0
 11
6.9274464343112356
 21
2.4761832513696618
 31
0.0
  0
LINE
  5
78
100
AcDbEntity
  8
0
 62
256
370
-1
 48
1.0
  6
BYLAYER
100
AcDbLine
 10
6.6271041233254238
 20
2.2658626826802788
 30
0.0
 11
6.7844270789172612
 21
2.3713550903905798
 31
0.0
  0
LINE
  5
79
100
AcDbEntity
  8
0
 62
256
370
-1
 48
1.0
  6
BYLAYER
100
AcDbLine
 10
6.4549903615262849
 20
2.1606113538062459
 30
0.0
 11
6.6271041233254238
 21
2.2658626826802788
 31
0.0
  0
LINE
  5
7A
100
AcDbEntity
  8
0
 62
256
370
-1
 48
1.0
  6
BYLAYER
100
AcDbLine
 10
6.0751346910033561
 20
1.9484610510233438
 30
0.0
 11
6.4549903615262849
 21
2.1606113538062459
 31
0.0
  0
LINE
  5
7B
100
AcDbEntity
  8
0
 62
256
370
-1
 48
1.0
  6
BYLAYER
100
AcDbLine
 10
5.5510132003984438
 20
2.2377233152703866
 30
0.0
 11
6.0751346910033561
 21
1.9484610510233438
 31
0.0
  0
LINE
  5
7C
100
AcDbEntity
  8
0
 62
256
370
-1
 48
1.0
  6
BYLAYER
100
AcDbLine
 10
5.038444067133284
 20
2.5469946011919546
 30
0.0
 11
5.5510132003984438
 21
2.2377233152703866
 31
0.0
  0
LINE
  5
7D
100
AcDbEntity
  8
0
 62
256
370
-1
 48
1.0
  6
BYLAYER
100
AcDbLine
 10
5.0322435765211679
 20
2.9820345387241787
 30
0.0
 11
5.038444067133284
 21
2.5469946011919546
 31
0.0
  0
LINE
  5
7E
100
AcDbEntity
  8
0
 62
256
370
-1
 48
1.0
  6
BYLAYER
100
AcDbLine
 10
5.0373370578668357
 20
3.1837152075585777
 30
0.0
 11
5.0322435765211679
 21
2.9820345387241787
 31
0.0
  0
LINE
  5
7F
100
AcDbEntity
  8
0
 62
256
370
-1
 48
1.0
  6
BYLAYER
100
AcDbLine
 10
5.0500347980816116
 20
3.3727070434066491
 30
0.0
 11
5.0373370578668357
 21
3.1837152075585777
 31
0.0
  0
LINE
  5
80
100
AcDbEntity
  8
0
 62
256
370
-1
 48
1.0
  6
BYLAYER
100
AcDbLine
 10
5.0693088748734283
 20
3.5489793798243454
 30
0.0
 11
5.0500347980816116
 21
3.3727070434066491
 31
0.0
  0
LINE
  5
81
100
AcDbEntity
  8
0
 62
256
370
-1
 48
1.0
  6
BYLAYER
100
AcDbLine
 10
5.093866500592938
 20
3.7108065829485781
 30
0.0
 11
5.0693088748734283
 21
3.5489793798243454
 31
0.0
  0
LINE
  5
82
100
AcDbEntity
  8
0
 62
256
370
-1
 48
1.0
  6
BYLAYER
100
AcDbLine
 10
5.1235750428329681
 20
3.8631392322134843
 30
0.0
 11
5.093866500592938
 21
3.7108065829485781
 31
0.0
  0
LINE
  5
83
100
AcDbEntity
  8
0
 62
256
370
-1
 48
1.0
  6
BYLAYER
100
AcDbLine
 10
5.1561252005081286
 20
3.9992150688756851
 30
0.0
 11
5.1235750428329681
 21
3.8631392322134843
 31
0.0
  0
LINE
  5
84
100
AcDbEntity
  8
0
 62
256
370
-1
 48
1.0
  6
BYLAYER
100
AcDbLine
 10
5.1910057752201055
 20
4.1220510773086971
 30
0.0
 11
5.1561252005081286
 21
3.9992150688756851
 31
0.0
  0
LINE
  5
85
100
AcDbEntity
  8
0
 62
256
370
-1
 48
1.0
  6
BYLAYER
100
AcDbLine
 10
5.2271667908850645
 20
4.2317797552860839
 30
0.0
 11
5.1910057752201055
 21
4.1220510773086971
 31
0.0
  0
LINE
  5
86
100
AcDbEntity
  8
0
 62
256
370
-1
 48
1.0
  6
BYLAYER
100
AcDbLine
 10
5.2648455637300344
 20
4.3318416831713762
 30
0.0
 11
5.2271667908850645
 21
4.2317797552860839
 31
0.0
  0
LINE
  5
87
100
AcDbEntity
  8
0
 62
256
370
-1
 48
1.0
  6
BYLAYER
100
AcDbLine
 10
5.3329213230839798
 20
4.4839995838667619
 30
0.0
 11
5.2648455637300344
 21
4.3318416831713762
 31
0.0
  0
LINE
  5
88
100
AcDbEntity
  8
0
 62
256
370
-1
 48
1.0
  6
BYLAYER
100
AcDbLine
 10
5.4135951604746282
 20
4.6260011856925871
 30
0.0
 11
5.3329213230839798
 21
4.4839995838667619
 31
0.0
  0
LINE
  5
89
100
AcDbEntity
  8
0
 62
256
370
-1
 48
1.0
  6
BYLAYER
100
AcDbLine
 10
5.4669213449014364
 20
4.6918084318908768
 30
0.0
 11
5.4135951604746282
 21
4.6260011856925871
 31
0.0
  0
LINE
  5
8A
100
AcDbEntity
  8
0
 62
256
370
-1
 48
1.0
  6
BYLAYER
100
AcDbLine
 10
5.5202102614076836
 20
4.7644969208862449
 30
0.0
 11
5.4669213449014364
 21
4.6918084318908768
 31
0.0
  0
LINE
  5
8B
100
AcDbEntity
  8
0
 62
256
370
-1
 48
1.0
  6
BYLAYER
100
AcDbLine
 10
5.4764695125123524
 20
4.8004746851458435
 30
0.0
 11
5.5202102614076836
 21
4.7644969208862449
 31
0.0
  0
LINE
  5
8C
100
AcDbEntity
  8
0
 62
256
370
-1
 48
1.0
  6
BYLAYER
100
AcDbLine
 10
5.4054861016484494
 20
4.8635829364913548
 30
0.0
 11
5.4764695125123524
 21
4.8004746851458435
 31
0.0
  0
LINE
  5
8D
100
AcDbEntity
  8
0
 62
256
370
-1
 48
1.0
  6
BYLAYER
100
AcDbLine
 10
5.3364221255232849
 20
4.9265611145175967
 30
0.0
 11
5.4054861016484494
 21
4.8635829364913548
 31
0.0
  0
LINE
  5
8E
100
AcDbEntity
  8
0
 62
256
370
-1
 48
1.0
  6
BYLAYER
100
AcDbLine
 10
5.2945124611860734
 20
4.9669229370120433
 30
0.0
 11
5.3364221255232849
 21
4.9265611145175967
 31
0.0
  0
LINE
  5
8F
100
AcDbEntity
  8
0
 62
256
370
-1
 48
1.0
  6
BYLAYER
100
AcDbLine
 10
5.2282310645002497
 20
4.9067263200069533
 30
0.0
 11
5.2945124611860734
 21
4.9669229370120433
 31
0.0
  0
LINE
  5
90
100
AcDbEntity
  8
0
 62
256
370
-1
 48
1.0
  6
BYLAYER
100
AcDbLine
 10
5.16835838873169
 20
4.8468134422880667
 30
0.0
 11
5.2282310645002497
 21
4.9067263200069533
 31
0.0
  0
LINE
  5
91
100
AcDbEntity
  8
0
 62
256
370
-1
 48
1.0
  6
BYLAYER
100
AcDbLine
 10
5.0355670915646868
 20
4.7517381710785571
 30
0.0
 11
5.16835838873169
 21
4.8468134422880667
 31
0.0
  0
LINE
  5
92
100
AcDbEntity
  8
0
 62
256
370
-1
 48
1.0
  6
BYLAYER
100
AcDbLine
 10
4.8913589704967819
 20
4.6681308298308863
 30
0.0
 11
5.0355670915646868
 21
4.7517381710785571
 31
0.0
  0
LINE
  5
93
100
AcDbEntity
  8
0
 62
256
370
-1
 48
1.0
  6
BYLAYER
100
AcDbLine
 10
4.7957836332969919
 20
4.6201989409083808
 30
0.0
 11
4.8913589704967819
 21
4.6681308298308863
 31
0.0
  0
LINE
  5
94
100
AcDbEntity
  8
0
 62
256
370
-1
 48
1.0
  6
BYLAYER
100
AcDbLine
 10
4.6904356500600954
 20
4.5727662656859707
 30
0.0
 11
4.7957836332969919
 21
4.6201989409083808
 31
0.0
  0
LINE
  5
95
100
AcDbEntity
  8
0
 62
256
370
-1
 48
1.0
  6
BYLAYER
100
AcDbLine
 10
4.5719189232297595
 20
4.5252370300633515
 30
0.0
 11
4.6904356500600954
 21
4.5727662656859707
 31
0.0
  0
LINE
  5
96
100
AcDbEntity
  8
0
 62
256
370
-1
 48
1.0
  6
BYLAYER
100
AcDbLine
 10
4.439990796004821
 20
4.478641291982342
 30
0.0
 11
4.5719189232297595
 21
4.5252370300633515
 31
0.0
  0
LINE
  5
97
100
AcDbEntity
  8
0
 62
256
370
-1
 48
1.0
  6
BYLAYER
100
AcDbLine
 10
4.2915980552710948
 20
4.4331724713320568
 30
0.0
 11
4.439990796004821
 21
4.478641291982342
 31
0.0
  0
LINE
  5
98
100
AcDbEntity
  8
0
 62
256
370
-1
 48
1.0
  6
BYLAYER
100
AcDbLine
 10
4.1332243276195726
 20
4.3918337646767895
 30
0.0
 11
4.2915980552710948
 21
4.4331724713320568
 31
0.0
  0
LINE
  5
99
100
AcDbEntity
  8
0
 62
256
370
-1
 48
1.0
  6
BYLAYER
100
AcDbLine
 10
3.9599321243463237
 20
4.3542397187039796
 30
0.0
 11
4.1332243276195726
 21
4.3918337646767895
 31
0.0
  0
LINE
  5
9A
100
AcDbEntity
  8
0
 62
256
370
-1
 48
1.0
  6
BYLAYER
100
AcDbLine
 10
3.7733028935537334
 20
4.3218566047639797
 30
0.0
 11
3.9599321243463237
 21
4.3542397187039796
 31
0.0
  0
LINE
  5
9B
100
AcDbEntity
  8
0
 62
256
370
-1
 48
1.0
  6
BYLAYER
100
AcDbLine
 10
3.5732596418266809
 20
4.2957097021391633
 30
0.0
 11
3.7733028935537334
 21
4.3218566047639797
 31
0.0
  0
LINE
  5
9C
100
AcDbEntity
  8
0
 62
256
370
-1
 48
1.0
  6
BYLAYER
100
AcDbLine
 10
3.1399548457051907
 20
4.2564019271309803
 30
0.0
 11
3.5732596418266809
 21
4.2957097021391633
 31
0.0
  0
LINE
  5
9D
100
AcDbEntity
  8
0
 62
256
370
-1
 48
1.0
  6
BYLAYER
100
AcDbLine
 10
2.7787996469060516
 20
4.7338356566217499
 30
0.0
 11
3.1399548457051907
 21
4.2564019271309803
 31
0.0
  0
LINE
  5
9E
100
AcDbEntity
  8
0
 62
256
370
-1
 48
1.0
  6
BYLAYER
100
AcDbLine
 10
2.436336375981611
 20
5.2248496886464864
 30
0.0
 11
2.7787996469060516
 21
4.7338356566217499
 31
0.0
  0
LINE
  5
9F
100
AcDbEntity
  8
0
 62
256
370
-1
 48
1.0
  6
BYLAYER
100
AcDbLine
 10
2.6076186462882163
 20
5.6248003105403654
 30
0.0
 11
2.436336375981611
 21
5.2248496886464864
 31
0.0
  0
LINE
  5
A0
100
AcDbEntity
  8
0
 62
256
370
-1
 48
1.0
  6
BYLAYER
100
AcDbLine
 10
2.6943027038126814
 20
5.8069731237286533
 30
0.0
 11
2.6076186462882163
 21
5.6248003105403654
 31
0.0
  0
LINE
  5
A1
100
AcDbEntity
  8
0
 62
256
370
-1
 48
1.0
  6
BYLAYER
100
AcDbLine
 10
2.7827724915276519
 20
5.974461046309159
 30
0.0
 11
2.6943027038126814
 21
5.8069731237286533
 31
0.0
  0
LINE
  5
A2
100
AcDbEntity
  8
0
 62
256
370
-1
 48
1.0
  6
BYLAYER
100
AcDbLine
 10
2.8720767337951827
 20
6.1276544918176796
 30
0.0
 11
2.7827724915276519
 21
5.974461046309159
 31
0.0
  0
LINE
  5
A3
100
AcDbEntity
  8
0
 62
256
370
-1
 48
1.0
  6
BYLAYER
100
AcDbLine
 10
2.9603323573698077
 20
6.2655025356288547
 30
0.0
 11
2.8720767337951827
 21
6.1276544918176796
 31
0.0
  0
LINE
  5
A4
100
AcDbEntity
  8
0
 62
256
370
-1
 48
1.0
  6
BYLAYER
100
AcDbLine
 10
3.049431754707939
 20
6.3925818076311884
 30
0.0
 11
2.9603323573698077
 21
6.2655025356288547
 31
0.0
  0
LINE
  5
A5
100
AcDbEntity
  8
0
 62
256
370
-1
 48
1.0
  6
BYLAYER
100
AcDbLine
 10
3.1345148798910714
 20
6.5036538923689591
 30
0.0
 11
3.049431754707939
 21
6.3925818076311884
 31
0.0
  0
LINE
  5
A6
100
AcDbEntity
  8
0
 62
256
370
-1
 48
1.0
  6
BYLAYER
100
AcDbLine
 10
3.2163415053380504
 20
6.6016826547244705
 30
0.0
 11
3.1345148798910714
 21
6.5036538923689591
 31
0.0
  0
LINE
  5
A7
100
AcDbEntity
  8
0
 62
256
370
-1
 48
1.0
  6
BYLAYER
100
AcDbLine
 10
3.2940070373889512
 20
6.6872171310921544
 30
0.0
 11
3.2163415053380504
 21
6.6016826547244705
 31
0.0
  0
LINE
  5
A8
100
AcDbEntity
  8
0
 62
256
370
-1
 48
1.0
  6
BYLAYER
100
AcDbLine
 10
3.3691273884590487
 20
6.7633028677749962
 30
0.0
 11
3.2940070373889512
 21
6.6872171310921544
 31
0.0
  0
LINE
  5
A9
100
AcDbEntity
  8
0
 62
256
370
-1
 48
1.0
  6
BYLAYER
100
AcDbLine
 10
3.4932055573814011
 20
6.8746169555525967
 30
0.0
 11
3.3691273884590487
 21
6.7633028677749962
 31
0.0
  0
LINE
  5
AA
100
AcDbEntity
  8
0
 62
256
370
-1
 48
1.0
  6
BYLAYER
100
AcDbLine
 10
3.624662329253141
 20
6.9715290997863804
 30
0.0
 11
3.4932055573814011
 21
6.8746169555525967
 31
0.0
  0
LINE
  5
AB
100
AcDbEntity
  8
0
 62
256
370
-1
 48
1.0
  6
BYLAYER
100
AcDbLine
 10
3.700144535677353
 20
7.0099572567471569
 30
0.0
 11
3.624662329253141
 21
6.9715290997863804
 31
0.0
  0
LINE
  5
AC
100
AcDbEntity
  8
0
 62
256
370
-1
 48
1.0
  6
BYLAYER
100
AcDbLine
 10
3.7851083141045336
 20
7.058526597235641
 30
0.0
 11
3.700144535677353
 21
7.0099572567471569
 31
0.0
  0
LINE
  5
AD
100
AcDbEntity
  8
0
 62
256
370
-1
 48
1.0
  6
BYLAYER
100
AcDbLine
 10
3.6613238186559727
 20
7.3336481848119774
 30
0.0
 11
3.7851083141045336
 21
7.058526597235641
 31
0.0
  0
LINE
  5
AE
100
AcDbEntity
  8
0
 62
256
370
-1
 48
1.0
  6
BYLAYER
100
AcDbLine
 10
3.5695047551074595
 20
7.3033784752738597
 30
0.0
 11
3.6613238186559727
 21
7.3336481848119774
 31
0.0
  0
LINE
  5
AF
100
AcDbEntity
  8
0
 62
256
370
-1
 48
1.0
  6
BYLAYER
100
AcDbLine
 10
3.4904395314838439
 20
7.2729977883949459
 30
0.0
 11
3.5695047551074595
 21
7.3033784752738597
 31
0.0
  0
LINE
  5
B0
100
AcDbEntity
  8
0
 62
256
370
-1
 48
1.0
  6
BYLAYER
100
AcDbLine
 10
3.3304582902908635
 20
7.2401532707341971
 30
0.0
 11
3.4904395314838439
 21
7.2729977883949459
 31
0.0
  0
LINE
  5
B1
100
AcDbEntity
  8
0
 62
256
370
-1
 48
1.0
  6
BYLAYER
100
AcDbLine
 10
3.1647112237898369
 20
7.2224288964595758
 30
0.0
 11
3.3304582902908635
 21
7.2401532707341971
 31
0.0
  0
LINE
  5
B2
100
AcDbEntity
  8
0
 62
256
370
-1
 48
1.0
  6
BYLAYER
100
AcDbLine
 10
3.0579033043978541
 20
7.2175149567104881
 30
0.0
 11
3.1647112237898369
 21
7.2224288964595758
 31
0.0
  0
LINE
  5
B3
100
AcDbEntity
  8
0
 62
256
370
-1
 48
1.0
  6
BYLAYER
100
AcDbLine
 10
2.9423705816142416
 20
7.2170318622426635
 30
0.0
 11
3.0579033043978541
 21
7.2175149567104881
 31
0.0
  0
LINE
  5
B4
100
AcDbEntity
  8
0
 62
256
370
-1
 48
1.0
  6
BYLAYER
100
AcDbLine
 10
2.8147681393998454
 20
7.2218168607290636
 30
0.0
 11
2.9423705816142416
 21
7.2170318622426635
 31
0.0
  0
LINE
  5
B5
100
AcDbEntity
  8
0
 62
256
370
-1
 48
1.0
  6
BYLAYER
100
AcDbLine
 10
2.6752936277058552
 20
7.2329094915472751
 30
0.0
 11
2.8147681393998454
 21
7.2218168607290636
 31
0.0
  0
LINE
  5
B6
100
AcDbEntity
  8
0
 62
256
370
-1
 48
1.0
  6
BYLAYER
100
AcDbLine
 10
2.5212361486299102
 20
7.2517284894030922
 30
0.0
 11
2.6752936277058552
 21
7.2329094915472751
 31
0.0
  0
LINE
  5
B7
100
AcDbEntity
  8
0
 62
256
370
-1
 48
1.0
  6
BYLAYER
100
AcDbLine
 10
2.359740752769909
 20
7.2783800713382902
 30
0.0
 11
2.5212361486299102
 21
7.2517284894030922
 31
0.0
  0
LINE
  5
B8
100
AcDbEntity
  8
0
 62
256
370
-1
 48
1.0
  6
BYLAYER
100
AcDbLine
 10
2.1861395015723133
 20
7.3145204679390758
 30
0.0
 11
2.359740752769909
 21
7.2783800713382902
 31
0.0
  0
LINE
  5
B9
100
AcDbEntity
  8
0
 62
256
370
-1
 48
1.0
  6
BYLAYER
100
AcDbLine
 10
2.0024738249524034
 20
7.3608460247668859
 30
0.0
 11
2.1861395015723133
 21
7.3145204679390758
 31
0.0
  0
LINE
  5
BA
100
AcDbEntity
  8
0
 62
256
370
-1
 48
1.0
  6
BYLAYER
100
AcDbLine
 10
1.8090903770365117
 20
7.4183245418612955
 30
0.0
 11
2.0024738249524034
 21
7.3608460247668859
 31
0.0
  0
LINE
  5
BB
100
AcDbEntity
  8
0
 62
256
370
-1
 48
1.0
  6
BYLAYER
100
AcDbLine
 10
1.3972587893911026
 20
7.5586559988949489
 30
0.0
 11
1.8090903770365117
 21
7.4183245418612955
 31
0.0
  0
LINE
  5
BC
100
AcDbEntity
  8
0
 62
256
370
-1
 48
1.0
  6
BYLAYER
100
AcDbLine
 10
1.2615169193167048
 20
8.1417084806504931
 30
0.0
 11
1.3972587893911026
 21
7.5586559988949489
 31
0.0
  0
LINE
  5
BD
100
AcDbEntity
  8
0
 62
256
370
-1
 48
1.0
  6
BYLAYER
100
AcDbLine
 10
1.148374570453413
 20
8.7295643391846625
 30
0.0
 11
1.2615169193167048
 21
8.1417084806504931
 31
0.0
  0
LINE
  5
BE
100
AcDbEntity
  8
0
 62
256
370
-1
 48
1.0
  6
BYLAYER
100
AcDbLine
 10
1.4675231890454086
 20
9.0252707445242777
 30
0.0
 11
1.148374570453413
 21
8.7295643391846625
 31
0.0
  0
LINE
  5
BF
100
AcDbEntity
  8
0
 62
256
370
-1
 48
1.0
  6
BYLAYER
100
AcDbLine
 10
1.6208093534548027
 20
9.1564363221000917
 30
0.0
 11
1.4675231890454086
 21
9.0252707445242777
 31
0.0
  0
LINE
  5
C0
100
AcDbEntity
  8
0
 62
256
370
-1
 48
1.0
  6
BYLAYER
100
AcDbLine
 10
1.7697540919256056
 20
9.273460344795069
 30
0.0
 11
1.6208093534548027
 21
9.1564363221000917
 31
0.0
  0
LINE
  5
C1
100
AcDbEntity
  8
0
 62
256
370
-1
 48
1.0
  6
BYLAYER
100
AcDbLine
 10
1.9136469803250122
 20
9.3770861699198917
 30
0.0
 11
1.7697540919256056
 21
9.273460344795069
 31
0.0
  0
LINE
  5
C2
100
AcDbEntity
  8
0
 62
256
370
-1
 48
1.0
  6
BYLAYER
100
AcDbLine
 10
2.0503402198455092
 20
9.4671197525334492
 30
0.0
 11
1.9136469803250122
 21
9.3770861699198917
 31
0.0
  0
LINE
  5
C3
100
AcDbEntity
  8
0
 62
256
370
-1
 48
1.0
  6
BYLAYER
100
AcDbLine
 10
2.1834243467117034
 20
9.546972521625662
 30
0.0
 11
2.0503402198455092
 21
9.4671197525334492
 31
0.0
  0
LINE
  5
C4
100
AcDbEntity
  8
0
 62
256
370
-1
 48
1.0
  6
BYLAYER
100
AcDbLine
 10
2.3063288894230141
 20
9.6138355749062612
 30
0.0
 11
2.1834243467117034
 21
9.546972521625662
 31
0.0
  0
LINE
  5
C5
100
AcDbEntity
  8
0
 62
256
370
-1
 48
1.0
  6
BYLAYER
100
AcDbLine
 10
2.4209532252594101
 20
9.6701074229447954
 30
0.0
 11
2.3063288894230141
 21
9.6138355749062612
 31
0.0
  0
LINE
  5
C6
100
AcDbEntity
  8
0
 62
256
370
-1
 48
1.0
  6
BYLAYER
100
AcDbLine
 10
2.526694019023509
 20
9.7166574726667818
 30
0.0
 11
2.4209532252594101
 21
9.6701074229447954
 31
0.0
  0
LINE
  5
C7
100
AcDbEntity
  8
0
 62
256
370
-1
 48
1.0
  6
BYLAYER
100
AcDbLine
 10
2.6262666734870095
 20
9.7556111420803973
 30
0.0
 11
2.526694019023509
 21
9.7166574726667818
 31
0.0
  0
LINE
  5
C8
100
AcDbEntity
  8
0
 62
256
370
-1
 48
1.0
  6
BYLAYER
100
AcDbLine
 10
2.7848932211525579
 20
9.8068344318588743
 30
0.0
 11
2.6262666734870095
 21
9.7556111420803973
 31
0.0
  0
LINE
  5
C9
100
AcDbEntity
  8
0
 62
256
370
-1
 48
1.0
  6
BYLAYER
100
AcDbLine
 10
2.9444026673212988
 20
9.8418999064112427
 30
0.0
 11
2.7848932211525579
 21
9.8068344318588743
 31
0.0
  0
LINE
  5
CA
100
AcDbEntity
  8
0
 62
256
370
-1
 48
1.0
  6
BYLAYER
100
AcDbLine
 10
3.0289894429367905
 20
9.8463043899219542
 30
0.0
 11
2.9444026673212988
 21
9.8418999064112427
 31
0.0
  0
LINE
  5
CB
100
AcDbEntity
  8
0
 62
256
370
-1
 48
1.0
  6
BYLAYER
100
AcDbLine
 10
3.1186644383945179
 20
9.8553410435669662
 30
0.0
 11
3.0289894429367905
 21
9.8463043899219542
 31
0.0
  0
LINE
  5
CC
100
AcDbEntity
  8
0
 62
256
370
-1
 48
1.0
  6
BYLAYER
100
AcDbLine
 10
3.1161328794492817
 20
9.9119204380983774
 30
0.0
 11
3.1186644383945179
 21
9.8553410435669662
 31
0.0
  0
LINE
  5
CD
100
AcDbEntity
  8
0
 62
256
370
-1
 48
1.0
  6
BYLAYER
100
AcDbLine
 10
3.1155341790811377
 20
10.0068991682095429
 30
0.0
 11
3.1161328794492817
 21
9.9119204380983774
 31
0.0
  0
LINE
  5
CE
100
AcDbEntity
  8
0
 62
256
370
-1
 48
1.0
  6
BYLAYER
100
AcDbLine
 10
3.1161233399782873
 20
10.1003645422420618
 30
0.0
 11
3.1155341790811377
 21
10.0068991682095429
 31
0.0
  0
LINE
  5
CF
100
AcDbEntity
  8
0
 62
256
370
-1
 48
1.0
  6
BYLAYER
100
AcDbLine
 10
3.1180749614728853
 20
10.1585166951271617
 30
0.0
 11
3.1161233399782873
 21
10.1003645422420618
 31
0.0
  0
LINE
  5
D0
100
AcDbEntity
  8
0
 62
256
370
-1
 48
1.0
  6
BYLAYER
100
AcDbLine
 10
3.0289894429368758
 20
10.1674939464969611
 30
0.0
 11
3.1180749614728853
 21
10.1585166951271617
 31
0.0
  0
LINE
  5
D1
100
AcDbEntity
  8
0
 62
256
370
-1
 48
1.0
  6
BYLAYER
100
AcDbLine
 10
2.9444026673216541
 20
10.1718984300077864
 30
0.0
 11
3.0289894429368758
 21
10.1674939464969611
 31
0.0
  0
LINE
  5
D2
100
AcDbEntity
  8
0
 62
256
370
-1
 48
1.0
  6
BYLAYER
100
AcDbLine
 10
2.7848932211523731
 20
10.2069639045599843
 30
0.0
 11
2.9444026673216541
 21
10.1718984300077864
 31
0.0
  0
LINE
  5
D3
100
AcDbEntity
  8
0
 62
256
370
-1
 48
1.0
  6
BYLAYER
100
AcDbLine
 10
2.6262666734868674
 20
10.2581871943389729
 30
0.0
 11
2.7848932211523731
 21
10.2069639045599843
 31
0.0
  0
LINE
  5
D4
100
AcDbEntity
  8
0
 62
256
370
-1
 48
1.0
  6
BYLAYER
100
AcDbLine
 10
2.5266940190236085
 20
10.2971408637523609
 30
0.0
 11
2.6262666734868674
 21
10.2581871943389729
 31
0.0
  0
LINE
  5
D5
100
AcDbEntity
  8
0
 62
256
370
-1
 48
1.0
  6
BYLAYER
100
AcDbLine
 10
2.4209532252594101
 20
10.3436909134743473
 30
0.0
 11
2.5266940190236085
 21
10.2971408637523609
 31
0.0
  0
LINE
  5
D6
100
AcDbEntity
  8
0
 62
256
370
-1
 48
1.0
  6
BYLAYER
100
AcDbLine
 10
2.3063288894231135
 20
10.3999627615126542
 30
0.0
 11
2.4209532252594101
 21
10.3436909134743473
 31
0.0
  0
LINE
  5
D7
100
AcDbEntity
  8
0
 62
256
370
-1
 48
1.0
  6
BYLAYER
100
AcDbLine
 10
2.1834243467116039
 20
10.4668258147931965
 30
0.0
 11
2.3063288894231135
 21
10.3999627615126542
 31
0.0
  0
LINE
  5
D8
100
AcDbEntity
  8
0
 62
256
370
-1
 48
1.0
  6
BYLAYER
100
AcDbLine
 10
2.0503402198453102
 20
10.5466785838856936
 30
0.0
 11
2.1834243467116039
 21
10.4668258147931965
 31
0.0
  0
LINE
  5
D9
100
AcDbEntity
  8
0
 62
256
370
-1
 48
1.0
  6
BYLAYER
100
AcDbLine
 10
1.9136469803250122
 20
10.6367121664991942
 30
0.0
 11
2.0503402198453102
 21
10.5466785838856936
 31
0.0
  0
LINE
  5
DA
100
AcDbEntity
  8
0
 62
256
370
-1
 48
1.0
  6
BYLAYER
100
AcDbLine
 10
1.7697540919256056
 20
10.7403379916240738
 30
0.0
 11
1.9136469803250122
 21
10.6367121664991942
 31
0.0
  0
LINE
  5
DB
100
AcDbEntity
  8
0
 62
256
370
-1
 48
1.0
  6
BYLAYER
100
AcDbLine
 10
1.6208093534549022
 20
10.857362014319051
 30
0.0
 11
1.7697540919256056
 21
10.7403379916240738
 31
0.0
  0
LINE
  5
DC
100
AcDbEntity
  8
0
 62
256
370
-1
 48
1.0
  6
BYLAYER
100
AcDbLine
 10
1.4675233011884075
 20
10.9885274959350454
 30
0.0
 11
1.6208093534549022
 21
10.857362014319051
 31
0.0
  0
LINE
  5
DD
100
AcDbEntity
  8
0
 62
256
370
-1
 48
1.0
  6
BYLAYER
100
AcDbLine
 10
1.1483744595134056
 20
11.2842337363849765
 30
0.0
 11
1.4675233011884075
 21
10.9885274959350454
 31
0.0
  0
LINE
  5
DE
100
AcDbEntity
  8
0
 62
256
370
-1
 48
1.0
  6
BYLAYER
100
AcDbLine
 10
1.2615169101194112
 20
11.8720898138824964
 30
0.0
 11
1.1483744595134056
 21
11.2842337363849765
 31
0.0
  0
LINE
  5
DF
100
AcDbEntity
  8
0
 62
256
370
-1
 48
1.0
  6
BYLAYER
100
AcDbLine
 10
1.3972588179540111
 20
12.4551420326213815
 30
0.0
 11
1.2615169101194112
 21
11.8720898138824964
 31
0.0
  0
LINE
  5
E0
100
AcDbEntity
  8
0
 62
256
370
-1
 48
1.0
  6
BYLAYER
100
AcDbLine
 10
1.8090902190750029
 20
12.5954737476076843
 30
0.0
 11
1.3972588179540111
 21
12.4551420326213815
 31
0.0
  0
LINE
  5
E1
100
AcDbEntity
  8
0
 62
256
370
-1
 48
1.0
  6
BYLAYER
100
AcDbLine
 10
2.0024738249524034
 20
12.652952311651859
 30
0.0
 11
1.8090902190750029
 21
12.5954737476076843
 31
0.0
  0
LINE
  5
E2
100
AcDbEntity
  8
0
 62
256
370
-1
 48
1.0
  6
BYLAYER
100
AcDbLine
 10
2.1861395015723133
 20
12.6992778684799532
 30
0.0
 11
2.0024738249524034
 21
12.652952311651859
 31
0.0
  0
LINE
  5
E3
100
AcDbEntity
  8
0
 62
256
370
-1
 48
1.0
  6
BYLAYER
100
AcDbLine
 10
2.3597407527700085
 20
12.735418265080682
 30
0.0
 11
2.1861395015723133
 21
12.6992778684799532
 31
0.0
  0
LINE
  5
E4
100
AcDbEntity
  8
0
 62
256
370
-1
 48
1.0
  6
BYLAYER
100
AcDbLine
 10
2.5212361486301091
 20
12.7620698470155958
 30
0.0
 11
2.3597407527700085
 21
12.735418265080682
 31
0.0
  0
LINE
  5
E5
100
AcDbEntity
  8
0
 62
256
370
-1
 48
1.0
  6
BYLAYER
100
AcDbLine
 10
2.6752936277054573
 20
12.7808888448716971
 30
0.0
 11
2.5212361486301091
 21
12.7620698470155958
 31
0.0
  0
LINE
  5
E6
100
AcDbEntity
  8
0
 62
256
370
-1
 48
1.0
  6
BYLAYER
100
AcDbLine
 10
2.8147681393998454
 20
12.7919814756900792
 30
0.0
 11
2.6752936277054573
 21
12.7808888448716971
 31
0.0
  0
LINE
  5
E7
100
AcDbEntity
  8
0
 62
256
370
-1
 48
1.0
  6
BYLAYER
100
AcDbLine
 10
2.942370581614199
 20
12.7967664741761951
 30
0.0
 11
2.8147681393998454
 21
12.7919814756900792
 31
0.0
  0
LINE
  5
E8
100
AcDbEntity
  8
0
 62
256
370
-1
 48
1.0
  6
BYLAYER
100
AcDbLine
 10
3.0579033043973567
 20
12.7962833797086546
 30
0.0
 11
2.942370581614199
 21
12.7967664741761951
 31
0.0
  0
LINE
  5
E9
100
AcDbEntity
  8
0
 62
256
370
-1
 48
1.0
  6
BYLAYER
100
AcDbLine
 10
3.1647112237899648
 20
12.7913694399596807
 30
0.0
 11
3.0579033043973567
 21
12.7962833797086546
 31
0.0
  0
LINE
  5
EA
100
AcDbEntity
  8
0
 62
256
370
-1
 48
1.0
  6
BYLAYER
100
AcDbLine
 10
3.3304582902913182
 20
12.7736450656847751
 30
0.0
 11
3.1647112237899648
 21
12.7913694399596807
 31
0.0
  0
LINE
  5
EB
100
AcDbEntity
  8
0
 62
256
370
-1
 48
1.0
  6
BYLAYER
100
AcDbLine
 10
3.4904395314837018
 20
12.7408005480236852
 30
0.0
 11
3.3304582902913182
 21
12.7736450656847751
 31
0.0
  0
LINE
  5
EC
100
AcDbEntity
  8
0
 62
256
370
-1
 48
1.0
  6
BYLAYER
100
AcDbLine
 10
3.5695047551071468
 20
12.7104198611450556
 30
0.0
 11
3.4904395314837018
 21
12.7408005480236852
 31
0.0
  0
LINE
  5
ED
100
AcDbEntity
  8
0
 62
256
370
-1
 48
1.0
  6
BYLAYER
100
AcDbLine
 10
3.6551027600906423
 20
12.6822010289360492
 30
0.0
 11
3.5695047551071468
 21
12.7104198611450556
 31
0.0
  0
LINE
  5
EE
100
AcDbEntity
  8
0
 62
256
370
-1
 48
1.0
  6
BYLAYER
100
AcDbLine
 10
3.6758029872724478
 20
12.7349185861532419
 30
0.0
 11
3.6551027600906423
 21
12.6822010289360492
 31
0.0
  0
LINE
  5
EF
100
AcDbEntity
  8
0
 62
256
370
-1
 48
1.0
  6
BYLAYER
100
AcDbLine
 10
3.7138873094658891
 20
12.8219293482358694
 30
0.0
 11
3.6758029872724478
 21
12.7349185861532419
 31
0.0
  0
LINE
  5
F0
100
AcDbEntity
  8
0
 62
256
370
-1
 48
1.0
  6
BYLAYER
100
AcDbLine
 10
3.7524413418836104
 20
12.9070746814762742
 30
0.0
 11
3.7138873094658891
 21
12.8219293482358694
 31
0.0
  0
LINE
  5
F1
100
AcDbEntity
  8
0
 62
256
370
-1
 48
1.0
  6
BYLAYER
100
AcDbLine
 10
3.7778768779197947
 20
12.9594055723622432
 30
0.0
 11
3.7524413418836104
 21
12.9070746814762742
 31
0.0
  0
LINE
  5
F2
100
AcDbEntity
  8
0
 62
256
370
-1
 48
1.0
  6
BYLAYER
100
AcDbLine
 10
3.700144535677083
 20
13.0038410796719859
 30
0.0
 11
3.7778768779197947
 21
12.9594055723622432
 31
0.0
  0
LINE
  5
F3
100
AcDbEntity
  8
0
 62
256
370
-1
 48
1.0
  6
BYLAYER
100
AcDbLine
 10
3.624662329252871
 20
13.0422692366329898
 30
0.0
 11
3.700144535677083
 21
13.0038410796719859
 31
0.0
  0
LINE
  5
F4
100
AcDbEntity
  8
0
 62
256
370
-1
 48
1.0
  6
BYLAYER
100
AcDbLine
 10
3.4932055573814864
 20
13.1391813808664892
 30
0.0
 11
3.624662329252871
 21
13.0422692366329898
 31
0.0
  0
LINE
  5
F5
100
AcDbEntity
  8
0
 62
256
370
-1
 48
1.0
  6
BYLAYER
100
AcDbLine
 10
3.369127388459134
 20
13.2504954686437486
 30
0.0
 11
3.4932055573814864
 21
13.1391813808664892
 31
0.0
  0
LINE
  5
F6
100
AcDbEntity
  8
0
 62
256
370
-1
 48
1.0
  6
BYLAYER
100
AcDbLine
 10
3.2940070373890791
 20
13.3265812053265904
 30
0.0
 11
3.369127388459134
 21
13.2504954686437486
 31
0.0
  0
LINE
  5
F7
100
AcDbEntity
  8
0
 62
256
370
-1
 48
1.0
  6
BYLAYER
100
AcDbLine
 10
3.2163415053381783
 20
13.4121156816943881
 30
0.0
 11
3.2940070373890791
 21
13.3265812053265904
 31
0.0
  0
LINE
  5
F8
100
AcDbEntity
  8
0
 62
256
370
-1
 48
1.0
  6
BYLAYER
100
AcDbLine
 10
3.1345148798909719
 20
13.5101444440498426
 30
0.0
 11
3.2163415053381783
 21
13.4121156816943881
 31
0.0
  0
LINE
  5
F9
100
AcDbEntity
  8
0
 62
256
370
-1
 48
1.0
  6
BYLAYER
100
AcDbLine
 10
3.0494317547077685
 20
13.6212165287883522
 30
0.0
 11
3.1345148798909719
 21
13.5101444440498426
 31
0.0
  0
LINE
  5
FA
100
AcDbEntity
  8
0
 62
256
370
-1
 48
1.0
  6
BYLAYER
100
AcDbLine
 10
2.9603323573698077
 20
13.748295800790288
 30
0.0
 11
3.0494317547077685
 21
13.6212165287883522
 31
0.0
  0
LINE
  5
FB
100
AcDbEntity
  8
0
 62
256
370
-1
 48
1.0
  6
BYLAYER
100
AcDbLine
 10
2.8720767337952253
 20
13.8861438446015768
 30
0.0
 11
2.9603323573698077
 21
13.748295800790288
 31
0.0
  0
LINE
  5
FC
100
AcDbEntity
  8
0
 62
256
370
-1
 48
1.0
  6
BYLAYER
100
AcDbLine
 10
2.7827724915276946
 20
14.0393372901099838
 30
0.0
 11
2.8720767337952253
 21
13.8861438446015768
 31
0.0
  0
LINE
  5
FD
100
AcDbEntity
  8
0
 62
256
370
-1
 48
1.0
  6
BYLAYER
100
AcDbLine
 10
2.6943027038126388
 20
14.2068252126902621
 30
0.0
 11
2.7827724915276946
 21
14.0393372901099838
 31
0.0
  0
LINE
  5
FE
100
AcDbEntity
  8
0
 62
256
370
-1
 48
1.0
  6
BYLAYER
100
AcDbLine
 10
2.6076186585651726
 20
14.3889980000778905
 30
0.0
 11
2.6943027038126388
 21
14.2068252126902621
 31
0.0
  0
LINE
  5
FF
100
AcDbEntity
  8
0
 62
256
370
-1
 48
1.0
  6
BYLAYER
100
AcDbLine
 10
2.436336338926111
 20
14.7889486031287447
 30
0.0
 11
2.6076186585651726
 21
14.3889980000778905
 31
0.0
  0
LINE
  5
100
100
AcDbEntity
  8
0
 62
256
370
-1
 48
1.0
  6
BYLAYER
100
AcDbLine
 10
2.7787995790779974
 20
15.2799627259721547
 30
0.0
 11
2.436336338926111
 21
14.7889486031287447
 31
0.0
  0
LINE
  5
101
100
AcDbEntity
  8
0
 62
256
370
-1
 48
1.0
  6
BYLAYER
100
AcDbLine
 10
3.1399548714448002
 20
15.7573964641527482
 30
0.0
 11
2.7787995790779974
 21
15.2799627259721547
 31
0.0
  0
LINE
  5
102
100
AcDbEntity
  8
0
 62
256
370
-1
 48
1.0
  6
BYLAYER
100
AcDbLine
 10
3.573259673081381
 20
15.7180886301943588
 30
0.0
 11
3.1399548714448002
 21
15.7573964641527482
 31
0.0
  0
LINE
  5
103
100
AcDbEntity
  8
0
 62
256
370
-1
 48
1.0
  6
BYLAYER
100
AcDbLine
 10
3.7733028935536765
 20
15.6919417316552767
 30
0.0
 11
3.573259673081381
 21
15.7180886301943588
 31
0.0
  0
LINE
  5
104
100
AcDbEntity
  8
0
 62
256
370
-1
 48
1.0
  6
BYLAYER
100
AcDbLine
 10
3.9599321243463237
 20
15.6595586177150494
 30
0.0
 11
3.7733028935536765
 21
15.6919417316552767
 31
0.0
  0
LINE
  5
105
100
AcDbEntity
  8
0
 62
256
370
-1
 48
1.0
  6
BYLAYER
100
AcDbLine
 10
4.1332243276195726
 20
15.6219645717423532
 30
0.0
 11
3.9599321243463237
 21
15.6595586177150494
 31
0.0
  0
LINE
  5
106
100
AcDbEntity
  8
0
 62
256
370
-1
 48
1.0
  6
BYLAYER
100
AcDbLine
 10
4.2915980552711943
 20
15.580625865086688
 30
0.0
 11
4.1332243276195726
 21
15.6219645717423532
 31
0.0
  0
LINE
  5
107
100
AcDbEntity
  8
0
 62
256
370
-1
 48
1.0
  6
BYLAYER
100
AcDbLine
 10
4.439990796004821
 20
15.5351570444365734
 30
0.0
 11
4.2915980552711943
 21
15.580625865086688
 31
0.0
  0
LINE
  5
108
100
AcDbEntity
  8
0
 62
256
370
-1
 48
1.0
  6
BYLAYER
100
AcDbLine
 10
4.5719189232299442
 20
15.4885613063556775
 30
0.0
 11
4.439990796004821
 21
15.5351570444365734
 31
0.0
  0
LINE
  5
109
100
AcDbEntity
  8
0
 62
256
370
-1
 48
1.0
  6
BYLAYER
100
AcDbLine
 10
4.6904356500600954
 20
15.4410320707328879
 30
0.0
 11
4.5719189232299442
 21
15.4885613063556775
 31
0.0
  0
LINE
  5
10A
100
AcDbEntity
  8
0
 62
256
370
-1
 48
1.0
  6
BYLAYER
100
AcDbLine
 10
4.7957836332968213
 20
15.393599395510762
 30
0.0
 11
4.6904356500600954
 21
15.4410320707328879
 31
0.0
  0
LINE
  5
10B
100
AcDbEntity
  8
0
 62
256
370
-1
 48
1.0
  6
BYLAYER
100
AcDbLine
 10
4.8913589704968672
 20
15.3456675065881427
 30
0.0
 11
4.7957836332968213
 21
15.393599395510762
 31
0.0
  0
LINE
  5
10C
100
AcDbEntity
  8
0
 62
256
370
-1
 48
1.0
  6
BYLAYER
100
AcDbLine
 10
5.0355670915646868
 20
15.2620601653402446
 30
0.0
 11
4.8913589704968672
 21
15.3456675065881427
 31
0.0
  0
LINE
  5
10D
100
AcDbEntity
  8
0
 62
256
370
-1
 48
1.0
  6
BYLAYER
100
AcDbLine
 10
5.1683583887315478
 20
15.1669848941308487
 30
0.0
 11
5.0355670915646868
 21
15.2620601653402446
 31
0.0
  0
LINE
  5
10E
100
AcDbEntity
  8
0
 62
256
370
-1
 48
1.0
  6
BYLAYER
100
AcDbLine
 10
5.2282310645002497
 20
15.1070720164119621
 30
0.0
 11
5.1683583887315478
 21
15.1669848941308487
 31
0.0
  0
LINE
  5
10F
100
AcDbEntity
  8
0
 62
256
370
-1
 48
1.0
  6
BYLAYER
100
AcDbLine
 10
5.2949510441545442
 20
15.0464770793305433
 30
0.0
 11
5.2282310645002497
 21
15.1070720164119621
 31
0.0
  0
LINE
  5
110
100
AcDbEntity
  8
0
 62
256
370
-1
 48
1.0
  6
BYLAYER
100
AcDbLine
 10
5.335303861216147
 20
15.0862174971104537
 30
0.0
 11
5.2949510441545442
 21
15.0464770793305433
 31
0.0
  0
LINE
  5
111
100
AcDbEntity
  8
0
 62
256
370
-1
 48
1.0
  6
BYLAYER
100
AcDbLine
 10
5.4054861016486342
 20
15.150215399927788
 30
0.0
 11
5.335303861216147
 21
15.0862174971104537
 31
0.0
  0
LINE
  5
112
100
AcDbEntity
  8
0
 62
256
370
-1
 48
1.0
  6
BYLAYER
100
AcDbLine
 10
5.4753384751480212
 20
15.2123180953354904
 30
0.0
 11
5.4054861016486342
 21
15.150215399927788
 31
0.0
  0
LINE
  5
113
100
AcDbEntity
  8
0
 62
256
370
-1
 48
1.0
  6
BYLAYER
100
AcDbLine
 10
5.519859965292639
 20
15.2497792352552892
 30
0.0
 11
5.4753384751480212
 21
15.2123180953354904
 31
0.0
  0
LINE
  5
114
100
AcDbEntity
  8
0
 62
256
370
-1
 48
1.0
  6
BYLAYER
100
AcDbLine
 10
5.4669213449016212
 20
15.3219899045277543
 30
0.0
 11
5.519859965292639
 21
15.2497792352552892
 31
0.0
  0
LINE
  5
115
100
AcDbEntity
  8
0
 62
256
370
-1
 48
1.0
  6
BYLAYER
100
AcDbLine
 10
5.4135951604746708
 20
15.3877971507262714
 30
0.0
 11
5.4669213449016212
 21
15.3219899045277543
 31
0.0
  0
LINE
  5
116
100
AcDbEntity
  8
0
 62
256
370
-1
 48
1.0
  6
BYLAYER
100
AcDbLine
 10
5.3329213230839798
 20
15.5297987525523808
 30
0.0
 11
5.4135951604746708
 21
15.3877971507262714
 31
0.0
  0
LINE
  5
117
100
AcDbEntity
  8
0
 62
256
370
-1
 48
1.0
  6
BYLAYER
100
AcDbLine
 10
5.2648455637300344
 20
15.6819566532474823
 30
0.0
 11
5.3329213230839798
 21
15.5297987525523808
 31
0.0
  0
LINE
  5
118
100
AcDbEntity
  8
0
 62
256
370
-1
 48
1.0
  6
BYLAYER
100
AcDbLine
 10
5.2271667908850645
 20
15.7820185811329452
 30
0.0
 11
5.2648455637300344
 21
15.6819566532474823
 31
0.0
  0
LINE
  5
119
100
AcDbEntity
  8
0
 62
256
370
-1
 48
1.0
  6
BYLAYER
100
AcDbLine
 10
5.1910057752201055
 20
15.8917472591102751
 30
0.0
 11
5.2271667908850645
 21
15.7820185811329452
 31
0.0
  0
LINE
  5
11A
100
AcDbEntity
  8
0
 62
256
370
-1
 48
1.0
  6
BYLAYER
100
AcDbLine
 10
5.1561252005080718
 20
16.0145832675430597
 30
0.0
 11
5.1910057752201055
 21
15.8917472591102751
 31
0.0
  0
LINE
  5
11B
100
AcDbEntity
  8
0
 62
256
370
-1
 48
1.0
  6
BYLAYER
100
AcDbLine
 10
5.1235750428330107
 20
16.1506591042056584
 30
0.0
 11
5.1561252005080718
 21
16.0145832675430597
 31
0.0
  0
LINE
  5
11C
100
AcDbEntity
  8
0
 62
256
370
-1
 48
1.0
  6
BYLAYER
100
AcDbLine
 10
5.0938665005929806
 20
16.3029917534702804
 30
0.0
 11
5.1235750428330107
 21
16.1506591042056584
 31
0.0
  0
LINE
  5
11D
100
AcDbEntity
  8
0
 62
256
370
-1
 48
1.0
  6
BYLAYER
100
AcDbLine
 10
5.0693088748733857
 20
16.4648189565943426
 30
0.0
 11
5.0938665005929806
 21
16.3029917534702804
 31
0.0
  0
LINE
  5
11E
100
AcDbEntity
  8
0
 62
256
370
-1
 48
1.0
  6
BYLAYER
100
AcDbLine
 10
5.0500347980816116
 20
16.6410912930121526
 30
0.0
 11
5.0693088748733857
 21
16.4648189565943426
 31
0.0
  0
LINE
  5
11F
100
AcDbEntity
  8
0
 62
256
370
-1
 48
1.0
  6
BYLAYER
100
AcDbLine
 10
5.0373370578668357
 20
16.8300831288603945
 30
0.0
 11
5.0500347980816116
 21
16.6410912930121526
 31
0.0
  0
LINE
  5
120
100
AcDbEntity
  8
0
 62
256
370
-1
 48
1.0
  6
BYLAYER
100
AcDbLine
 10
5.0322435762655147
 20
17.0317638078181517
 30
0.0
 11
5.0373370578668357
 21
16.8300831288603945
 31
0.0
  0
LINE
  5
121
100
AcDbEntity
  8
0
 62
256
370
-1
 48
1.0
  6
BYLAYER
100
AcDbLine
 10
5.0384440848568346
 20
17.4668036945640779
 30
0.0
 11
5.0322435762655147
 21
17.0317638078181517
 31
0.0
  0
LINE
  5
122
100
AcDbEntity
  8
0
 62
256
370
-1
 48
1.0
  6
BYLAYER
100
AcDbLine
 10
5.5510131688477458
 20
17.7760750029037808
 30
0.0
 11
5.0384440848568346
 21
17.4668036945640779
 31
0.0
  0
LINE
  5
123
100
AcDbEntity
  8
0
 62
256
370
-1
 48
1.0
  6
BYLAYER
100
AcDbLine
 10
6.0751346669433133
 20
18.0653373260841477
 30
0.0
 11
5.5510131688477458
 21
17.7760750029037808
 31
0.0
  0
LINE
  5
124
100
AcDbEntity
  8
0
 62
256
370
-1
 48
1.0
  6
BYLAYER
100
AcDbLine
 10
6.4549903727574218
 20
17.8531869757444497
 30
0.0
 11
6.0751346669433133
 21
18.0653373260841477
 31
0.0
  0
LINE
  5
125
100
AcDbEntity
  8
0
 62
256
370
-1
 48
1.0
  6
BYLAYER
100
AcDbLine
 10
6.6271041233254238
 20
17.7479356537385797
 30
0.0
 11
6.4549903727574218
 21
17.8531869757444497
 31
0.0
  0
LINE
  5
126
100
AcDbEntity
  8
0
 62
256
370
-1
 48
1.0
  6
BYLAYER
100
AcDbLine
 10
6.7844270789171759
 20
17.6424432460283924
 30
0.0
 11
6.6271041233254238
 21
17.7479356537385797
 31
0.0
  0
LINE
  5
127
100
AcDbEntity
  8
0
 62
256
370
-1
 48
1.0
  6
BYLAYER
100
AcDbLine
 10
6.9274464343113209
 20
17.5376150850492536
 30
0.0
 11
6.7844270789171759
 21
17.6424432460283924
 31
0.0
  0
LINE
  5
128
100
AcDbEntity
  8
0
 62
256
370
-1
 48
1.0
  6
BYLAYER
100
AcDbLine
 10
7.0553139556236175
 20
17.4354340106909831
 30
0.0
 11
6.9274464343113209
 21
17.5376150850492536
 31
0.0
  0
LINE
  5
129
100
AcDbEntity
  8
0
 62
256
370
-1
 48
1.0
  6
BYLAYER
100
AcDbLine
 10
7.1723837484914696
 20
17.3335393414852774
 30
0.0
 11
7.0553139556236175
 21
17.4354340106909831
 31
0.0
  0
LINE
  5
12A
100
AcDbEntity
  8
0
 62
256
370
-1
 48
1.0
  6
BYLAYER
100
AcDbLine
 10
7.273953928940557
 20
17.2373119191030924
 30
0.0
 11
7.1723837484914696
 21
17.3335393414852774
 31
0.0
  0
LINE
  5
12B
100
AcDbEntity
  8
0
 62
256
370
-1
 48
1.0
  6
BYLAYER
100
AcDbLine
 10
7.3628923418544332
 20
17.1456867675805711
 30
0.0
 11
7.273953928940557
 21
17.2373119191030924
 31
0.0
  0
LINE
  5
12C
100
AcDbEntity
  8
0
 62
256
370
-1
 48
1.0
  6
BYLAYER
100
AcDbLine
 10
7.4398399578411585
 20
17.059506006447748
 30
0.0
 11
7.3628923418544332
 21
17.1456867675805711
 31
0.0
  0
LINE
  5
12D
100
AcDbEntity
  8
0
 62
256
370
-1
 48
1.0
  6
BYLAYER
100
AcDbLine
 10
7.5076567908091363
 20
16.9768438838900693
 30
0.0
 11
7.4398399578411585
 21
17.059506006447748
 31
0.0
  0
LINE
  5
12E
100
AcDbEntity
  8
0
 62
256
370
-1
 48
1.0
  6
BYLAYER
100
AcDbLine
 10
7.6053911670085199
 20
16.8418101747659534
 30
0.0
 11
7.5076567908091363
 21
16.9768438838900693
 31
0.0
  0
LINE
  5
12F
100
AcDbEntity
  8
0
 62
256
370
-1
 48
1.0
  6
BYLAYER
100
AcDbLine
 10
7.688031481440305
 20
16.7009436130710469
 30
0.0
 11
7.6053911670085199
 21
16.8418101747659534
 31
0.0
  0
LINE
  5
130
100
AcDbEntity
  8
0
 62
256
370
-1
 48
1.0
  6
BYLAYER
100
AcDbLine
 10
7.7183592089693889
 20
16.621857876559659
 30
0.0
 11
7.688031481440305
 21
16.7009436130710469
 31
0.0
  0
LINE
  5
131
100
AcDbEntity
  8
0
 62
256
370
-1
 48
1.0
  6
BYLAYER
100
AcDbLine
 10
7.75545393835651
 20
16.5375709003396878
 30
0.0
 11
7.7183592089693889
 21
16.621857876559659
 31
0.0
  0
LINE
  5
132
100
AcDbEntity
  8
0
 62
256
370
-1
 48
1.0
  6
BYLAYER
100
AcDbLine
 10
7.8941854082715253
 20
16.5880139908675801
 30
0.0
 11
7.75545393835651
 21
16.5375709003396878
 31
0.0
  0
LINE
  5
133
100
AcDbEntity
  8
0
 62
256
370
-1
 48
1.0
  6
BYLAYER
100
AcDbLine
 10
7.9869106493938773
 20
16.6174973833871604
 30
0.0
 11
7.8941854082715253
 21
16.5880139908675801
 31
0.0
  0
LINE
  5
134
100
AcDbEntity
  8
0
 62
256
370
-1
 48
1.0
  6
BYLAYER
100
AcDbLine
 10
8.0428197635238092
 20
16.633611292813157
 30
0.0
 11
7.9869106493938773
 21
16.6174973833871604
 31
0.0
  0
LINE
  5
135
100
AcDbEntity
  8
0
 62
256
370
-1
 48
1.0
  6
BYLAYER
100
AcDbLine
 10
8.0238286796633389
 20
16.7211107342750438
 30
0.0
 11
8.0428197635238092
 21
16.633611292813157
 31
0.0
  0
LINE
  5
136
100
AcDbEntity
  8
0
 62
256
370
-1
 48
1.0
  6
BYLAYER
100
AcDbLine
 10
8.0018787979652899
 20
16.802918823818743
 30
0.0
 11
8.0238286796633389
 21
16.7211107342750438
 31
0.0
  0
LINE
  5
137
100
AcDbEntity
  8
0
 62
256
370
-1
 48
1.0
  6
BYLAYER
100
AcDbLine
 10
7.9859370031312977
 20
16.9654569233903771
 30
0.0
 11
8.0018787979652899
 21
16.802918823818743
 31
0.0
  0
LINE
  5
138
100
AcDbEntity
  8
0
 62
256
370
-1
 48
1.0
  6
BYLAYER
100
AcDbLine
 10
7.985634851294094
 20
17.1321485574473513
 30
0.0
 11
7.9859370031312977
 21
16.9654569233903771
 31
0.0
  0
LINE
  5
139
100
AcDbEntity
  8
0
 62
256
370
-1
 48
1.0
  6
BYLAYER
100
AcDbLine
 10
7.9919123814954105
 20
17.2388852924224807
 30
0.0
 11
7.985634851294094
 21
17.1321485574473513
 31
0.0
  0
LINE
  5
13A
100
AcDbEntity
  8
0
 62
256
370
-1
 48
1.0
  6
BYLAYER
100
AcDbLine
 10
8.0035084359670776
 20
17.3538355460609637
 30
0.0
 11
7.9919123814954105
 21
17.2388852924224807
 31
0.0
  0
LINE
  5
13B
100
AcDbEntity
  8
0
 62
256
370
-1
 48
1.0
  6
BYLAYER
100
AcDbLine
 10
8.02160527498269
 20
17.4802386801197827
 30
0.0
 11
8.0035084359670776
 21
17.3538355460609637
 31
0.0
  0
LINE
  5
13C
100
AcDbEntity
  8
0
 62
256
370
-1
 48
1.0
  6
BYLAYER
100
AcDbLine
 10
8.0472162432638612
 20
17.6177895792761774
 30
0.0
 11
8.02160527498269
 21
17.4802386801197827
 31
0.0
  0
LINE
  5
13D
100
AcDbEntity
  8
0
 62
256
370
-1
 48
1.0
  6
BYLAYER
100
AcDbLine
 10
8.0820353807330605
 20
17.769035906298086
 30
0.0
 11
8.0472162432638612
 21
17.6177895792761774
 31
0.0
  0
LINE
  5
13E
100
AcDbEntity
  8
0
 62
256
370
-1
 48
1.0
  6
BYLAYER
100
AcDbLine
 10
8.1254219619090833
 20
17.9268609607248663
 30
0.0
 11
8.0820353807330605
 21
17.769035906298086
 31
0.0
  0
LINE
  5
13F
100
AcDbEntity
  8
0
 62
256
370
-1
 48
1.0
  6
BYLAYER
100
AcDbLine
 10
8.1795105982685641
 20
18.0957332502668464
 30
0.0
 11
8.1254219619090833
 21
17.9268609607248663
 31
0.0
  0
LINE
  5
140
100
AcDbEntity
  8
0
 62
256
370
-1
 48
1.0
  6
BYLAYER
100
AcDbLine
 10
8.244780536213014
 20
18.2735504954463863
 30
0.0
 11
8.1795105982685641
 21
18.0957332502668464
 31
0.0
  0
LINE
  5
141
100
AcDbEntity
  8
0
 62
256
370
-1
 48
1.0
  6
BYLAYER
100
AcDbLine
 10
8.3221583630839291
 20
18.4598666455162856
 30
0.0
 11
8.244780536213014
 21
18.2735504954463863
 31
0.0
  0
LINE
  5
142
100
AcDbEntity
  8
0
 62
256
370
-1
 48
1.0
  6
BYLAYER
100
AcDbLine
 10
8.5047693109041518
 20
18.8547734867354961
 30
0.0
 11
8.3221583630839291
 21
18.4598666455162856
 31
0.0
  0
LINE
  5
143
100
AcDbEntity
  8
0
 62
256
370
-1
 48
1.0
  6
BYLAYER
100
AcDbLine
 10
9.0988165436889119
 20
18.9288262408431933
 30
0.0
 11
8.5047693109041518
 21
18.8547734867354961
 31
0.0
  0
LINE
  5
144
100
AcDbEntity
  8
0
 62
256
370
-1
 48
1.0
  6
BYLAYER
100
AcDbLine
 10
9.6952789318590646
 20
18.9799011387064525
 30
0.0
 11
9.0988165436889119
 21
18.9288262408431933
 31
0.0
  0
LINE
  5
145
100
AcDbEntity
  8
0
 62
256
370
-1
 48
1.0
  6
BYLAYER
100
AcDbLine
 10
9.9560050891246732
 20
18.6315908530162915
 30
0.0
 11
9.6952789318590646
 21
18.9799011387064525
 31
0.0
  0
LINE
  5
146
100
AcDbEntity
  8
0
 62
256
370
-1
 48
1.0
  6
BYLAYER
100
AcDbLine
 10
10.0704292747711435
 20
18.4654340542634827
 30
0.0
 11
9.9560050891246732
 21
18.6315908530162915
 31
0.0
  0
LINE
  5
147
100
AcDbEntity
  8
0
 62
256
370
-1
 48
1.0
  6
BYLAYER
100
AcDbLine
 10
10.1712432757947795
 20
18.3050729566775772
 30
0.0
 11
10.0704292747711435
 21
18.4654340542634827
 31
0.0
  0
LINE
  5
148
100
AcDbEntity
  8
0
 62
256
370
-1
 48
1.0
  6
BYLAYER
100
AcDbLine
 10
10.2592606052155588
 20
18.151136380518949
 30
0.0
 11
10.1712432757947795
 21
18.3050729566775772
 31
0.0
  0
LINE
  5
149
100
AcDbEntity
  8
0
 62
256
370
-1
 48
1.0
  6
BYLAYER
100
AcDbLine
 10
10.3345126025661216
 20
18.0057808650115589
 30
0.0
 11
10.2592606052155588
 21
18.151136380518949
 31
0.0
  0
LINE
  5
14A
100
AcDbEntity
  8
0
 62
256
370
-1
 48
1.0
  6
BYLAYER
100
AcDbLine
 10
10.4000167958213012
 20
17.8650790621671831
 30
0.0
 11
10.3345126025661216
 21
18.0057808650115589
 31
0.0
  0
LINE
  5
14B
100
AcDbEntity
  8
0
 62
256
370
-1
 48
1.0
  6
BYLAYER
100
AcDbLine
 10
10.4536666534492468
 20
17.7358586073941638
 30
0.0
 11
10.4000167958213012
 21
17.8650790621671831
 31
0.0
  0
LINE
  5
14C
100
AcDbEntity
  8
0
 62
256
370
-1
 48
1.0
  6
BYLAYER
100
AcDbLine
 10
10.49764872050919
 20
17.6159800154921413
 30
0.0
 11
10.4536666534492468
 21
17.7358586073941638
 31
0.0
  0
LINE
  5
14D
100
AcDbEntity
  8
0
 62
256
370
-1
 48
1.0
  6
BYLAYER
100
AcDbLine
 10
10.5328907682367827
 20
17.5059527904194852
 30
0.0
 11
10.49764872050919
 21
17.6159800154921413
 31
0.0
  0
LINE
  5
14E
100
AcDbEntity
  8
0
 62
256
370
-1
 48
1.0
  6
BYLAYER
100
AcDbLine
 10
10.5612228622565567
 20
17.4028539742423618
 30
0.0
 11
10.5328907682367827
 21
17.5059527904194852
 31
0.0
  0
LINE
  5
14F
100
AcDbEntity
  8
0
 62
256
370
-1
 48
1.0
  6
BYLAYER
100
AcDbLine
 10
10.5955846020898719
 20
17.2397419383798933
 30
0.0
 11
10.5612228622565567
 21
17.4028539742423618
 31
0.0
  0
LINE
  5
150
100
AcDbEntity
  8
0
 62
256
370
-1
 48
1.0
  6
BYLAYER
100
AcDbLine
 10
10.6137846828070082
 20
17.077440950887194
 30
0.0
 11
10.5955846020898719
 21
17.2397419383798933
 31
0.0
  0
LINE
  5
151
100
AcDbEntity
  8
0
 62
256
370
-1
 48
1.0
  6
BYLAYER
100
AcDbLine
 10
10.6093233023902229
 20
16.9928572574989971
 30
0.0
 11
10.6137846828070082
 21
17.077440950887194
 31
0.0
  0
LINE
  5
152
100
AcDbEntity
  8
0
 62
256
370
-1
 48
1.0
  6
BYLAYER
100
AcDbLine
 10
10.6089368940542954
 20
16.9027289311913478
 30
0.0
 11
10.6093233023902229
 21
16.9928572574989971
 31
0.0
  0
LINE
  5
153
100
AcDbEntity
  8
0
 62
256
370
-1
 48
1.0
  6
BYLAYER
100
AcDbLine
 10
10.6654711033073539
 20
16.899332442332252
 30
0.0
 11
10.6089368940542954
 21
16.9027289311913478
 31
0.0
  0
LINE
  5
154
100
AcDbEntity
  8
0
 62
256
370
-1
 48
1.0
  6
BYLAYER
100
AcDbLine
 10
10.7599919577020984
 20
16.8899998482570481
 30
0.0
 11
10.6654711033073539
 21
16.899332442332252
 31
0.0
  0
LINE
  5
155
100
AcDbEntity
  8
0
 62
256
370
-1
 48
1.0
  6
BYLAYER
100
AcDbLine
 10
10.8528836399143671
 20
16.8796441887247965
 30
0.0
 11
10.7599919577020984
 21
16.8899998482570481
 31
0.0
  0
LINE
  5
156
100
AcDbEntity
  8
0
 62
256
370
-1
 48
1.0
  6
BYLAYER
100
AcDbLine
 10
10.9105132991703471
 20
16.8716246869422548
 30
0.0
 11
10.8528836399143671
 21
16.8796441887247965
 31
0.0
  0
LINE
  5
157
100
AcDbEntity
  8
0
 62
256
370
-1
 48
1.0
  6
BYLAYER
100
AcDbLine
 10
10.9287534025193338
 20
16.9592837830293774
 30
0.0
 11
10.9105132991703471
 21
16.8716246869422548
 31
0.0
  0
LINE
  5
158
100
AcDbEntity
  8
0
 62
256
370
-1
 48
1.0
  6
BYLAYER
100
AcDbLine
 10
10.9419754129952196
 20
17.0429467201596481
 30
0.0
 11
10.9287534025193338
 21
16.9592837830293774
 31
0.0
  0
LINE
  5
159
100
AcDbEntity
  8
0
 62
256
370
-1
 48
1.0
  6
BYLAYER
100
AcDbLine
 10
10.9935221572702204
 20
17.1979170942094584
 30
0.0
 11
10.9419754129952196
 21
17.0429467201596481
 31
0.0
  0
LINE
  5
15A
100
AcDbEntity
  8
0
 62
256
370
-1
 48
1.0
  6
BYLAYER
100
AcDbLine
 10
11.0610457466152923
 20
17.3503203565901458
 30
0.0
 11
10.9935221572702204
 21
17.1979170942094584
 31
0.0
  0
LINE
  5
15B
100
AcDbEntity
  8
0
 62
256
370
-1
 48
1.0
  6
BYLAYER
100
AcDbLine
 10
11.1101943174330273
 20
17.4452758963727774
 30
0.0
 11
11.0610457466152923
 21
17.3503203565901458
 31
0.0
  0
LINE
  5
15C
100
AcDbEntity
  8
0
 62
256
370
-1
 48
1.0
  6
BYLAYER
100
AcDbLine
 10
11.1675422546412904
 20
17.5455715228585518
 30
0.0
 11
11.1101943174330273
 21
17.4452758963727774
 31
0.0
  0
LINE
  5
15D
100
AcDbEntity
  8
0
 62
256
370
-1
 48
1.0
  6
BYLAYER
100
AcDbLine
 10
11.2354872272288162
 20
17.65368579239356
 30
0.0
 11
11.1675422546412904
 21
17.5455715228585518
 31
0.0
  0
LINE
  5
15E
100
AcDbEntity
  8
0
 62
256
370
-1
 48
1.0
  6
BYLAYER
100
AcDbLine
 10
11.3148310330726503
 20
17.7689281032462532
 30
0.0
 11
11.2354872272288162
 21
17.65368579239356
 31
0.0
  0
LINE
  5
15F
100
AcDbEntity
  8
0
 62
256
370
-1
 48
1.0
  6
BYLAYER
100
AcDbLine
 10
11.4081575185524997
 20
17.8929363124310612
 30
0.0
 11
11.3148310330726503
 21
17.7689281032462532
 31
0.0
  0
LINE
  5
160
100
AcDbEntity
  8
0
 62
256
370
-1
 48
1.0
  6
BYLAYER
100
AcDbLine
 10
11.5119861939274557
 20
18.0194695982202688
 30
0.0
 11
11.4081575185524997
 21
17.8929363124310612
 31
0.0
  0
LINE
  5
161
100
AcDbEntity
  8
0
 62
256
370
-1
 48
1.0
  6
BYLAYER
100
AcDbLine
 10
11.630085261094905
 20
18.1517424520741883
 30
0.0
 11
11.5119861939274557
 21
18.0194695982202688
 31
0.0
  0
LINE
  5
162
100
AcDbEntity
  8
0
 62
256
370
-1
 48
1.0
  6
BYLAYER
100
AcDbLine
 10
11.7620372260724224
 20
18.2876388572245787
 30
0.0
 11
11.630085261094905
 21
18.1517424520741883
 31
0.0
  0
LINE
  5
163
100
AcDbEntity
  8
0
 62
256
370
-1
 48
1.0
  6
BYLAYER
100
AcDbLine
 10
11.9085068146539896
 20
18.4263746476931942
 30
0.0
 11
11.7620372260724224
 21
18.2876388572245787
 31
0.0
  0
LINE
  5
164
100
AcDbEntity
  8
0
 62
256
370
-1
 48
1.0
  6
BYLAYER
100
AcDbLine
 10
12.2359532397099571
 20
18.7128654405574935
 30
0.0
 11
11.9085068146539896
 21
18.4263746476931942
 31
0.0
  0
LINE
  5
165
100
AcDbEntity
  8
0
 62
256
370
-1
 48
1.0
  6
BYLAYER
100
AcDbLine
 10
12.8087624368534847
 20
18.5388952383686956
 30
0.0
 11
12.2359532397099571
 21
18.7128654405574935
 31
0.0
  0
LINE
  5
166
100
AcDbEntity
  8
0
 62
256
370
-1
 48
1.0
  6
BYLAYER
100
AcDbLine
 10
13.3744319815813242
 20
18.3429513298557936
 30
0.0
 11
12.8087624368534847
 21
18.5388952383686956
 31
0.0
  0
LINE
  5
167
100
AcDbEntity
  8
0
 62
256
370
-1
 48
1.0
  6
BYLAYER
100
AcDbLine
 10
13.470946641839987
 20
17.9187072171729938
 30
0.0
 11
13.3744319815813242
 21
18.3429513298557936
 31
0.0
  0
LINE
  5
168
100
AcDbEntity
  8
0
 62
256
370
-1
 48
1.0
  6
BYLAYER
100
AcDbLine
 10
13.5078962698014777
 20
17.7203749299268907
 30
0.0
 11
13.470946641839987
 21
17.9187072171729938
 31
0.0
  0
LINE
  5
169
100
AcDbEntity
  8
0
 62
256
370
-1
 48
1.0
  6
BYLAYER
100
AcDbLine
 10
13.5347697256654982
 20
17.5328729248151944
 30
0.0
 11
13.5078962698014777
 21
17.7203749299268907
 31
0.0
  0
LINE
  5
16A
100
AcDbEntity
  8
0
 62
256
370
-1
 48
1.0
  6
BYLAYER
100
AcDbLine
 10
13.5525658698502554
 20
17.3564450069419536
 30
0.0
 11
13.5347697256654982
 21
17.5328729248151944
 31
0.0
  0
LINE
  5
16B
100
AcDbEntity
  8
0
 62
256
370
-1
 48
1.0
  6
BYLAYER
100
AcDbLine
 10
13.5621905558069926
 20
17.1930484114614615
 30
0.0
 11
13.5525658698502554
 21
17.3564450069419536
 31
0.0
  0
LINE
  5
16C
100
AcDbEntity
  8
0
 62
256
370
-1
 48
1.0
  6
BYLAYER
100
AcDbLine
 10
13.5648030512774227
 20
17.0378679919638785
 30
0.0
 11
13.5621905558069926
 21
17.1930484114614615
 31
0.0
  0
LINE
  5
16D
100
AcDbEntity
  8
0
 62
256
370
-1
 48
1.0
  6
BYLAYER
100
AcDbLine
 10
13.5612559292146955
 20
16.8979979717026936
 30
0.0
 11
13.5648030512774227
 21
17.0378679919638785
 31
0.0
  0
LINE
  5
16E
100
AcDbEntity
  8
0
 62
256
370
-1
 48
1.0
  6
BYLAYER
100
AcDbLine
 10
13.5526765858673457
 20
16.7705942737646865
 30
0.0
 11
13.5612559292146955
 21
16.8979979717026936
 31
0.0
  0
LINE
  5
16F
100
AcDbEntity
  8
0
 62
256
370
-1
 48
1.0
  6
BYLAYER
100
AcDbLine
 10
13.5401196500491778
 20
16.6557450357719858
 30
0.0
 11
13.5526765858673457
 21
16.7705942737646865
 31
0.0
  0
LINE
  5
170
100
AcDbEntity
  8
0
 62
256
370
-1
 48
1.0
  6
BYLAYER
100
AcDbLine
 10
13.5240682394816929
 20
16.5500359356875606
 30
0.0
 11
13.5401196500491778
 21
16.6557450357719858
 31
0.0
  0
LINE
  5
171
100
AcDbEntity
  8
0
 62
256
370
-1
 48
1.0
  6
BYLAYER
100
AcDbLine
 10
13.4891156663927205
 20
16.3870495571537731
 30
0.0
 11
13.5240682394816929
 21
16.5500359356875606
 31
0.0
  0
LINE
  5
172
100
AcDbEntity
  8
0
 62
256
370
-1
 48
1.0
  6
BYLAYER
100
AcDbLine
 10
13.4397284854002521
 20
16.2313776253488413
 30
0.0
 11
13.4891156663927205
 21
16.3870495571537731
 31
0.0
  0
LINE
  5
173
100
AcDbEntity
  8
0
 62
256
370
-1
 48
1.0
  6
BYLAYER
100
AcDbLine
 10
13.401249525436171
 20
16.1559210739098944
 30
0.0
 11
13.4397284854002521
 21
16.2313776253488413
 31
0.0
  0
LINE
  5
174
100
AcDbEntity
  8
0
 62
256
370
-1
 48
1.0
  6
BYLAYER
100
AcDbLine
 10
13.3642379661141177
 20
16.073741973018457
 30
0.0
 11
13.401249525436171
 21
16.1559210739098944
 31
0.0
  0
LINE
  5
175
100
AcDbEntity
  8
0
 62
256
370
-1
 48
1.0
  6
BYLAYER
100
AcDbLine
 10
13.414502930015459
 20
16.0476446993912418
 30
0.0
 11
13.3642379661141177
 21
16.073741973018457
 31
0.0
  0
LINE
  5
176
100
AcDbEntity
  8
0
 62
256
370
-1
 48
1.0
  6
BYLAYER
100
AcDbLine
 10
13.4970563397203591
 20
16.0006737834006572
 30
0.0
 11
13.414502930015459
 21
16.0476446993912418
 31
0.0
  0
LINE
  5
177
100
AcDbEntity
  8
0
 62
256
370
-1
 48
1.0
  6
BYLAYER
100
AcDbLine
 10
13.5777051379263156
 20
15.9534308560708951
 30
0.0
 11
13.4970563397203591
 21
16.0006737834006572
 31
0.0
  0
LINE
  5
178
100
AcDbEntity
  8
0
 62
256
370
-1
 48
1.0
  6
BYLAYER
100
AcDbLine
 10
13.6270905715142732
 20
15.9226646199906554
 30
0.0
 11
13.5777051379263156
 21
15.9534308560708951
 31
0.0
  0
LINE
  5
179
100
AcDbEntity
  8
0
 62
256
370
-1
 48
1.0
  6
BYLAYER
100
AcDbLine
 10
13.6794078536166381
 20
15.9953263968250781
 30
0.0
 11
13.6270905715142732
 21
15.9226646199906554
 31
0.0
  0
LINE
  5
17A
100
AcDbEntity
  8
0
 62
256
370
-1
 48
1.0
  6
BYLAYER
100
AcDbLine
 10
13.7255157485156047
 20
16.0663784739738844
 30
0.0
 11
13.6794078536166381
 21
15.9953263968250781
 31
0.0
  0
LINE
  5
17B
100
AcDbEntity
  8
0
 62
256
370
-1
 48
1.0
  6
BYLAYER
100
AcDbLine
 10
13.8356379178896418
 20
16.1869848592793915
 30
0.0
 11
13.7255157485156047
 21
16.0663784739738844
 31
0.0
  0
LINE
  5
17C
100
AcDbEntity
  8
0
 62
256
370
-1
 48
1.0
  6
BYLAYER
100
AcDbLine
 10
13.9593119363583043
 20
16.2987478242304746
 30
0.0
 11
13.8356379178896418
 21
16.1869848592793915
 31
0.0
  0
LINE
  5
17D
100
AcDbEntity
  8
0
 62
256
370
-1
 48
1.0
  6
BYLAYER
100
AcDbLine
 10
14.0428329003108558
 20
16.365503266463179
 30
0.0
 11
13.9593119363583043
 21
16.2987478242304746
 31
0.0
  0
LINE
  5
17E
100
AcDbEntity
  8
0
 62
256
370
-1
 48
1.0
  6
BYLAYER
100
AcDbLine
 10
14.1360167928750684
 20
16.4338025728062576
 30
0.0
 11
14.0428329003108558
 21
16.365503266463179
 31
0.0
  0
LINE
  5
17F
100
AcDbEntity
  8
0
 62
256
370
-1
 48
1.0
  6
BYLAYER
100
AcDbLine
 10
14.2420620851279551
 20
16.5049343995251547
 30
0.0
 11
14.1360167928750684
 21
16.4338025728062576
 31
0.0
  0
LINE
  5
180
100
AcDbEntity
  8
0
 62
256
370
-1
 48
1.0
  6
BYLAYER
100
AcDbLine
 10
14.3614195391896118
 20
16.5779413012361942
 30
0.0
 11
14.2420620851279551
 21
16.5049343995251547
 31
0.0
  0
LINE
  5
181
100
AcDbEntity
  8
0
 62
256
370
-1
 48
1.0
  6
BYLAYER
100
AcDbLine
 10
14.497115949019971
 20
16.6532689987719777
 30
0.0
 11
14.3614195391896118
 21
16.5779413012361942
 31
0.0
  0
LINE
  5
182
100
AcDbEntity
  8
0
 62
256
370
-1
 48
1.0
  6
BYLAYER
100
AcDbLine
 10
14.6434338445765917
 20
16.7266320825002595
 30
0.0
 11
14.497115949019971
 21
16.6532689987719777
 31
0.0
  0
LINE
  5
183
100
AcDbEntity
  8
0
 62
256
370
-1
 48
1.0
  6
BYLAYER
100
AcDbLine
 10
14.8051229941391966
 20
16.7994340922055585
 30
0.0
 11
14.6434338445765917
 21
16.7266320825002595
 31
0.0
  0
LINE
  5
184
100
AcDbEntity
  8
0
 62
256
370
-1
 48
1.0
  6
BYLAYER
100
AcDbLine
 10
14.9809411648198534
 20
16.8699120128495679
 30
0.0
 11
14.8051229941391966
 21
16.7994340922055585
 31
0.0
  0
LINE
  5
185
100
AcDbEntity
  8
0
 62
256
370
-1
 48
1.0
  6
BYLAYER
100
AcDbLine
 10
15.1711768101932876
 20
16.9370788661093457
 30
0.0
 11
14.9809411648198534
 21
16.8699120128495679
 31
0.0
  0
LINE
  5
186
100
AcDbEntity
  8
0
 62
256
370
-1
 48
1.0
  6
BYLAYER
100
AcDbLine
 10
15.5868403335545764
 20
17.0656168259135939
 30
0.0
 11
15.1711768101932876
 21
16.9370788661093457
 31
0.0
  0
LINE
  5
187
100
AcDbEntity
  8
0
 62
256
370
-1
 48
1.0
  6
BYLAYER
100
AcDbLine
 10
16.039367442716312
 20
16.6737045254774898
 30
0.0
 11
15.5868403335545764
 21
17.0656168259135939
 31
0.0
  0
LINE
  5
188
100
AcDbEntity
  8
0
 62
256
370
-1
 48
1.0
  6
BYLAYER
100
AcDbLine
 10
16.4764346559174584
 20
16.264622421738693
 30
0.0
 11
16.039367442716312
 21
16.6737045254774898
 31
0.0
  0
LINE
  5
189
100
AcDbEntity
  8
0
 62
256
370
-1
 48
1.0
  6
BYLAYER
100
AcDbLine
 10
16.3920496165519154
 20
15.8378001722605859
 30
0.0
 11
16.4764346559174584
 21
16.264622421738693
 31
0.0
  0
LINE
  5
18A
100
AcDbEntity
  8
0
 62
256
370
-1
 48
1.0
  6
BYLAYER
100
AcDbLine
 10
16.3451357881774584
 20
15.6415857913176524
 30
0.0
 11
16.3920496165519154
 21
15.8378001722605859
 31
0.0
  0
LINE
  5
18B
100
AcDbEntity
  8
0
 62
256
370
-1
 48
1.0
  6
BYLAYER
100
AcDbLine
 10
16.2934219747121602
 20
15.4593637418303729
 30
0.0
 11
16.3451357881774584
 21
15.6415857913176524
 31
0.0
  0
LINE
  5
18C
100
AcDbEntity
  8
0
 62
256
370
-1
 48
1.0
  6
BYLAYER
100
AcDbLine
 10
16.237919888192323
 20
15.2909505326673525
 30
0.0
 11
16.2934219747121602
 21
15.4593637418303729
 31
0.0
  0
LINE
  5
18D
100
AcDbEntity
  8
0
 62
256
370
-1
 48
1.0
  6
BYLAYER
100
AcDbLine
 10
16.1802531133707674
 20
15.1377654522284502
 30
0.0
 11
16.237919888192323
 21
15.2909505326673525
 31
0.0
  0
LINE
  5
18E
100
AcDbEntity
  8
0
 62
256
370
-1
 48
1.0
  6
BYLAYER
100
AcDbLine
 10
16.1195220171010192
 20
14.9949383738144775
 30
0.0
 11
16.1802531133707674
 21
15.1377654522284502
 31
0.0
  0
LINE
  5
18F
100
AcDbEntity
  8
0
 62
256
370
-1
 48
1.0
  6
BYLAYER
100
AcDbLine
 10
16.0593913514854307
 20
14.8686036945069873
 30
0.0
 11
16.1195220171010192
 21
14.9949383738144775
 31
0.0
  0
LINE
  5
190
100
AcDbEntity
  8
0
 62
256
370
-1
 48
1.0
  6
BYLAYER
100
AcDbLine
 10
15.9997340322691173
 20
14.7557041711515922
 30
0.0
 11
16.0593913514854307
 21
14.8686036945069873
 31
0.0
  0
LINE
  5
191
100
AcDbEntity
  8
0
 62
256
370
-1
 48
1.0
  6
BYLAYER
100
AcDbLine
 10
15.9415493853719568
 20
14.6558916497660903
 30
0.0
 11
15.9997340322691173
 21
14.7557041711515922
 31
0.0
  0
LINE
  5
192
100
AcDbEntity
  8
0
 62
256
370
-1
 48
1.0
  6
BYLAYER
100
AcDbLine
 10
15.8838898981109082
 20
14.5658501769567579
 30
0.0
 11
15.9415493853719568
 21
14.6558916497660903
 31
0.0
  0
LINE
  5
193
100
AcDbEntity
  8
0
 62
256
370
-1
 48
1.0
  6
BYLAYER
100
AcDbLine
 10
15.7856665395370044
 20
14.4311711825913562
 30
0.0
 11
15.8838898981109082
 21
14.5658501769567579
 31
0.0
  0
LINE
  5
194
100
AcDbEntity
  8
0
 62
256
370
-1
 48
1.0
  6
BYLAYER
100
AcDbLine
 10
15.6772317204026308
 20
14.3090454472693409
 30
0.0
 11
15.7856665395370044
 21
14.4311711825913562
 31
0.0
  0
LINE
  5
195
100
AcDbEntity
  8
0
 62
256
370
-1
 48
1.0
  6
BYLAYER
100
AcDbLine
 10
15.6113883993809281
 20
14.2557631787641412
 30
0.0
 11
15.6772317204026308
 21
14.3090454472693409
 31
0.0
  0
LINE
  5
196
100
AcDbEntity
  8
0
 62
256
370
-1
 48
1.0
  6
BYLAYER
100
AcDbLine
 10
15.5441514081539509
 20
14.1957427690111899
 30
0.0
 11
15.6113883993809281
 21
14.2557631787641412
 31
0.0
  0
LINE
  5
197
100
AcDbEntity
  8
0
 62
256
370
-1
 48
1.0
  6
BYLAYER
100
AcDbLine
 10
15.5794560898477528
 20
14.151457046677649
 30
0.0
 11
15.5441514081539509
 21
14.1957427690111899
 31
0.0
  0
LINE
  5
198
100
AcDbEntity
  8
0
 62
256
370
-1
 48
1.0
  6
BYLAYER
100
AcDbLine
 10
15.6357675544881829
 20
14.0749694638500955
 30
0.0
 11
15.5794560898477528
 21
14.151457046677649
 31
0.0
  0
LINE
  5
199
100
AcDbEntity
  8
0
 62
256
370
-1
 48
1.0
  6
BYLAYER
100
AcDbLine
 10
15.690228431635731
 20
13.9990081222334766
 30
0.0
 11
15.6357675544881829
 21
14.0749694638500955
 31
0.0
  0
LINE
  5
19A
100
AcDbEntity
  8
0
 62
256
370
-1
 48
1.0
  6
BYLAYER
100
AcDbLine
 10
15.7228304779425372
 20
13.9508149488651725
 30
0.0
 11
15.690228431635731
 21
13.9990081222334766
 31
0.0
  0
LINE
  5
19B
100
AcDbEntity
  8
0
 62
256
370
-1
 48
1.0
  6
BYLAYER
100
AcDbLine
 10
15.8001787951647685
 20
13.9959152842757817
 30
0.0
 11
15.7228304779425372
 21
13.9508149488651725
 31
0.0
  0
LINE
  5
19C
100
AcDbEntity
  8
0
 62
256
370
-1
 48
1.0
  6
BYLAYER
100
AcDbLine
 10
15.871199677195122
 20
14.0420708172055697
 30
0.0
 11
15.8001787951647685
 21
13.9959152842757817
 31
0.0
  0
LINE
  5
19D
100
AcDbEntity
  8
0
 62
256
370
-1
 48
1.0
  6
BYLAYER
100
AcDbLine
 10
16.0208567218728604
 20
14.1074596930286589
 30
0.0
 11
15.871199677195122
 21
14.0420708172055697
 31
0.0
  0
LINE
  5
19E
100
AcDbEntity
  8
0
 62
256
370
-1
 48
1.0
  6
BYLAYER
100
AcDbLine
 10
16.1792965601406422
 20
14.1592574534652726
 30
0.0
 11
16.0208567218728604
 21
14.1074596930286589
 31
0.0
  0
LINE
  5
19F
100
AcDbEntity
  8
0
 62
256
370
-1
 48
1.0
  6
BYLAYER
100
AcDbLine
 10
16.2827488389318944
 20
14.1862706700582635
 30
0.0
 11
16.1792965601406422
 21
14.1592574534652726
 31
0.0
  0
LINE
  5
1A0
100
AcDbEntity
  8
0
 62
256
370
-1
 48
1.0
  6
BYLAYER
100
AcDbLine
 10
16.3956564611620763
 20
14.2107637482860696
 30
0.0
 11
16.2827488389318944
 21
14.1862706700582635
 31
0.0
  0
LINE
  5
1A1
100
AcDbEntity
  8
0
 62
256
370
-1
 48
1.0
  6
BYLAYER
100
AcDbLine
 10
16.5214652900009895
 20
14.2326134195348573
 30
0.0
 11
16.3956564611620763
 21
14.2107637482860696
 31
0.0
  0
LINE
  5
1A2
100
AcDbEntity
  8
0
 62
256
370
-1
 48
1.0
  6
BYLAYER
100
AcDbLine
 10
16.6601982830710398
 20
14.2507615069016538
 30
0.0
 11
16.5214652900009895
 21
14.2326134195348573
 31
0.0
  0
LINE
  5
1A3
100
AcDbEntity
  8
0
 62
256
370
-1
 48
1.0
  6
BYLAYER
100
AcDbLine
 10
16.8148019759062493
 20
14.2643841731132852
 30
0.0
 11
16.6601982830710398
 21
14.2507615069016538
 31
0.0
  0
LINE
  5
1A4
100
AcDbEntity
  8
0
 62
256
370
-1
 48
1.0
  6
BYLAYER
100
AcDbLine
 10
16.9783094402679211
 20
14.2718916677482639
 30
0.0
 11
16.8148019759062493
 21
14.2643841731132852
 31
0.0
  0
LINE
  5
1A5
100
AcDbEntity
  8
0
 62
256
370
-1
 48
1.0
  6
BYLAYER
100
AcDbLine
 10
17.1556308743665937
 20
14.2726348083944572
 30
0.0
 11
16.9783094402679211
 21
14.2718916677482639
 31
0.0
  0
LINE
  5
1A6
100
AcDbEntity
  8
0
 62
256
370
-1
 48
1.0
  6
BYLAYER
100
AcDbLine
 10
17.3449148479407853
 20
14.2655078888633966
 30
0.0
 11
17.1556308743665937
 21
14.2726348083944572
 31
0.0
  0
LINE
  5
1A7
100
AcDbEntity
  8
0
 62
256
370
-1
 48
1.0
  6
BYLAYER
100
AcDbLine
 10
17.5460228711893365
 20
14.2494920304891934
 30
0.0
 11
17.3449148479407853
 21
14.2655078888633966
 31
0.0
  0
LINE
  5
1A8
100
AcDbEntity
  8
0
 62
256
370
-1
 48
1.0
  6
BYLAYER
100
AcDbLine
 10
17.9780314062842166
 20
14.1978518421804552
 30
0.0
 11
17.5460228711893365
 21
14.2494920304891934
 31
0.0
  0
LINE
  5
1A9
100
AcDbEntity
  8
0
 62
256
370
-1
 48
1.0
  6
BYLAYER
100
AcDbLine
 10
18.2320305564520311
 20
13.6557627422654946
 30
0.0
 11
17.9780314062842166
 21
14.1978518421804552
 31
0.0
  0
LINE
  5
1AA
100
AcDbEntity
  8
0
 62
256
370
-1
 48
1.0
  6
BYLAYER
100
AcDbLine
 10
18.464922674014062
 20
13.1042762596036937
 30
0.0
 11
18.2320305564520311
 21
13.6557627422654946
 31
0.0
  0
LINE
  5
1AB
100
AcDbEntity
  8
0
 62
256
370
-1
 48
1.0
  6
BYLAYER
100
AcDbLine
 10
18.2142287253990105
 20
12.7486771619623482
 30
0.0
 11
18.464922674014062
 21
13.1042762596036937
 31
0.0
  0
LINE
  5
1AC
100
AcDbEntity
  8
0
 62
256
370
-1
 48
1.0
  6
BYLAYER
100
AcDbLine
 10
18.0915632624251259
 20
12.588508069425643
 30
0.0
 11
18.2142287253990105
 21
12.7486771619623482
 31
0.0
  0
LINE
  5
1AD
100
AcDbEntity
  8
0
 62
256
370
-1
 48
1.0
  6
BYLAYER
100
AcDbLine
 10
17.9702040547149267
 20
12.4430739464263524
 30
0.0
 11
18.0915632624251259
 21
12.588508069425643
 31
0.0
  0
LINE
  5
1AE
100
AcDbEntity
  8
0
 62
256
370
-1
 48
1.0
  6
BYLAYER
100
AcDbLine
 10
17.8510005108203842
 20
12.3117954472331803
 30
0.0
 11
17.9702040547149267
 21
12.4430739464263524
 31
0.0
  0
LINE
  5
1AF
100
AcDbEntity
  8
0
 62
256
370
-1
 48
1.0
  6
BYLAYER
100
AcDbLine
 10
17.7360133550020862
 20
12.1953092478785834
 30
0.0
 11
17.8510005108203842
 21
12.3117954472331803
 31
0.0
  0
LINE
  5
1B0
100
AcDbEntity
  8
0
 62
256
370
-1
 48
1.0
  6
BYLAYER
100
AcDbLine
 10
17.6224397384128508
 20
12.0895316266925761
 30
0.0
 11
17.7360133550020862
 21
12.1953092478785834
 31
0.0
  0
LINE
  5
1B1
100
AcDbEntity
  8
0
 62
256
370
-1
 48
1.0
  6
BYLAYER
100
AcDbLine
 10
17.5161224686172687
 20
11.998576435495977
 30
0.0
 11
17.6224397384128508
 21
12.0895316266925761
 31
0.0
  0
LINE
  5
1B2
100
AcDbEntity
  8
0
 62
256
370
-1
 48
1.0
  6
BYLAYER
100
AcDbLine
 10
17.4157026658370029
 20
11.9197025969340871
 30
0.0
 11
17.5161224686172687
 21
11.998576435495977
 31
0.0
  0
LINE
  5
1B3
100
AcDbEntity
  8
0
 62
256
370
-1
 48
1.0
  6
BYLAYER
100
AcDbLine
 10
17.3219508688448229
 20
11.8521850931436461
 30
0.0
 11
17.4157026658370029
 21
11.9197025969340871
 31
0.0
  0
LINE
  5
1B4
100
AcDbEntity
  8
0
 62
256
370
-1
 48
1.0
  6
BYLAYER
100
AcDbLine
 10
17.2326531056106091
 20
11.793380291421272
 30
0.0
 11
17.3219508688448229
 21
11.8521850931436461
 31
0.0
  0
LINE
  5
1B5
100
AcDbEntity
  8
0
 62
256
370
-1
 48
1.0
  6
BYLAYER
100
AcDbLine
 10
17.0881428429090931
 20
11.7102961038810918
 30
0.0
 11
17.2326531056106091
 21
11.793380291421272
 31
0.0
  0
LINE
  5
1B6
100
AcDbEntity
  8
0
 62
256
370
-1
 48
1.0
  6
BYLAYER
100
AcDbLine
 10
16.9394094716414401
 20
11.6428328202228499
 30
0.0
 11
17.0881428429090931
 21
11.7102961038810918
 31
0.0
  0
LINE
  5
1B7
100
AcDbEntity
  8
0
 62
256
370
-1
 48
1.0
  6
BYLAYER
100
AcDbLine
 10
16.8575867842020273
 20
11.620938077780977
 30
0.0
 11
16.9394094716414401
 21
11.6428328202228499
 31
0.0
  0
LINE
  5
1B8
100
AcDbEntity
  8
0
 62
256
370
-1
 48
1.0
  6
BYLAYER
100
AcDbLine
 10
16.7717503577662086
 20
11.5934544148905729
 30
0.0
 11
16.8575867842020273
 21
11.620938077780977
 31
0.0
  0
LINE
  5
1B9
100
AcDbEntity
  8
0
 62
256
370
-1
 48
1.0
  6
BYLAYER
100
AcDbLine
 10
16.7859901233426285
 20
11.5386377365718431
 30
0.0
 11
16.7717503577662086
 21
11.5934544148905729
 31
0.0
  0
LINE
  5
1BA
100
AcDbEntity
  8
0
 62
256
370
-1
 48
1.0
  6
BYLAYER
100
AcDbLine
 10
16.8063228890183041
 20
11.4458589594399882
 30
0.0
 11
16.7859901233426285
 21
11.5386377365718431
 31
0.0
  0
LINE
  5
1BB
100
AcDbEntity
  8
0
 62
256
370
-1
 48
1.0
  6
BYLAYER
100
AcDbLine
 10
16.8251791285934473
 20
11.3543136882295812
 30
0.0
 11
16.8063228890183041
 21
11.4458589594399882
 31
0.0
  0
LINE
  5
1BC
100
AcDbEntity
  8
0
 62
256
370
-1
 48
1.0
  6
BYLAYER
100
AcDbLine
 10
16.8353606835095917
 20
11.2970264361921409
 30
0.0
 11
16.8251791285934473
 21
11.3543136882295812
 31
0.0
  0
LINE
  5
1BD
100
AcDbEntity
  8
0
 62
256
370
-1
 48
1.0
  6
BYLAYER
100
AcDbLine
 10
16.9243658612282104
 20
11.3067673175431764
 30
0.0
 11
16.8353606835095917
 21
11.2970264361921409
 31
0.0
  0
LINE
  5
1BE
100
AcDbEntity
  8
0
 62
256
370
-1
 48
1.0
  6
BYLAYER
100
AcDbLine
 10
17.0080199683192319
 20
11.3200456698204448
 30
0.0
 11
16.9243658612282104
 21
11.3067673175431764
 31
0.0
  0
LINE
  5
1BF
100
AcDbEntity
  8
0
 62
256
370
-1
 48
1.0
  6
BYLAYER
100
AcDbLine
 10
17.1713344054413852
 20
11.3189103687508918
 30
0.0
 11
17.0080199683192319
 21
11.3200456698204448
 31
0.0
  0
LINE
  5
1C0
100
AcDbEntity
  8
0
 62
256
370
-1
 48
1.0
  6
BYLAYER
100
AcDbLine
 10
17.337144550193571
 20
11.3017867002778871
 30
0.0
 11
17.1713344054413852
 21
11.3189103687508918
 31
0.0
  0
LINE
  5
1C1
100
AcDbEntity
  8
0
 62
256
370
-1
 48
1.0
  6
BYLAYER
100
AcDbLine
 10
17.4426402933353302
 20
11.2843865358862558
 30
0.0
 11
17.337144550193571
 21
11.3017867002778871
 31
0.0
  0
LINE
  5
1C2
100
AcDbEntity
  8
0
 62
256
370
-1
 48
1.0
  6
BYLAYER
100
AcDbLine
 10
17.5557485190672793
 20
11.2608384694926826
 30
0.0
 11
17.4426402933353302
 21
11.2843865358862558
 31
0.0
  0
LINE
  5
1C3
100
AcDbEntity
  8
0
 62
256
370
-1
 48
1.0
  6
BYLAYER
100
AcDbLine
 10
17.6795675393201037
 20
11.229628067823171
 30
0.0
 11
17.5557485190672793
 21
11.2608384694926826
 31
0.0
  0
LINE
  5
1C4
100
AcDbEntity
  8
0
 62
256
370
-1
 48
1.0
  6
BYLAYER
100
AcDbLine
 10
17.8136879985716945
 20
11.1897794213800807
 30
0.0
 11
17.6795675393201037
 21
11.229628067823171
 31
0.0
  0
LINE
  5
1C5
100
AcDbEntity
  8
0
 62
256
370
-1
 48
1.0
  6
BYLAYER
100
AcDbLine
 10
17.9604662154742982
 20
11.13934136298559
 30
0.0
 11
17.8136879985716945
 21
11.1897794213800807
 31
0.0
  0
LINE
  5
1C6
100
AcDbEntity
  8
0
 62
256
370
-1
 48
1.0
  6
BYLAYER
100
AcDbLine
 10
18.1128914971702386
 20
11.0796953429945688
 30
0.0
 11
17.9604662154742982
 21
11.13934136298559
 31
0.0
  0
LINE
  5
1C7
100
AcDbEntity
  8
0
 62
256
370
-1
 48
1.0
  6
BYLAYER
100
AcDbLine
 10
18.2751849538004478
 20
11.0082510075220625
 30
0.0
 11
18.1128914971702386
 21
11.0796953429945688
 31
0.0
  0
LINE
  5
1C8
100
AcDbEntity
  8
0
 62
256
370
-1
 48
1.0
  6
BYLAYER
100
AcDbLine
 10
18.4452054935603087
 20
10.9247516699577432
 30
0.0
 11
18.2751849538004478
 21
11.0082510075220625
 31
0.0
  0
LINE
  5
1C9
100
AcDbEntity
  8
0
 62
256
370
-1
 48
1.0
  6
BYLAYER
100
AcDbLine
 10
18.6224127411807387
 20
10.8283224228682684
 30
0.0
 11
18.4452054935603087
 21
10.9247516699577432
 31
0.0
  0
LINE
  5
1CA
100
AcDbEntity
  8
0
 62
256
370
-1
 48
1.0
  6
BYLAYER
100
AcDbLine
 10
18.9960682225591029
 20
10.6054328507016749
 30
0.0
 11
18.6224127411807387
 21
10.8283224228682684
 31
0.0
  0
LINE
  5
1CB
100
AcDbEntity
  8
0
 62
256
370
-1
 48
1.0
  6
BYLAYER
100
AcDbLine
 10
19.0076205404866982
 20
10.0068992040329476
 30
0.0
 11
18.9960682225591029
 21
10.6054328507016749
 31
0.0
  0
LINE
  5
1CC
100
AcDbEntity
  8
0
 62
256
370
-1
 48
1.0
  6
BYLAYER
100
AcDbLine
 10
18.9960683119377478
 20
9.4083654700949637
 30
0.0
 11
19.0076205404866982
 21
10.0068992040329476
 31
0.0
  0
LINE
  5
1CD
100
AcDbEntity
  8
0
 62
256
370
-1
 48
1.0
  6
BYLAYER
100
AcDbLine
 10
18.6224127124058896
 20
9.1854758978924451
 30
0.0
 11
18.9960683119377478
 21
9.4083654700949637
 31
0.0
  0
LINE
  5
1CE
100
AcDbEntity
  8
0
 62
256
370
-1
 48
1.0
  6
BYLAYER
100
AcDbLine
 10
18.4452054935602234
 20
9.0890466664612859
 30
0.0
 11
18.6224127124058896
 21
9.1854758978924451
 31
0.0
  0
LINE
  5
1CF
100
AcDbEntity
  8
0
 62
256
370
-1
 48
1.0
  6
BYLAYER
100
AcDbLine
 10
18.2751849538005757
 20
9.0055473288971939
 30
0.0
 11
18.4452054935602234
 21
9.0890466664612859
 31
0.0
  0
LINE
  5
1D0
100
AcDbEntity
  8
0
 62
256
370
-1
 48
1.0
  6
BYLAYER
100
AcDbLine
 10
18.1128914971700539
 20
8.9341029934242897
 30
0.0
 11
18.2751849538005757
 21
9.0055473288971939
 31
0.0
  0
LINE
  5
1D1
100
AcDbEntity
  8
0
 62
256
370
-1
 48
1.0
  6
BYLAYER
100
AcDbLine
 10
17.9604662154743409
 20
8.8744569734335528
 30
0.0
 11
18.1128914971700539
 21
8.9341029934242897
 31
0.0
  0
LINE
  5
1D2
100
AcDbEntity
  8
0
 62
256
370
-1
 48
1.0
  6
BYLAYER
100
AcDbLine
 10
17.813687998572064
 20
8.8240189150387778
 30
0.0
 11
17.9604662154743409
 21
8.8744569734335528
 31
0.0
  0
LINE
  5
1D3
100
AcDbEntity
  8
0
 62
256
370
-1
 48
1.0
  6
BYLAYER
100
AcDbLine
 10
17.6795675393201037
 20
8.7841702685956875
 30
0.0
 11
17.813687998572064
 21
8.8240189150387778
 31
0.0
  0
LINE
  5
1D4
100
AcDbEntity
  8
0
 62
256
370
-1
 48
1.0
  6
BYLAYER
100
AcDbLine
 10
17.5557485190668672
 20
8.7529598669261759
 30
0.0
 11
17.6795675393201037
 21
8.7841702685956875
 31
0.0
  0
LINE
  5
1D5
100
AcDbEntity
  8
0
 62
256
370
-1
 48
1.0
  6
BYLAYER
100
AcDbLine
 10
17.4426402933351596
 20
8.7294118005326595
 30
0.0
 11
17.5557485190668672
 21
8.7529598669261759
 31
0.0
  0
LINE
  5
1D6
100
AcDbEntity
  8
0
 62
256
370
-1
 48
1.0
  6
BYLAYER
100
AcDbLine
 10
17.3371445501937984
 20
8.7120116361411419
 30
0.0
 11
17.4426402933351596
 21
8.7294118005326595
 31
0.0
  0
LINE
  5
1D7
100
AcDbEntity
  8
0
 62
256
370
-1
 48
1.0
  6
BYLAYER
100
AcDbLine
 10
17.1713344054413852
 20
8.6948879676680804
 30
0.0
 11
17.3371445501937984
 21
8.7120116361411419
 31
0.0
  0
LINE
  5
1D8
100
AcDbEntity
  8
0
 62
256
370
-1
 48
1.0
  6
BYLAYER
100
AcDbLine
 10
17.0080199683196014
 20
8.6937526665985843
 30
0.0
 11
17.1713344054413852
 21
8.6948879676680804
 31
0.0
  0
LINE
  5
1D9
100
AcDbEntity
  8
0
 62
256
370
-1
 48
1.0
  6
BYLAYER
100
AcDbLine
 10
16.9243658612283525
 20
8.7070310188754547
 30
0.0
 11
17.0080199683196014
 21
8.6937526665985843
 31
0.0
  0
LINE
  5
1DA
100
AcDbEntity
  8
0
 62
256
370
-1
 48
1.0
  6
BYLAYER
100
AcDbLine
 10
16.8347717288987724
 20
8.7168363564431957
 30
0.0
 11
16.9243658612283525
 21
8.7070310188754547
 31
0.0
  0
LINE
  5
1DB
100
AcDbEntity
  8
0
 62
256
370
-1
 48
1.0
  6
BYLAYER
100
AcDbLine
 10
16.8254844464520801
 20
8.6609669377021419
 30
0.0
 11
16.8347717288987724
 21
8.7168363564431957
 31
0.0
  0
LINE
  5
1DC
100
AcDbEntity
  8
0
 62
256
370
-1
 48
1.0
  6
BYLAYER
100
AcDbLine
 10
16.8063228890183041
 20
8.5679393769787566
 30
0.0
 11
16.8254844464520801
 21
8.6609669377021419
 31
0.0
  0
LINE
  5
1DD
100
AcDbEntity
  8
0
 62
256
370
-1
 48
1.0
  6
BYLAYER
100
AcDbLine
 10
16.7863140956880272
 20
8.4766388915125503
 30
0.0
 11
16.8063228890183041
 21
8.5679393769787566
 31
0.0
  0
LINE
  5
1DE
100
AcDbEntity
  8
0
 62
256
370
-1
 48
1.0
  6
BYLAYER
100
AcDbLine
 10
16.772314597886762
 20
8.4201632594725879
 30
0.0
 11
16.7863140956880272
 21
8.4766388915125503
 31
0.0
  0
LINE
  5
1DF
100
AcDbEntity
  8
0
 62
256
370
-1
 48
1.0
  6
BYLAYER
100
AcDbLine
 10
16.8575867842021694
 20
8.3928602586382794
 30
0.0
 11
16.772314597886762
 21
8.4201632594725879
 31
0.0
  0
LINE
  5
1E0
100
AcDbEntity
  8
0
 62
256
370
-1
 48
1.0
  6
BYLAYER
100
AcDbLine
 10
16.9394094716417669
 20
8.3709655161961791
 30
0.0
 11
16.8575867842021694
 21
8.3928602586382794
 31
0.0
  0
LINE
  5
1E1
100
AcDbEntity
  8
0
 62
256
370
-1
 48
1.0
  6
BYLAYER
100
AcDbLine
 10
17.0881428429090931
 20
8.3035022325378804
 30
0.0
 11
16.9394094716417669
 21
8.3709655161961791
 31
0.0
  0
LINE
  5
1E2
100
AcDbEntity
  8
0
 62
256
370
-1
 48
1.0
  6
BYLAYER
100
AcDbLine
 10
17.2326531056106091
 20
8.2204180449976434
 30
0.0
 11
17.0881428429090931
 21
8.3035022325378804
 31
0.0
  0
LINE
  5
1E3
100
AcDbEntity
  8
0
 62
256
370
-1
 48
1.0
  6
BYLAYER
100
AcDbLine
 10
17.321950868844965
 20
8.1616132432750419
 30
0.0
 11
17.2326531056106091
 21
8.2204180449976434
 31
0.0
  0
LINE
  5
1E4
100
AcDbEntity
  8
0
 62
256
370
-1
 48
1.0
  6
BYLAYER
100
AcDbLine
 10
17.4157026658370455
 20
8.0940957394845441
 30
0.0
 11
17.321950868844965
 21
8.1616132432750419
 31
0.0
  0
LINE
  5
1E5
100
AcDbEntity
  8
0
 62
256
370
-1
 48
1.0
  6
BYLAYER
100
AcDbLine
 10
17.5161224686171408
 20
8.0152219009231658
 30
0.0
 11
17.4157026658370455
 21
8.0940957394845441
 31
0.0
  0
LINE
  5
1E6
100
AcDbEntity
  8
0
 62
256
370
-1
 48
1.0
  6
BYLAYER
100
AcDbLine
 10
17.6224397384127656
 20
7.9242667097263961
 30
0.0
 11
17.5161224686171408
 21
8.0152219009231658
 31
0.0
  0
LINE
  5
1E7
100
AcDbEntity
  8
0
 62
256
370
-1
 48
1.0
  6
BYLAYER
100
AcDbLine
 10
17.7360133550020009
 20
7.8184890885403888
 30
0.0
 11
17.6224397384127656
 21
7.9242667097263961
 31
0.0
  0
LINE
  5
1E8
100
AcDbEntity
  8
0
 62
256
370
-1
 48
1.0
  6
BYLAYER
100
AcDbLine
 10
17.8510005108205263
 20
7.7020028891859624
 30
0.0
 11
17.7360133550020009
 21
7.8184890885403888
 31
0.0
  0
LINE
  5
1E9
100
AcDbEntity
  8
0
 62
256
370
-1
 48
1.0
  6
BYLAYER
100
AcDbLine
 10
17.9702040547149267
 20
7.5707243899923924
 30
0.0
 11
17.8510005108205263
 21
7.7020028891859624
 31
0.0
  0
LINE
  5
1EA
100
AcDbEntity
  8
0
 62
256
370
-1
 48
1.0
  6
BYLAYER
100
AcDbLine
 10
18.0915632624250406
 20
7.4252902669934429
 30
0.0
 11
17.9702040547149267
 21
7.5707243899923924
 31
0.0
  0
LINE
  5
1EB
100
AcDbEntity
  8
0
 62
256
370
-1
 48
1.0
  6
BYLAYER
100
AcDbLine
 10
18.2142287321506444
 20
7.2651211656409487
 30
0.0
 11
18.0915632624250406
 21
7.4252902669934429
 31
0.0
  0
LINE
  5
1EC
100
AcDbEntity
  8
0
 62
256
370
-1
 48
1.0
  6
BYLAYER
100
AcDbLine
 10
18.4649226400428006
 20
6.9095220901733683
 30
0.0
 11
18.2142287321506444
 21
7.2651211656409487
 31
0.0
  0
LINE
  5
1ED
100
AcDbEntity
  8
0
 62
256
370
-1
 48
1.0
  6
BYLAYER
100
AcDbLine
 10
18.2320305678267829
 20
6.3580356196421803
 30
0.0
 11
18.4649226400428006
 21
6.9095220901733683
 31
0.0
  0
LINE
  5
1EE
100
AcDbEntity
  8
0
 62
256
370
-1
 48
1.0
  6
BYLAYER
100
AcDbLine
 10
17.97803143125833
 20
5.8159464688916955
 30
0.0
 11
18.2320305678267829
 21
6.3580356196421803
 31
0.0
  0
LINE
  5
1EF
100
AcDbEntity
  8
0
 62
256
370
-1
 48
1.0
  6
BYLAYER
100
AcDbLine
 10
17.54602285567249
 20
5.7643063046940597
 30
0.0
 11
17.97803143125833
 21
5.8159464688916955
 31
0.0
  0
LINE
  5
1F0
100
AcDbEntity
  8
0
 62
256
370
-1
 48
1.0
  6
BYLAYER
100
AcDbLine
 10
17.3449148479407427
 20
5.7482904475553482
 30
0.0
 11
17.54602285567249
 21
5.7643063046940597
 31
0.0
  0
LINE
  5
1F1
100
AcDbEntity
  8
0
 62
256
370
-1
 48
1.0
  6
BYLAYER
100
AcDbLine
 10
17.1556308743666364
 20
5.7411635280243445
 30
0.0
 11
17.3449148479407427
 21
5.7482904475553482
 31
0.0
  0
LINE
  5
1F2
100
AcDbEntity
  8
0
 62
256
370
-1
 48
1.0
  6
BYLAYER
100
AcDbLine
 10
16.9783094402679211
 20
5.7419066686705946
 30
0.0
 11
17.1556308743666364
 21
5.7411635280243445
 31
0.0
  0
LINE
  5
1F3
100
AcDbEntity
  8
0
 62
256
370
-1
 48
1.0
  6
BYLAYER
100
AcDbLine
 10
16.8148019759062919
 20
5.749414163305687
 30
0.0
 11
16.9783094402679211
 21
5.7419066686705946
 31
0.0
  0
LINE
  5
1F4
100
AcDbEntity
  8
0
 62
256
370
-1
 48
1.0
  6
BYLAYER
100
AcDbLine
 10
16.6601982830708124
 20
5.7630368295170911
 30
0.0
 11
16.8148019759062919
 21
5.749414163305687
 31
0.0
  0
LINE
  5
1F5
100
AcDbEntity
  8
0
 62
256
370
-1
 48
1.0
  6
BYLAYER
100
AcDbLine
 10
16.52146529000062
 20
5.7811849168842855
 30
0.0
 11
16.6601982830708124
 21
5.7630368295170911
 31
0.0
  0
LINE
  5
1F6
100
AcDbEntity
  8
0
 62
256
370
-1
 48
1.0
  6
BYLAYER
100
AcDbLine
 10
16.3956564611623037
 20
5.8030345881330732
 30
0.0
 11
16.52146529000062
 21
5.7811849168842855
 31
0.0
  0
LINE
  5
1F7
100
AcDbEntity
  8
0
 62
256
370
-1
 48
1.0
  6
BYLAYER
100
AcDbLine
 10
16.2827488389323918
 20
5.8275276663606519
 30
0.0
 11
16.3956564611623037
 21
5.8030345881330732
 31
0.0
  0
LINE
  5
1F8
100
AcDbEntity
  8
0
 62
256
370
-1
 48
1.0
  6
BYLAYER
100
AcDbLine
 10
16.1792965601407275
 20
5.8545408829535859
 30
0.0
 11
16.2827488389323918
 21
5.8275276663606519
 31
0.0
  0
LINE
  5
1F9
100
AcDbEntity
  8
0
 62
256
370
-1
 48
1.0
  6
BYLAYER
100
AcDbLine
 10
16.0208567218726756
 20
5.9063386433902565
 30
0.0
 11
16.1792965601407275
 21
5.8545408829535859
 31
0.0
  0
LINE
  5
1FA
100
AcDbEntity
  8
0
 62
256
370
-1
 48
1.0
  6
BYLAYER
100
AcDbLine
 10
15.871199677195122
 20
5.9717275192133457
 30
0.0
 11
16.0208567218726756
 21
5.9063386433902565
 31
0.0
  0
LINE
  5
1FB
100
AcDbEntity
  8
0
 62
256
370
-1
 48
1.0
  6
BYLAYER
100
AcDbLine
 10
15.8001787951648964
 20
6.0178830521430768
 30
0.0
 11
15.871199677195122
 21
5.9717275192133457
 31
0.0
  0
LINE
  5
1FC
100
AcDbEntity
  8
0
 62
256
370
-1
 48
1.0
  6
BYLAYER
100
AcDbLine
 10
15.7223186632779175
 20
6.0632818169684697
 30
0.0
 11
15.8001787951648964
 21
6.0178830521430768
 31
0.0
  0
LINE
  5
1FD
100
AcDbEntity
  8
0
 62
256
370
-1
 48
1.0
  6
BYLAYER
100
AcDbLine
 10
15.6911102463481029
 20
6.0160201581768433
 30
0.0
 11
15.7223186632779175
 21
6.0632818169684697
 31
0.0
  0
LINE
  5
1FE
100
AcDbEntity
  8
0
 62
256
370
-1
 48
1.0
  6
BYLAYER
100
AcDbLine
 10
15.6357675544881829
 20
5.9388288725690472
 30
0.0
 11
15.6911102463481029
 21
6.0160201581768433
 31
0.0
  0
LINE
  5
1FF
100
AcDbEntity
  8
0
 62
256
370
-1
 48
1.0
  6
BYLAYER
100
AcDbLine
 10
15.580353376177996
 20
5.8635600693086758
 30
0.0
 11
15.6357675544881829
 21
5.9388288725690472
 31
0.0
  0
LINE
  5
200
100
AcDbEntity
  8
0
 62
256
370
-1
 48
1.0
  6
BYLAYER
100
AcDbLine
 10
15.5445934096199778
 20
5.817661006190292
 30
0.0
 11
15.580353376177996
 21
5.8635600693086758
 31
0.0
  0
LINE
  5
201
100
AcDbEntity
  8
0
 62
256
370
-1
 48
1.0
  6
BYLAYER
100
AcDbLine
 10
15.6113883993809281
 20
5.7580351576545468
 30
0.0
 11
15.5445934096199778
 21
5.817661006190292
 31
0.0
  0
LINE
  5
202
100
AcDbEntity
  8
0
 62
256
370
-1
 48
1.0
  6
BYLAYER
100
AcDbLine
 10
15.6772317204025313
 20
5.7047528891495745
 30
0.0
 11
15.6113883993809281
 21
5.7580351576545468
 31
0.0
  0
LINE
  5
203
100
AcDbEntity
  8
0
 62
256
370
-1
 48
1.0
  6
BYLAYER
100
AcDbLine
 10
15.7856665395369191
 20
5.5826271538277865
 30
0.0
 11
15.6772317204025313
 21
5.7047528891495745
 31
0.0
  0
LINE
  5
204
100
AcDbEntity
  8
0
 62
256
370
-1
 48
1.0
  6
BYLAYER
100
AcDbLine
 10
15.8838898981109082
 20
5.4479481594621575
 30
0.0
 11
15.7856665395369191
 21
5.5826271538277865
 31
0.0
  0
LINE
  5
205
100
AcDbEntity
  8
0
 62
256
370
-1
 48
1.0
  6
BYLAYER
100
AcDbLine
 10
15.9415493853719568
 20
5.3579066866528819
 30
0.0
 11
15.8838898981109082
 21
5.4479481594621575
 31
0.0
  0
LINE
  5
206
100
AcDbEntity
  8
0
 62
256
370
-1
 48
1.0
  6
BYLAYER
100
AcDbLine
 10
15.999734032269032
 20
5.2580941652675506
 30
0.0
 11
15.9415493853719568
 21
5.3579066866528819
 31
0.0
  0
LINE
  5
207
100
AcDbEntity
  8
0
 62
256
370
-1
 48
1.0
  6
BYLAYER
100
AcDbLine
 10
16.0593913514854307
 20
5.1451946419120418
 30
0.0
 11
15.999734032269032
 21
5.2580941652675506
 31
0.0
  0
LINE
  5
208
100
AcDbEntity
  8
0
 62
256
370
-1
 48
1.0
  6
BYLAYER
100
AcDbLine
 10
16.119522017101076
 20
5.0188599626043811
 30
0.0
 11
16.0593913514854307
 21
5.1451946419120418
 31
0.0
  0
LINE
  5
209
100
AcDbEntity
  8
0
 62
256
370
-1
 48
1.0
  6
BYLAYER
100
AcDbLine
 10
16.1802531133707674
 20
4.8760328841905789
 30
0.0
 11
16.119522017101076
 21
5.0188599626043811
 31
0.0
  0
LINE
  5
20A
100
AcDbEntity
  8
0
 62
256
370
-1
 48
1.0
  6
BYLAYER
100
AcDbLine
 10
16.2379198881922804
 20
4.7228478037514492
 30
0.0
 11
16.1802531133707674
 21
4.8760328841905789
 31
0.0
  0
LINE
  5
20B
100
AcDbEntity
  8
0
 62
256
370
-1
 48
1.0
  6
BYLAYER
100
AcDbLine
 10
16.2934219747121176
 20
4.5544345945887699
 30
0.0
 11
16.2379198881922804
 21
4.7228478037514492
 31
0.0
  0
LINE
  5
20C
100
AcDbEntity
  8
0
 62
256
370
-1
 48
1.0
  6
BYLAYER
100
AcDbLine
 10
16.3451357881774584
 20
4.3722125451014904
 30
0.0
 11
16.2934219747121176
 21
4.5544345945887699
 31
0.0
  0
LINE
  5
20D
100
AcDbEntity
  8
0
 62
256
370
-1
 48
1.0
  6
BYLAYER
100
AcDbLine
 10
16.3920496009923227
 20
4.1759982292356881
 30
0.0
 11
16.3451357881774584
 21
4.3722125451014904
 31
0.0
  0
LINE
  5
20E
100
AcDbEntity
  8
0
 62
256
370
-1
 48
1.0
  6
BYLAYER
100
AcDbLine
 10
16.4764347549471921
 20
3.7491760372756744
 30
0.0
 11
16.3920496009923227
 21
4.1759982292356881
 31
0.0
  0
LINE
  5
20F
100
AcDbEntity
  8
0
 62
256
370
-1
 48
1.0
  6
BYLAYER
100
AcDbLine
 10
16.0393674626229767
 20
3.3400938275200929
 30
0.0
 11
16.4764347549471921
 21
3.7491760372756744
 31
0.0
  0
LINE
  5
210
100
AcDbEntity
  8
0
 62
256
370
-1
 48
1.0
  6
BYLAYER
100
AcDbLine
 10
15.5868404186354468
 20
2.9481817268753616
 30
0.0
 11
16.0393674626229767
 21
3.3400938275200929
 31
0.0
  0
LINE
  5
211
100
AcDbEntity
  8
0
 62
256
370
-1
 48
1.0
  6
BYLAYER
100
AcDbLine
 10
15.1711769311618667
 20
3.0767194275992438
 30
0.0
 11
15.5868404186354468
 21
2.9481817268753616
 31
0.0
  0
LINE
  5
212
100
AcDbEntity
  8
0
 62
256
370
-1
 48
1.0
  6
BYLAYER
100
AcDbLine
 10
14.9809411648201234
 20
3.1438863235693475
 30
0.0
 11
15.1711769311618667
 21
3.0767194275992438
 31
0.0
  0
LINE
  5
213
100
AcDbEntity
  8
0
 62
256
370
-1
 48
1.0
  6
BYLAYER
100
AcDbLine
 10
14.8051229941391966
 20
3.2143642442132432
 30
0.0
 11
14.9809411648201234
 21
3.1438863235693475
 31
0.0
  0
LINE
  5
214
100
AcDbEntity
  8
0
 62
256
370
-1
 48
1.0
  6
BYLAYER
100
AcDbLine
 10
14.6434338445765917
 20
3.2871662539186559
 30
0.0
 11
14.8051229941391966
 21
3.2143642442132432
 31
0.0
  0
LINE
  5
215
100
AcDbEntity
  8
0
 62
256
370
-1
 48
1.0
  6
BYLAYER
100
AcDbLine
 10
14.4971159490199284
 20
3.3605293376469945
 30
0.0
 11
14.6434338445765917
 21
3.2871662539186559
 31
0.0
  0
LINE
  5
216
100
AcDbEntity
  8
0
 62
256
370
-1
 48
1.0
  6
BYLAYER
100
AcDbLine
 10
14.3614195391897397
 20
3.4358570351829485
 30
0.0
 11
14.4971159490199284
 21
3.3605293376469945
 31
0.0
  0
LINE
  5
217
100
AcDbEntity
  8
0
 62
256
370
-1
 48
1.0
  6
BYLAYER
100
AcDbLine
 10
14.2420620851279551
 20
3.5088639368935901
 30
0.0
 11
14.3614195391897397
 21
3.4358570351829485
 31
0.0
  0
LINE
  5
218
100
AcDbEntity
  8
0
 62
256
370
-1
 48
1.0
  6
BYLAYER
100
AcDbLine
 10
14.1360167928747558
 20
3.5799957636128852
 30
0.0
 11
14.2420620851279551
 21
3.5088639368935901
 31
0.0
  0
LINE
  5
219
100
AcDbEntity
  8
0
 62
256
370
-1
 48
1.0
  6
BYLAYER
100
AcDbLine
 10
14.0428329003110832
 20
3.6482950699557932
 30
0.0
 11
14.1360167928747558
 21
3.5799957636128852
 31
0.0
  0
LINE
  5
21A
100
AcDbEntity
  8
0
 62
256
370
-1
 48
1.0
  6
BYLAYER
100
AcDbLine
 10
13.9593119363586169
 20
3.7150505121881565
 30
0.0
 11
14.0428329003110832
 21
3.6482950699557932
 31
0.0
  0
LINE
  5
21B
100
AcDbEntity
  8
0
 62
256
370
-1
 48
1.0
  6
BYLAYER
100
AcDbLine
 10
13.8356379178894997
 20
3.8268134771396944
 30
0.0
 11
13.9593119363586169
 21
3.7150505121881565
 31
0.0
  0
LINE
  5
21C
100
AcDbEntity
  8
0
 62
256
370
-1
 48
1.0
  6
BYLAYER
100
AcDbLine
 10
13.7255157485155621
 20
3.9474198624452583
 30
0.0
 11
13.8356379178894997
 21
3.8268134771396944
 31
0.0
  0
LINE
  5
21D
100
AcDbEntity
  8
0
 62
256
370
-1
 48
1.0
  6
BYLAYER
100
AcDbLine
 10
13.679407853616695
 20
4.018471939593951
 30
0.0
 11
13.7255157485155621
 21
3.9474198624452583
 31
0.0
  0
LINE
  5
21E
100
AcDbEntity
  8
0
 62
256
370
-1
 48
1.0
  6
BYLAYER
100
AcDbLine
 10
13.6267443885679143
 20
4.091614518697952
 30
0.0
 11
13.679407853616695
 21
4.018471939593951
 31
0.0
  0
LINE
  5
21F
100
AcDbEntity
  8
0
 62
256
370
-1
 48
1.0
  6
BYLAYER
100
AcDbLine
 10
13.5790109758519293
 20
4.0611324217681499
 30
0.0
 11
13.6267443885679143
 21
4.091614518697952
 31
0.0
  0
LINE
  5
220
100
AcDbEntity
  8
0
 62
256
370
-1
 48
1.0
  6
BYLAYER
100
AcDbLine
 10
13.4970563397201317
 20
4.0131245530180877
 30
0.0
 11
13.5790109758519293
 21
4.0611324217681499
 31
0.0
  0
LINE
  5
221
100
AcDbEntity
  8
0
 62
256
370
-1
 48
1.0
  6
BYLAYER
100
AcDbLine
 10
13.4158183459021529
 20
3.9669020772115573
 30
0.0
 11
13.4970563397201317
 21
4.0131245530180877
 31
0.0
  0
LINE
  5
222
100
AcDbEntity
  8
0
 62
256
370
-1
 48
1.0
  6
BYLAYER
100
AcDbLine
 10
13.3644812685022742
 20
3.9395161437535648
 30
0.0
 11
13.4158183459021529
 21
3.9669020772115573
 31
0.0
  0
LINE
  5
223
100
AcDbEntity
  8
0
 62
256
370
-1
 48
1.0
  6
BYLAYER
100
AcDbLine
 10
13.4012495254360857
 20
3.857877262509362
 30
0.0
 11
13.3644812685022742
 21
3.9395161437535648
 31
0.0
  0
LINE
  5
224
100
AcDbEntity
  8
0
 62
256
370
-1
 48
1.0
  6
BYLAYER
100
AcDbLine
 10
13.4397284854002095
 20
3.7824207110706425
 30
0.0
 11
13.4012495254360857
 21
3.857877262509362
 31
0.0
  0
LINE
  5
225
100
AcDbEntity
  8
0
 62
256
370
-1
 48
1.0
  6
BYLAYER
100
AcDbLine
 10
13.4891156663927205
 20
3.6267487792653696
 30
0.0
 11
13.4397284854002095
 21
3.7824207110706425
 31
0.0
  0
LINE
  5
226
100
AcDbEntity
  8
0
 62
256
370
-1
 48
1.0
  6
BYLAYER
100
AcDbLine
 10
13.5240682394816929
 20
3.4637624007309569
 30
0.0
 11
13.4891156663927205
 21
3.6267487792653696
 31
0.0
  0
LINE
  5
227
100
AcDbEntity
  8
0
 62
256
370
-1
 48
1.0
  6
BYLAYER
100
AcDbLine
 10
13.5401196500491778
 20
3.3580533006471569
 30
0.0
 11
13.5240682394816929
 21
3.4637624007309569
 31
0.0
  0
LINE
  5
228
100
AcDbEntity
  8
0
 62
256
370
-1
 48
1.0
  6
BYLAYER
100
AcDbLine
 10
13.5526765858673031
 20
3.2432040626542857
 30
0.0
 11
13.5401196500491778
 21
3.3580533006471569
 31
0.0
  0
LINE
  5
229
100
AcDbEntity
  8
0
 62
256
370
-1
 48
1.0
  6
BYLAYER
100
AcDbLine
 10
13.5612559292146955
 20
3.1158003647160513
 30
0.0
 11
13.5526765858673031
 21
3.2432040626542857
 31
0.0
  0
LINE
  5
22A
100
AcDbEntity
  8
0
 62
256
370
-1
 48
1.0
  6
BYLAYER
100
AcDbLine
 10
13.5648030512774227
 20
2.9759303444550937
 30
0.0
 11
13.5612559292146955
 21
3.1158003647160513
 31
0.0
  0
LINE
  5
22B
100
AcDbEntity
  8
0
 62
256
370
-1
 48
1.0
  6
BYLAYER
100
AcDbLine
 10
13.5621905558069926
 20
2.8207499249574539
 30
0.0
 11
13.5648030512774227
 21
2.9759303444550937
 31
0.0
  0
LINE
  5
22C
100
AcDbEntity
  8
0
 62
256
370
-1
 48
1.0
  6
BYLAYER
100
AcDbLine
 10
13.5525658698502554
 20
2.6573533294769618
 30
0.0
 11
13.5621905558069926
 21
2.8207499249574539
 31
0.0
  0
LINE
  5
22D
100
AcDbEntity
  8
0
 62
256
370
-1
 48
1.0
  6
BYLAYER
100
AcDbLine
 10
13.5347697256654982
 20
2.4809254116037778
 30
0.0
 11
13.5525658698502554
 21
2.6573533294769618
 31
0.0
  0
LINE
  5
22E
100
AcDbEntity
  8
0
 62
256
370
-1
 48
1.0
  6
BYLAYER
100
AcDbLine
 10
13.5078962698014777
 20
2.2934234064922521
 30
0.0
 11
13.5347697256654982
 21
2.4809254116037778
 31
0.0
  0
LINE
  5
22F
100
AcDbEntity
  8
0
 62
256
370
-1
 48
1.0
  6
BYLAYER
100
AcDbLine
 10
13.4709466390799832
 20
2.0950911044312761
 30
0.0
 11
13.5078962698014777
 21
2.2934234064922521
 31
0.0
  0
LINE
  5
230
100
AcDbEntity
  8
0
 62
256
370
-1
 48
1.0
  6
BYLAYER
100
AcDbLine
 10
13.3744319495003054
 20
1.6708469883184875
 30
0.0
 11
13.4709466390799832
 21
2.0950911044312761
 31
0.0
  0
LINE
  5
231
100
AcDbEntity
  8
0
 62
256
370
-1
 48
1.0
  6
BYLAYER
100
AcDbLine
 10
12.8087624139590588
 20
1.4749031590593518
 30
0.0
 11
13.3744319495003054
 21
1.6708469883184875
 31
0.0
  0
LINE
  5
232
100
AcDbEntity
  8
0
 62
256
370
-1
 48
1.0
  6
BYLAYER
100
AcDbLine
 10
12.2359532855276001
 20
1.3009329298306511
 30
0.0
 11
12.8087624139590588
 21
1.4749031590593518
 31
0.0
  0
LINE
  5
233
100
AcDbEntity
  8
0
 62
256
370
-1
 48
1.0
  6
BYLAYER
100
AcDbLine
 10
11.908506837043987
 20
1.5874236675182942
 30
0.0
 11
12.2359532855276001
 21
1.3009329298306511
 31
0.0
  0
LINE
  5
234
100
AcDbEntity
  8
0
 62
256
370
-1
 48
1.0
  6
BYLAYER
100
AcDbLine
 10
11.7620372260723798
 20
1.7261594791946777
 30
0.0
 11
11.908506837043987
 21
1.5874236675182942
 31
0.0
  0
LINE
  5
235
100
AcDbEntity
  8
0
 62
256
370
-1
 48
1.0
  6
BYLAYER
100
AcDbLine
 10
11.6300852610949903
 20
1.8620558843448407
 30
0.0
 11
11.7620372260723798
 21
1.7261594791946777
 31
0.0
  0
LINE
  5
236
100
AcDbEntity
  8
0
 62
256
370
-1
 48
1.0
  6
BYLAYER
100
AcDbLine
 10
11.5119861939274557
 20
1.9943287381986465
 30
0.0
 11
11.6300852610949903
 21
1.8620558843448407
 31
0.0
  0
LINE
  5
237
100
AcDbEntity
  8
0
 62
256
370
-1
 48
1.0
  6
BYLAYER
100
AcDbLine
 10
11.4081575185524997
 20
2.1208620239881952
 30
0.0
 11
11.5119861939274557
 21
1.9943287381986465
 31
0.0
  0
LINE
  5
238
100
AcDbEntity
  8
0
 62
256
370
-1
 48
1.0
  6
BYLAYER
100
AcDbLine
 10
11.3148310330726929
 20
2.2448702331724917
 30
0.0
 11
11.4081575185524997
 21
2.1208620239881952
 31
0.0
  0
LINE
  5
239
100
AcDbEntity
  8
0
 62
256
370
-1
 48
1.0
  6
BYLAYER
100
AcDbLine
 10
11.2354872272287736
 20
2.3601125440253554
 30
0.0
 11
11.3148310330726929
 21
2.2448702331724917
 31
0.0
  0
LINE
  5
23A
100
AcDbEntity
  8
0
 62
256
370
-1
 48
1.0
  6
BYLAYER
100
AcDbLine
 10
11.1675422546413756
 20
2.4682268135605909
 30
0.0
 11
11.2354872272287736
 21
2.3601125440253554
 31
0.0
  0
LINE
  5
23B
100
AcDbEntity
  8
0
 62
256
370
-1
 48
1.0
  6
BYLAYER
100
AcDbLine
 10
11.1101943174331268
 20
2.5685224400456832
 30
0.0
 11
11.1675422546413756
 21
2.4682268135605909
 31
0.0
  0
LINE
  5
23C
100
AcDbEntity
  8
0
 62
256
370
-1
 48
1.0
  6
BYLAYER
100
AcDbLine
 10
11.0610457466152923
 20
2.6634779798285422
 30
0.0
 11
11.1101943174331268
 21
2.5685224400456832
 31
0.0
  0
LINE
  5
23D
100
AcDbEntity
  8
0
 62
256
370
-1
 48
1.0
  6
BYLAYER
100
AcDbLine
 10
10.9935221572702631
 20
2.815881242209457
 30
0.0
 11
11.0610457466152923
 21
2.6634779798285422
 31
0.0
  0
LINE
  5
23E
100
AcDbEntity
  8
0
 62
256
370
-1
 48
1.0
  6
BYLAYER
100
AcDbLine
 10
10.9419754129952196
 20
2.9708516162589831
 30
0.0
 11
10.9935221572702631
 21
2.815881242209457
 31
0.0
  0
LINE
  5
23F
100
AcDbEntity
  8
0
 62
256
370
-1
 48
1.0
  6
BYLAYER
100
AcDbLine
 10
10.9287534025193338
 20
3.0545145533896516
 30
0.0
 11
10.9419754129952196
 21
2.9708516162589831
 31
0.0
  0
LINE
  5
240
100
AcDbEntity
  8
0
 62
256
370
-1
 48
1.0
  6
BYLAYER
100
AcDbLine
 10
10.9103926064221355
 20
3.1427536800287612
 30
0.0
 11
10.9287534025193338
 21
3.0545145533896516
 31
0.0
  0
LINE
  5
241
100
AcDbEntity
  8
0
 62
256
370
-1
 48
1.0
  6
BYLAYER
100
AcDbLine
 10
10.8543876883209975
 20
3.1343218205456651
 30
0.0
 11
10.9103926064221355
 21
3.1427536800287612
 31
0.0
  0
LINE
  5
242
100
AcDbEntity
  8
0
 62
256
370
-1
 48
1.0
  6
BYLAYER
100
AcDbLine
 10
10.7599919577026952
 20
3.1237984881621514
 30
0.0
 11
10.8543876883209975
 21
3.1343218205456651
 31
0.0
  0
LINE
  5
243
100
AcDbEntity
  8
0
 62
256
370
-1
 48
1.0
  6
BYLAYER
100
AcDbLine
 10
10.666977107498127
 20
3.1146145906454876
 30
0.0
 11
10.7599919577026952
 21
3.1237984881621514
 31
0.0
  0
LINE
  5
244
100
AcDbEntity
  8
0
 62
256
370
-1
 48
1.0
  6
BYLAYER
100
AcDbLine
 10
10.6089394340060039
 20
3.1104769708162507
 30
0.0
 11
10.666977107498127
 21
3.1146145906454876
 31
0.0
  0
LINE
  5
245
100
AcDbEntity
  8
0
 62
256
370
-1
 48
1.0
  6
BYLAYER
100
AcDbLine
 10
10.6093233023902229
 20
3.0209410789200888
 30
0.0
 11
10.6089394340060039
 21
3.1104769708162507
 31
0.0
  0
LINE
  5
246
100
AcDbEntity
  8
0
 62
256
370
-1
 48
1.0
  6
BYLAYER
100
AcDbLine
 10
10.6137846828070082
 20
2.9363573855317782
 30
0.0
 11
10.6093233023902229
 21
3.0209410789200888
 31
0.0
  0
LINE
  5
247
100
AcDbEntity
  8
0
 62
256
370
-1
 48
1.0
  6
BYLAYER
100
AcDbLine
 10
10.5955846020898719
 20
2.7740563980391926
 30
0.0
 11
10.6137846828070082
 21
2.9363573855317782
 31
0.0
  0
LINE
  5
248
100
AcDbEntity
  8
0
 62
256
370
-1
 48
1.0
  6
BYLAYER
100
AcDbLine
 10
10.5612228622565567
 20
2.6109443621765536
 30
0.0
 11
10.5955846020898719
 21
2.7740563980391926
 31
0.0
  0
LINE
  5
249
100
AcDbEntity
  8
0
 62
256
370
-1
 48
1.0
  6
BYLAYER
100
AcDbLine
 10
10.5328907682367401
 20
2.5078455459993734
 30
0.0
 11
10.5612228622565567
 21
2.6109443621765536
 31
0.0
  0
LINE
  5
24A
100
AcDbEntity
  8
0
 62
256
370
-1
 48
1.0
  6
BYLAYER
100
AcDbLine
 10
10.4976487205091473
 20
2.3978183209269446
 30
0.0
 11
10.5328907682367401
 21
2.5078455459993734
 31
0.0
  0
LINE
  5
24B
100
AcDbEntity
  8
0
 62
256
370
-1
 48
1.0
  6
BYLAYER
100
AcDbLine
 10
10.4536666534492468
 20
2.2779397290247516
 30
0.0
 11
10.4976487205091473
 21
2.3978183209269446
 31
0.0
  0
LINE
  5
24C
100
AcDbEntity
  8
0
 62
256
370
-1
 48
1.0
  6
BYLAYER
100
AcDbLine
 10
10.4000167958213012
 20
2.1487192742517891
 30
0.0
 11
10.4536666534492468
 21
2.2779397290247516
 31
0.0
  0
LINE
  5
24D
100
AcDbEntity
  8
0
 62
256
370
-1
 48
1.0
  6
BYLAYER
100
AcDbLine
 10
10.3345126025661216
 20
2.0080174714075838
 30
0.0
 11
10.4000167958213012
 21
2.1487192742517891
 31
0.0
  0
LINE
  5
24E
100
AcDbEntity
  8
0
 62
256
370
-1
 48
1.0
  6
BYLAYER
100
AcDbLine
 10
10.2592606052155162
 20
1.8626619559000801
 30
0.0
 11
10.3345126025661216
 21
2.0080174714075838
 31
0.0
  0
LINE
  5
24F
100
AcDbEntity
  8
0
 62
256
370
-1
 48
1.0
  6
BYLAYER
100
AcDbLine
 10
10.1712432757947795
 20
1.7087253797414519
 30
0.0
 11
10.2592606052155162
 21
1.8626619559000801
 31
0.0
  0
LINE
  5
250
100
AcDbEntity
  8
0
 62
256
370
-1
 48
1.0
  6
BYLAYER
100
AcDbLine
 10
10.0704292747711861
 20
1.5483642821554895
 30
0.0
 11
10.1712432757947795
 21
1.7087253797414519
 31
0.0
  0
LINE
  5
251
100
AcDbEntity
  8
0
 62
256
370
-1
 48
1.0
  6
BYLAYER
100
AcDbLine
 10
9.9560051595712338
 20
1.38220758569895
 30
0.0
 11
10.0704292747711861
 21
1.5483642821554895
 31
0.0
  0
LINE
  5
252
100
AcDbEntity
  8
0
 62
256
370
-1
 48
1.0
  6
BYLAYER
100
AcDbLine
 10
9.6952791884097849
 20
1.0338971658571836
 30
0.0
 11
9.9560051595712338
 21
1.38220758569895
 31
0.0
  0
LINE
  5
253
100
AcDbEntity
  8
0
 62
256
370
-1
 48
1.0
  6
BYLAYER
100
AcDbLine
 10
9.0988166289840962
 20
1.0849720971197598
 30
0.0
 11
9.6952791884097849
 21
1.0338971658571836
 31
0.0
  0
LINE
  5
254
100
AcDbEntity
  8
0
 62
256
370
-1
 48
1.0
  6
BYLAYER
100
AcDbLine
 10
8.5047695763621647
 20
1.1590248478264584
 30
0.0
 11
9.0988166289840962
 21
1.0849720971197598
 31
0.0
  0
LINE
  5
255
100
AcDbEntity
  8
0
 62
256
370
-1
 48
1.0
  6
BYLAYER
100
AcDbLine
 10
8.3221584140527227
 20
1.553931568176381
 30
0.0
 11
8.5047695763621647
 21
1.1590248478264584
 31
0.0
  0
LINE
  5
256
100
AcDbEntity
  8
0
 62
256
370
-1
 48
1.0
  6
BYLAYER
100
AcDbLine
 10
8.2447805362130708
 20
1.740247840972188
 30
0.0
 11
8.3221584140527227
 21
1.553931568176381
 31
0.0
  0
LINE
  5
257
100
AcDbEntity
  8
0
 62
256
370
-1
 48
1.0
  6
BYLAYER
100
AcDbLine
 10
8.1795105982685641
 20
1.9180650861518416
 30
0.0
 11
8.2447805362130708
 21
1.740247840972188
 31
0.0
  0
LINE
  5
258
100
AcDbEntity
  8
0
 62
256
370
-1
 48
1.0
  6
BYLAYER
100
AcDbLine
 10
8.1254219619091259
 20
2.0869373756942764
 30
0.0
 11
8.1795105982685641
 21
1.9180650861518416
 31
0.0
  0
LINE
  5
259
100
AcDbEntity
  8
0
 62
256
370
-1
 48
1.0
  6
BYLAYER
100
AcDbLine
 10
8.0820353807331173
 20
2.2447624301206588
 30
0.0
 11
8.1254219619091259
 21
2.0869373756942764
 31
0.0
  0
LINE
  5
25A
100
AcDbEntity
  8
0
 62
256
370
-1
 48
1.0
  6
BYLAYER
100
AcDbLine
 10
8.0472162432638612
 20
2.3960087571427948
 30
0.0
 11
8.0820353807331173
 21
2.2447624301206588
 31
0.0
  0
LINE
  5
25B
100
AcDbEntity
  8
0
 62
256
370
-1
 48
1.0
  6
BYLAYER
100
AcDbLine
 10
8.02160527498269
 20
2.5335596562991896
 30
0.0
 11
8.0472162432638612
 21
2.3960087571427948
 31
0.0
  0
LINE
  5
25C
100
AcDbEntity
  8
0
 62
256
370
-1
 48
1.0
  6
BYLAYER
100
AcDbLine
 10
8.003508435967035
 20
2.6599627903579517
 30
0.0
 11
8.02160527498269
 21
2.5335596562991896
 31
0.0
  0
LINE
  5
25D
100
AcDbEntity
  8
0
 62
256
370
-1
 48
1.0
  6
BYLAYER
100
AcDbLine
 10
7.9919123814954105
 20
2.7749130439965484
 30
0.0
 11
8.003508435967035
 21
2.6599627903579517
 31
0.0
  0
LINE
  5
25E
100
AcDbEntity
  8
0
 62
256
370
-1
 48
1.0
  6
BYLAYER
100
AcDbLine
 10
7.985634851294094
 20
2.8816497789717914
 30
0.0
 11
7.9919123814954105
 21
2.7749130439965484
 31
0.0
  0
LINE
  5
25F
100
AcDbEntity
  8
0
 62
256
370
-1
 48
1.0
  6
BYLAYER
100
AcDbLine
 10
7.9859370031312977
 20
3.0483414130288793
 30
0.0
 11
7.985634851294094
 21
2.8816497789717914
 31
0.0
  0
LINE
  5
260
100
AcDbEntity
  8
0
 62
256
370
-1
 48
1.0
  6
BYLAYER
100
AcDbLine
 10
8.0018787979653467
 20
3.2108795126005703
 30
0.0
 11
7.9859370031312977
 21
3.0483414130288793
 31
0.0
  0
LINE
  5
261
100
AcDbEntity
  8
0
 62
256
370
-1
 48
1.0
  6
BYLAYER
100
AcDbLine
 10
8.0238286796633389
 20
3.2926876021440421
 30
0.0
 11
8.0018787979653467
 21
3.2108795126005703
 31
0.0
  0
LINE
  5
262
100
AcDbEntity
  8
0
 62
256
370
-1
 48
1.0
  6
BYLAYER
100
AcDbLine
 10
8.0429454256053248
 20
3.3807660185619852
 30
0.0
 11
8.0238286796633389
 21
3.2926876021440421
 31
0.0
  0
LINE
  5
263
100
AcDbEntity
  8
0
 62
256
370
-1
 48
1.0
  6
BYLAYER
100
AcDbLine
 10
7.9883528655690412
 20
3.3958423785911691
 30
0.0
 11
8.0429454256053248
 21
3.3807660185619852
 31
0.0
  0
LINE
  5
264
100
AcDbEntity
  8
0
 62
256
370
-1
 48
1.0
  6
BYLAYER
100
AcDbLine
 10
7.8978377905251023
 20
3.4246230153858619
 30
0.0
 11
7.9883528655690412
 21
3.3958423785911691
 31
0.0
  0
LINE
  5
265
100
AcDbEntity
  8
0
 62
256
370
-1
 48
1.0
  6
BYLAYER
100
AcDbLine
 10
7.8091290161253966
 20
3.4540656965081666
 30
0.0
 11
7.8978377905251023
 21
3.4246230153858619
 31
0.0
  0
LINE
  5
266
100
AcDbEntity
  8
0
 62
256
370
-1
 48
1.0
  6
BYLAYER
100
AcDbLine
 10
7.7544260345997031
 20
3.473891823960173
 30
0.0
 11
7.8091290161253966
 21
3.4540656965081666
 31
0.0
  0
LINE
  5
267
100
AcDbEntity
  8
0
 62
256
370
-1
 48
1.0
  6
BYLAYER
100
AcDbLine
 10
7.7183592089693462
 20
3.3919404598592564
 30
0.0
 11
7.7544260345997031
 21
3.473891823960173
 31
0.0
  0
ENDSEC
  0
SECTION
  2
OBJECTS
  0
DICTIONARY
  5
C
100
AcDbDictionary
280
0
281
1
  3
ACAD_GROUP
350
D
  3
ACAD_LAYOUT
350
1A
  3
ACAD_MLINESTYLE
350
17
  3
ACAD_PLOTSETTINGS
350
19
  3
ACAD_PLOTSTYLENAME
350
E
  3
AcDbVariableDictionary
350
268
  3
QCAD_OBJECTS
350
269
  0
DICTIONARY
  5
D
100
AcDbDictionary
280
0
281
1
  0
ACDBDICTIONARYWDFLT
  5
E
100
AcDbDictionary
281
1
  3
Normal
350
F
100
AcDbDictionaryWithDefault
340
F
  0
ACDBPLACEHOLDER
  5
F
  0
DICTIONARY
  5
17
100
AcDbDictionary
280
0
281
1
  3
Standard
350
18
  0
MLINESTYLE
  5
18
100
AcDbMlineStyle
  2
STANDARD
 70
0
  3

 62
256
 51
90.0
 52
90.0
 71
2
 49
0.5
 62
256
  6
BYLAYER
 49
-0.5
 62
256
  6
BYLAYER
  0
DICTIONARY
  5
19
100
AcDbDictionary
280
0
281
1
  0
DICTIONARY
  5
1A
100
AcDbDictionary
281
1
  3
Layout1
350
1E
  3
Layout2
350
26
  3
Model
350
22
  0
LAYOUT
  5
1E
100
AcDbPlotSettings
  1

  2
none_device
  4

  6

 40
0.0
 41
0.0
 42
0.0
 43
0.0
 44
0.0
 45
0.0
 46
0.0
 47
0.0
 48
0.0
 49
0.0
140
0.0
141
0.0
142
1.0
143
1.0
 70
688
 72
0
 73
0
 74
5
  7

 75
16
147
1.0
148
0.0
149
0.0
100
AcDbLayout
  1
Layout1
 70
1
 71
1
 10
0.0
 20
0.0
 11
420.0
 21
297.0
 12
0.0
 22
0.0
 32
0.0
 14
100000000000000000000.0
 24
100000000000000000000.0
 34
100000000000000000000.0
 15
-100000000000000000000.0
 25
-100000000000000000000.0
 35
-100000000000000000000.0
146
0.0
 13
0.0
 23
0.0
 33
0.0
 16
1.0
 26
0.0
 36
0.0
 17
0.0
 27
1.0
 37
0.0
 76
0
330
1B
  0
LAYOUT
  5
22
100
AcDbPlotSettings
  1

  2
none_device
  4

  6

 40
0.0
 41
0.0
 42
0.0
 43
0.0
 44
0.0
 45
0.0
 46
0.0
 47
0.0
 48
0.0
 49
0.0
140
0.0
141
0.0
142
1.0
143
1.0
 70
1712
 72
0
 73
0
 74
0
  7

 75
0
147
1.0
148
0.0
149
0.0
100
AcDbLayout
  1
Model
 70
1
 71
0
 10
0.0
 20
0.0
 11
12.0
 21
9.0
 12
0.0
 22
0.0
 32
0.0
 14
0.0
 24
0.0
 34
0.0
 15
0.0
 25
0.0
 35
0.0
146
0.0
 13
0.0
 23
0.0
 33
0.0
 16
1.0
 26
0.0
 36
0.0
 17
0.0
 27
1.0
 37
0.0
 76
0
330
1F
  0
LAYOUT
  5
26
100
AcDbPlotSettings
  1

  2
none_device
  4

  6

 40
0.0
 41
0.0
 42
0.0
 43
0.0
 44
0.0
 45
0.0
 46
0.0
 47
0.0
 48
0.0
 49
0.0
140
0.0
141
0.0
142
1.0
143
1.0
 70
688
 72
0
 73
0
 74
5
  7

 75
16
147
1.0
148
0.0
149
0.0
100
AcDbLayout
  1
Layout2
 70
1
 71
2
 10
0.0
 20
0.0
 11
12.0
 21
9.0
 12
0.0
 22
0.0
 32
0.0
 14
0.0
 24
0.0
 34
0.0
 15
0.0
 25
0.0
 35
0.0
146
0.0
 13
0.0
 23
0.0
 33
0.0
 16
1.0
 26
0.0
 36
0.0
 17
0.0
 27
1.0
 37
0.0
 76
0
330
23
  0
DICTIONARY
  5
268
100
AcDbDictionary
281
1
  3
DIMASSOC
350
26B
  3
HIDETEXT
350
26A
  0
DICTIONARYVAR
  5
26A
100
DictionaryVariables
280
0
  1
2
  0
DICTIONARYVAR
  5
26B
100
DictionaryVariables
280
0
  1
1
  0
DICTIONARY
  5
269
100
AcDbDictionary
281
1
  3
ColorSettings/BackgroundColor
350
26C
  3
ColorSettings/ColorMode
350
26D
  3
Grid/DisplayGrid00
350
26E
  3
Grid/DisplayGrid01
350
26F
  3
Grid/DisplayGrid02
350
270
  3
Grid/DisplayGrid03
350
271
  3
Grid/GridSpacingX00
350
272
  3
Grid/GridSpacingX01
350
273
  3
Grid/GridSpacingX02
350
274
  3
Grid/GridSpacingX03
350
275
  3
Grid/GridSpacingY00
350
276
  3
Grid/GridSpacingY01
350
277
  3
Grid/GridSpacingY02
350
278
  3
Grid/GridSpacingY03
350
279
  3
Grid/IsometricGrid00
350
27A
  3
Grid/IsometricGrid01
350
27B
  3
Grid/IsometricGrid02
350
27C
  3
Grid/IsometricGrid03
350
27D
  3
Grid/IsometricProjection00
350
27E
  3
Grid/IsometricProjection01
350
27F
  3
Grid/IsometricProjection02
350
280
  3
Grid/IsometricProjection03
350
281
  3
Grid/MetaGridSpacingX00
350
282
  3
Grid/MetaGridSpacingX01
350
283
  3
Grid/MetaGridSpacingX02
350
284
  3
Grid/MetaGridSpacingX03
350
285
  3
Grid/MetaGridSpacingY00
350
286
  3
Grid/MetaGridSpacingY01
350
287
  3
Grid/MetaGridSpacingY02
350
288
  3
Grid/MetaGridSpacingY03
350
289
  3
MultiPageSettings/Columns
350
28A
  3
MultiPageSettings/GlueMarginsBottom
350
28B
  3
MultiPageSettings/GlueMarginsLeft
350
28C
  3
MultiPageSettings/GlueMarginsRight
350
28D
  3
MultiPageSettings/GlueMarginsTop
350
28E
  3
MultiPageSettings/PrintCropMarks
350
28F
  3
MultiPageSettings/Rows
350
290
  3
PageSettings/OffsetX
350
291
  3
PageSettings/OffsetY
350
292
  3
PageSettings/PageOrientation
350
293
  3
PageSettings/PaperHeight
350
294
  3
PageSettings/PaperWidth
350
295
  3
PageSettings/Scale
350
296
  3
PageSettings/ShowPaperBorders
350
297
  3
PageTagSettings/EnablePageTags
350
298
  3
PageTagSettings/TagAlignment
350
299
  3
PageTagSettings/TagFont
350
29A
  3
PageTagSettings/TagPosition
350
29B
  3
QCADVersion
350
29C
  3
UnitSettings/PaperUnit
350
29D
  3
ViewportCenter
350
29E
  3
ViewportHeight
350
29F
  3
ViewportWidth
350
2A0
  0
XRECORD
  5
26C
330
269
100
AcDbXrecord
280
1
1000
White
  0
XRECORD
  5
26D
330
269
100
AcDbXrecord
280
1
1000
FullColor
  0
XRECORD
  5
26E
330
269
100
AcDbXrecord
280
1
290
1
  0
XRECORD
  5
26F
330
269
100
AcDbXrecord
280
1
290
1
  0
XRECORD
  5
270
330
269
100
AcDbXrecord
280
1
290
1
  0
XRECORD
  5
271
330
269
100
AcDbXrecord
280
1
290
1
  0
XRECORD
  5
272
330
269
100
AcDbXrecord
280
1
1000
auto
  0
XRECORD
  5
273
330
269
100
AcDbXrecord
280
1
1000
auto
  0
XRECORD
  5
274
330
269
100
AcDbXrecord
280
1
1000
auto
  0
XRECORD
  5
275
330
269
100
AcDbXrecord
280
1
1000
auto
  0
XRECORD
  5
276
330
269
100
AcDbXrecord
280
1
1000
auto
  0
XRECORD
  5
277
330
269
100
AcDbXrecord
280
1
1000
auto
  0
XRECORD
  5
278
330
269
100
AcDbXrecord
280
1
1000
auto
  0
XRECORD
  5
279
330
269
100
AcDbXrecord
280
1
1000
auto
  0
XRECORD
  5
27A
330
269
100
AcDbXrecord
280
1
290
0
  0
XRECORD
  5
27B
330
269
100
AcDbXrecord
280
1
290
0
  0
XRECORD
  5
27C
330
269
100
AcDbXrecord
280
1
290
0
  0
XRECORD
  5
27D
330
269
100
AcDbXrecord
280
1
290
0
  0
XRECORD
  5
27E
330
269
100
AcDbXrecord
280
1
 90
65537
  0
XRECORD
  5
27F
330
269
100
AcDbXrecord
280
1
 90
65537
  0
XRECORD
  5
280
330
269
100
AcDbXrecord
280
1
 90
65537
  0
XRECORD
  5
281
330
269
100
AcDbXrecord
280
1
 90
65537
  0
XRECORD
  5
282
330
269
100
AcDbXrecord
280
1
1000
auto
  0
XRECORD
  5
283
330
269
100
AcDbXrecord
280
1
1000
auto
  0
XRECORD
  5
284
330
269
100
AcDbXrecord
280
1
1000
auto
  0
XRECORD
  5
285
330
269
100
AcDbXrecord
280
1
1000
auto
  0
XRECORD
  5
286
330
269
100
AcDbXrecord
280
1
1000
auto
  0
XRECORD
  5
287
330
269
100
AcDbXrecord
280
1
1000
auto
  0
XRECORD
  5
288
330
269
100
AcDbXrecord
280
1
1000
auto
  0
XRECORD
  5
289
330
269
100
AcDbXrecord
280
1
1000
auto
  0
XRECORD
  5
28A
330
269
100
AcDbXrecord
280
1
 90
1
  0
XRECORD
  5
28B
330
269
100
AcDbXrecord
280
1
 40
10.0
  0
XRECORD
  5
28C
330
269
100
AcDbXrecord
280
1
 40
10.0
  0
XRECORD
  5
28D
330
269
100
AcDbXrecord
280
1
 40
10.0
  0
XRECORD
  5
28E
330
269
100
AcDbXrecord
280
1
 40
10.0
  0
XRECORD
  5
28F
330
269
100
AcDbXrecord
280
1
290
0
  0
XRECORD
  5
290
330
269
100
AcDbXrecord
280
1
 90
1
  0
XRECORD
  5
291
330
269
100
AcDbXrecord
280
1
 40
0.0
  0
XRECORD
  5
292
330
269
100
AcDbXrecord
280
1
 40
0.0
  0
XRECORD
  5
293
330
269
100
AcDbXrecord
280
1
1000
Portrait
  0
XRECORD
  5
294
330
269
100
AcDbXrecord
280
1
 40
279.3999999999999773
  0
XRECORD
  5
295
330
269
100
AcDbXrecord
280
1
 40
215.9000000000000057
  0
XRECORD
  5
296
330
269
100
AcDbXrecord
280
1
1000
1:1
  0
XRECORD
  5
297
330
269
100
AcDbXrecord
280
1
290
1
  0
XRECORD
  5
298
330
269
100
AcDbXrecord
280
1
290
0
  0
XRECORD
  5
299
330
269
100
AcDbXrecord
280
1
1000
Inside
  0
XRECORD
  5
29A
330
269
100
AcDbXrecord
280
1
1000
Arial,10,-1,5,50,0,0,0,0,0
  0
XRECORD
  5
29B
330
269
100
AcDbXrecord
280
1
1000
TopLeft
  0
XRECORD
  5
29C
330
269
100
AcDbXrecord
280
1
1000
3.30.1
  0
XRECORD
  5
29D
330
269
100
AcDbXrecord
280
1
 90
4
  0
XRECORD
  5
29F
330
269
100
AcDbXrecord
280
1
 40
19.432700273899254
  0
XRECORD
  5
2A0
330
269
100
AcDbXrecord
280
1
 40
36.809548125874656
  0
ENDSEC
  0
EOF
