999
dxflib 3.26.4.0
  0
SECTION
  2
HEADER
  9
$ACADVER
  1
AC1015
  9
$HANDSEED
  5
FFFF
  9
$DIMADEC
 70
0
  9
$DIMASZ
 40
2.5
  9
$DIMATFIT
 70
0
  9
$DIMAUNIT
 70
0
  9
$DIMAZIN
 70
2
  9
$DIMBLK
  1
0
  9
$DIMBLK1
  1
0
  9
$DIMBLK2
  1
0
  9
$DIMDEC
 70
4
  9
$DIMDLI
 40
5.0
  9
$DIMDSEP
 70
46
  9
$DIMEXE
 40
1.25
  9
$DIMEXO
 40
0.625
  9
$DIMGAP
 40
0.625
  9
$DIMLFAC
 40
1.0
  9
$DIMLUNIT
 70
2
  9
$DIMSCALE
 40
1.0
  9
$DIMTAD
 70
1
  9
$DIMTIH
 70
0
  9
$DIMTSZ
 40
0.0
  9
$DIMTXT
 40
2.5
  9
$DIMZIN
 70
8
  9
$DWGCODEPAGE
  3
ANSI_1252
  9
$INSUNITS
 70
4
  9
$LTSCALE
 40
1.0
  9
$MAXACTVP
 70
64
  9
$MEASUREMENT
 70
1
  9
$MIRRTEXT
 70
0
  9
$PDMODE
 70
0
  9
$PDSIZE
 40
0.0
  0
ENDSEC
  0
SECTION
  2
TABLES
  0
TABLE
  2
VPORT
  5
8
100
AcDbSymbolTable
 70
1
  0
VPORT
  5
30
100
AcDbSymbolTableRecord
100
AcDbViewportTableRecord
  2
*Active
 70
0
 10
0.0
 20
0.0
 11
1.0
 21
1.0
 12
286.3055555555554861
 22
148.5
 13
0.0
 23
0.0
 14
10.0
 24
10.0
 15
10.0
 25
10.0
 16
0.0
 26
0.0
 36
1.0
 17
0.0
 27
0.0
 37
0.0
 40
297.0
 41
1.92798353909465
 42
50.0
 43
0.0
 44
0.0
 50
0.0
 51
0.0
 71
0
 72
100
 73
1
 74
3
 75
1
 76
1
 77
0
 78
0
281
0
 65
1
110
0.0
120
0.0
130
0.0
111
1.0
121
0.0
131
0.0
112
0.0
122
1.0
132
0.0
 79
0
146
0.0
  0
ENDTAB
  0
TABLE
  2
LTYPE
  5
5
100
AcDbSymbolTable
 70
41
  0
LTYPE
  5
16
100
AcDbSymbolTableRecord
100
AcDbLinetypeTableRecord
  2
Continuous
 70
0
  3
Solid line
 72
65
 73
0
 40
0.0
  0
LTYPE
  5
31
100
AcDbSymbolTableRecord
100
AcDbLinetypeTableRecord
  2
DASHED2
 70
0
  3
Dashed (.5x) _ _ _ _ _ _ _ _ _ _ _ _ _ _ _ _ _ 
 72
65
 73
2
 40
9.5249999999999986
 49
6.3499999999999996
 74
0
 49
-3.1749999999999998
 74
0
  0
LTYPE
  5
32
100
AcDbSymbolTableRecord
100
AcDbLinetypeTableRecord
  2
BORDER
 70
0
  3
Border __ __ . __ __ . __ __ . __ __ . __ __ .
 72
65
 73
6
 40
44.4499999999999957
 49
12.6999999999999993
 74
0
 49
-6.3499999999999996
 74
0
 49
12.6999999999999993
 74
0
 49
-6.2999999999999998
 74
0
 49
0.1
 74
0
 49
-6.2999999999999998
 74
0
  0
LTYPE
  5
33
100
AcDbSymbolTableRecord
100
AcDbLinetypeTableRecord
  2
DASHED
 70
0
  3
Dashed __ __ __ __ __ __ __ __ __ __ __ __ __ _
 72
65
 73
2
 40
19.0499999999999972
 49
12.6999999999999993
 74
0
 49
-6.3499999999999996
 74
0
  0
LTYPE
  5
34
100
AcDbSymbolTableRecord
100
AcDbLinetypeTableRecord
  2
DASHDOT2
 70
0
  3
Dash dot (.5x) _._._._._._._._._._._._._._._.
 72
65
 73
4
 40
12.6999999999999993
 49
6.3499999999999996
 74
0
 49
-3.125
 74
0
 49
0.1
 74
0
 49
-3.125
 74
0
  0
LTYPE
  5
35
100
AcDbSymbolTableRecord
100
AcDbLinetypeTableRecord
  2
DIVIDE
 70
0
  3
Divide ____ . . ____ . . ____ . . ____ . . ____
 72
65
 73
6
 40
31.7500000000000036
 49
12.6999999999999993
 74
0
 49
-6.2999999999999998
 74
0
 49
0.1
 74
0
 49
-6.25
 74
0
 49
0.1
 74
0
 49
-6.2999999999999998
 74
0
  0
LTYPE
  5
36
100
AcDbSymbolTableRecord
100
AcDbLinetypeTableRecord
  2
DOT2
 70
0
  3
Dot (.5x) ........................................
 72
65
 73
2
 40
3.1749999999999998
 49
0.1
 74
0
 49
-3.0749999999999997
 74
0
  0
LTYPE
  5
37
100
AcDbSymbolTableRecord
100
AcDbLinetypeTableRecord
  2
PHANTOM2
 70
0
  3
Phantom (.5x) ___ _ _ ___ _ _ ___ _ _ ___ _ _
 72
65
 73
6
 40
31.7500000000000036
 49
15.875
 74
0
 49
-3.1749999999999998
 74
0
 49
3.1749999999999998
 74
0
 49
-3.1749999999999998
 74
0
 49
3.1749999999999998
 74
0
 49
-3.1749999999999998
 74
0
  0
LTYPE
  5
38
100
AcDbSymbolTableRecord
100
AcDbLinetypeTableRecord
  2
ACAD_ISO09W100
 70
0
  3
ISO long-dash double-short-dash ____ __ __ ____
 72
65
 73
6
 40
45.0
 49
24.0
 74
0
 49
-3.0
 74
0
 49
6.0
 74
0
 49
-3.0
 74
0
 49
6.0
 74
0
 49
-3.0
 74
0
  0
LTYPE
  5
39
100
AcDbSymbolTableRecord
100
AcDbLinetypeTableRecord
  2
DIVIDEX2
 70
0
  3
Divide (2x) ________  .  .  ________  .  .  _
 72
65
 73
6
 40
63.5
 49
25.3999999999999986
 74
0
 49
-12.6499999999999986
 74
0
 49
0.1
 74
0
 49
-12.5999999999999979
 74
0
 49
0.1
 74
0
 49
-12.6499999999999986
 74
0
  0
LTYPE
  5
3A
100
AcDbSymbolTableRecord
100
AcDbLinetypeTableRecord
  2
ACAD_ISO13W100
 70
0
  3
ISO double-dash double-dot __ __ . . __ __ . . _
 72
65
 73
8
 40
36.0000000000000071
 49
12.0
 74
0
 49
-3.0
 74
0
 49
12.0
 74
0
 49
-2.9500000000000002
 74
0
 49
0.1
 74
0
 49
-2.9000000000000004
 74
0
 49
0.1
 74
0
 49
-2.9500000000000002
 74
0
  0
LTYPE
  5
3B
100
AcDbSymbolTableRecord
100
AcDbLinetypeTableRecord
  2
ACAD_ISO05W100
 70
0
  3
ISO long-dash double-dot ____ .. ____ .. ____ . 
 72
65
 73
6
 40
33.0000000000000071
 49
24.0
 74
0
 49
-2.9500000000000002
 74
0
 49
0.1
 74
0
 49
-2.9000000000000004
 74
0
 49
0.1
 74
0
 49
-2.9500000000000002
 74
0
  0
LTYPE
  5
3C
100
AcDbSymbolTableRecord
100
AcDbLinetypeTableRecord
  2
HIDDEN
 70
0
  3
Hidden __ __ __ __ __ __ __ __ __ __ __ __ __ __
 72
65
 73
2
 40
9.5249999999999986
 49
6.3499999999999996
 74
0
 49
-3.1749999999999998
 74
0
  0
LTYPE
  5
3D
100
AcDbSymbolTableRecord
100
AcDbLinetypeTableRecord
  2
ACAD_ISO04W100
 70
0
  3
ISO long-dash dot ____ . ____ . ____ . ____ . _
 72
65
 73
4
 40
30.0
 49
24.0
 74
0
 49
-2.9500000000000002
 74
0
 49
0.1
 74
0
 49
-2.9500000000000002
 74
0
  0
LTYPE
  5
3E
100
AcDbSymbolTableRecord
100
AcDbLinetypeTableRecord
  2
HIDDENX2
 70
0
  3
Hidden (2x) ____ ____ ____ ____ ____ ____ ____ 
 72
65
 73
2
 40
19.0499999999999972
 49
12.6999999999999993
 74
0
 49
-6.3499999999999996
 74
0
  0
LTYPE
  5
3F
100
AcDbSymbolTableRecord
100
AcDbLinetypeTableRecord
  2
ACAD_ISO11W100
 70
0
  3
ISO double-dash dot __ __ . __ __ . __ __ . __ _
 72
65
 73
6
 40
33.0
 49
12.0
 74
0
 49
-3.0
 74
0
 49
12.0
 74
0
 49
-2.9500000000000002
 74
0
 49
0.1
 74
0
 49
-2.9500000000000002
 74
0
  0
LTYPE
  5
40
100
AcDbSymbolTableRecord
100
AcDbLinetypeTableRecord
  2
BORDERX2
 70
0
  3
Border (2x) ____  ____  .  ____  ____  .  ___
 72
65
 73
6
 40
88.8999999999999773
 49
25.3999999999999986
 74
0
 49
-12.6999999999999993
 74
0
 49
25.3999999999999986
 74
0
 49
-12.6499999999999986
 74
0
 49
0.1
 74
0
 49
-12.6499999999999986
 74
0
  0
LTYPE
  5
41
100
AcDbSymbolTableRecord
100
AcDbLinetypeTableRecord
  2
DOT
 70
0
  3
Dot . . . . . . . . . . . . . . . . . . . . . . . .
 72
65
 73
2
 40
6.3499999999999996
 49
0.1
 74
0
 49
-6.25
 74
0
  0
LTYPE
  5
42
100
AcDbSymbolTableRecord
100
AcDbLinetypeTableRecord
  2
ACAD_ISO10W100
 70
0
  3
ISO dash dot __ . __ . __ . __ . __ . __ . __ . 
 72
65
 73
4
 40
18.0
 49
12.0
 74
0
 49
-2.9500000000000002
 74
0
 49
0.1
 74
0
 49
-2.9500000000000002
 74
0
  0
LTYPE
  5
43
100
AcDbSymbolTableRecord
100
AcDbLinetypeTableRecord
  2
DIVIDE2
 70
0
  3
Divide (.5x) __..__..__..__..__..__..__..__.._
 72
65
 73
6
 40
15.8749999999999982
 49
6.3499999999999996
 74
0
 49
-3.125
 74
0
 49
0.1
 74
0
 49
-3.0750000000000002
 74
0
 49
0.1
 74
0
 49
-3.125
 74
0
  0
LTYPE
  5
15
100
AcDbSymbolTableRecord
100
AcDbLinetypeTableRecord
  2
BYLAYER
 70
0
  3

 72
65
 73
0
 40
0.0
  0
LTYPE
  5
14
100
AcDbSymbolTableRecord
100
AcDbLinetypeTableRecord
  2
BYBLOCK
 70
0
  3

 72
65
 73
0
 40
0.0
  0
LTYPE
  5
44
100
AcDbSymbolTableRecord
100
AcDbLinetypeTableRecord
  2
PHANTOMX2
 70
0
  3
Phantom (2x) ____________    ____    ____   _
 72
65
 73
6
 40
127.0000000000000142
 49
63.5
 74
0
 49
-12.6999999999999993
 74
0
 49
12.6999999999999993
 74
0
 49
-12.6999999999999993
 74
0
 49
12.6999999999999993
 74
0
 49
-12.6999999999999993
 74
0
  0
LTYPE
  5
45
100
AcDbSymbolTableRecord
100
AcDbLinetypeTableRecord
  2
CENTERX2
 70
0
  3
Center (2x) ________  __  ________  __  _____
 72
65
 73
4
 40
101.6000000000000085
 49
63.5
 74
0
 49
-12.6999999999999993
 74
0
 49
12.6999999999999993
 74
0
 49
-12.6999999999999993
 74
0
  0
LTYPE
  5
46
100
AcDbSymbolTableRecord
100
AcDbLinetypeTableRecord
  2
ACAD_ISO15W100
 70
0
  3
ISO double-dash triple-dot __ __ . . . __ __ . .
 72
65
 73
10
 40
39.0000000000000071
 49
12.0
 74
0
 49
-3.0
 74
0
 49
12.0
 74
0
 49
-2.9500000000000002
 74
0
 49
0.1
 74
0
 49
-2.9000000000000004
 74
0
 49
0.1
 74
0
 49
-2.9000000000000004
 74
0
 49
0.1
 74
0
 49
-2.9500000000000002
 74
0
  0
LTYPE
  5
47
100
AcDbSymbolTableRecord
100
AcDbLinetypeTableRecord
  2
CENTER
 70
0
  3
Center ____ _ ____ _ ____ _ ____ _ ____ _ ____
 72
65
 73
4
 40
50.8000000000000043
 49
31.75
 74
0
 49
-6.3499999999999996
 74
0
 49
6.3499999999999996
 74
0
 49
-6.3499999999999996
 74
0
  0
LTYPE
  5
48
100
AcDbSymbolTableRecord
100
AcDbLinetypeTableRecord
  2
CENTER2
 70
0
  3
Center (.5x) ___ _ ___ _ ___ _ ___ _ ___ _ ___
 72
65
 73
4
 40
28.5750000000000028
 49
19.0500000000000007
 74
0
 49
-3.1749999999999998
 74
0
 49
3.1749999999999998
 74
0
 49
-3.1749999999999998
 74
0
  0
LTYPE
  5
49
100
AcDbSymbolTableRecord
100
AcDbLinetypeTableRecord
  2
HIDDEN2
 70
0
  3
Hidden (.5x) _ _ _ _ _ _ _ _ _ _ _ _ _ _ _ _ _ 
 72
65
 73
2
 40
4.7624999999999993
 49
3.1749999999999998
 74
0
 49
-1.5874999999999999
 74
0
  0
LTYPE
  5
4A
100
AcDbSymbolTableRecord
100
AcDbLinetypeTableRecord
  2
DASHDOTX2
 70
0
  3
Dash dot (2x) ____  .  ____  .  ____  .  ___
 72
65
 73
4
 40
50.7999999999999972
 49
25.3999999999999986
 74
0
 49
-12.6499999999999986
 74
0
 49
0.1
 74
0
 49
-12.6499999999999986
 74
0
  0
LTYPE
  5
4B
100
AcDbSymbolTableRecord
100
AcDbLinetypeTableRecord
  2
ACAD_ISO12W100
 70
0
  3
ISO dash double-dot __ . . __ . . __ . . __ . . 
 72
65
 73
6
 40
21.0
 49
12.0
 74
0
 49
-2.9500000000000002
 74
0
 49
0.1
 74
0
 49
-2.9000000000000004
 74
0
 49
0.1
 74
0
 49
-2.9500000000000002
 74
0
  0
LTYPE
  5
4C
100
AcDbSymbolTableRecord
100
AcDbLinetypeTableRecord
  2
ACAD_ISO08W100
 70
0
  3
ISO long-dash short-dash ____ __ ____ __ ____ _
 72
65
 73
4
 40
36.0
 49
24.0
 74
0
 49
-3.0
 74
0
 49
6.0
 74
0
 49
-3.0
 74
0
  0
LTYPE
  5
4D
100
AcDbSymbolTableRecord
100
AcDbLinetypeTableRecord
  2
DASHDOT
 70
0
  3
Dash dot __ . __ . __ . __ . __ . __ . __ . __
 72
65
 73
4
 40
25.4000000000000021
 49
12.6999999999999993
 74
0
 49
-6.2999999999999998
 74
0
 49
0.1
 74
0
 49
-6.2999999999999998
 74
0
  0
LTYPE
  5
4E
100
AcDbSymbolTableRecord
100
AcDbLinetypeTableRecord
  2
ACAD_ISO02W100
 70
0
  3
ISO dash __ __ __ __ __ __ __ __ __ __ __ __ __
 72
65
 73
2
 40
15.0
 49
12.0
 74
0
 49
-3.0
 74
0
  0
LTYPE
  5
4F
100
AcDbSymbolTableRecord
100
AcDbLinetypeTableRecord
  2
DASHEDX2
 70
0
  3
Dashed (2x) ____  ____  ____  ____  ____  ___
 72
65
 73
2
 40
38.0999999999999943
 49
25.3999999999999986
 74
0
 49
-12.6999999999999993
 74
0
  0
LTYPE
  5
50
100
AcDbSymbolTableRecord
100
AcDbLinetypeTableRecord
  2
PHANTOM
 70
0
  3
Phantom ______  __  __  ______  __  __  ______ 
 72
65
 73
6
 40
63.5000000000000071
 49
31.75
 74
0
 49
-6.3499999999999996
 74
0
 49
6.3499999999999996
 74
0
 49
-6.3499999999999996
 74
0
 49
6.3499999999999996
 74
0
 49
-6.3499999999999996
 74
0
  0
LTYPE
  5
51
100
AcDbSymbolTableRecord
100
AcDbLinetypeTableRecord
  2
ACAD_ISO14W100
 70
0
  3
ISO dash triple-dot __ . . . __ . . . __ . . . _
 72
65
 73
8
 40
24.0000000000000036
 49
12.0
 74
0
 49
-2.9500000000000002
 74
0
 49
0.1
 74
0
 49
-2.9000000000000004
 74
0
 49
0.1
 74
0
 49
-2.9000000000000004
 74
0
 49
0.1
 74
0
 49
-2.9500000000000002
 74
0
  0
LTYPE
  5
52
100
AcDbSymbolTableRecord
100
AcDbLinetypeTableRecord
  2
ACAD_ISO07W100
 70
0
  3
ISO dot . . . . . . . . . . . . . . . . . . . . 
 72
65
 73
2
 40
3.0
 49
0.1
 74
0
 49
-2.8999999999999999
 74
0
  0
LTYPE
  5
53
100
AcDbSymbolTableRecord
100
AcDbLinetypeTableRecord
  2
DOTX2
 70
0
  3
Dot (2x) .  .  .  .  .  .  .  .  .  .  .  .  .  .
 72
65
 73
2
 40
12.6999999999999993
 49
0.1
 74
0
 49
-12.5999999999999996
 74
0
  0
LTYPE
  5
54
100
AcDbSymbolTableRecord
100
AcDbLinetypeTableRecord
  2
BORDER2
 70
0
  3
Border (.5x) __.__.__.__.__.__.__.__.__.__.__.
 72
65
 73
6
 40
22.2250000000000014
 49
6.3499999999999996
 74
0
 49
-3.1749999999999998
 74
0
 49
6.3499999999999996
 74
0
 49
-3.125
 74
0
 49
0.1
 74
0
 49
-3.125
 74
0
  0
LTYPE
  5
55
100
AcDbSymbolTableRecord
100
AcDbLinetypeTableRecord
  2
ACAD_ISO03W100
 70
0
  3
ISO dash space __    __    __    __    __    __
 72
65
 73
2
 40
30.0
 49
12.0
 74
0
 49
-18.0
 74
0
  0
LTYPE
  5
56
100
AcDbSymbolTableRecord
100
AcDbLinetypeTableRecord
  2
ACAD_ISO06W100
 70
0
  3
ISO long-dash triple-dot ____ ... ____ ... ____
 72
65
 73
8
 40
36.0000000000000071
 49
24.0
 74
0
 49
-2.9500000000000002
 74
0
 49
0.1
 74
0
 49
-2.9000000000000004
 74
0
 49
0.1
 74
0
 49
-2.9000000000000004
 74
0
 49
0.1
 74
0
 49
-2.9500000000000002
 74
0
  0
ENDTAB
  0
TABLE
  2
LAYER
  5
2
100
AcDbSymbolTable
 70
3
  0
LAYER
  5
57
100
AcDbSymbolTableRecord
100
AcDbLayerTableRecord
  2
Construction
 70
0
 62
1
420
16711680
  6
Continuous
370
25
390
F
  0
LAYER
  5
58
100
AcDbSymbolTableRecord
100
AcDbLayerTableRecord
  2
Const2
 70
0
 62
7
420
0
  6
Continuous
370
25
390
F
  0
LAYER
  5
10
100
AcDbSymbolTableRecord
100
AcDbLayerTableRecord
  2
0
 70
0
 62
7
420
16777215
  6
Continuous
370
25
390
F
  0
ENDTAB
  0
TABLE
  2
STYLE
  5
3
100
AcDbSymbolTable
 70
1
  0
STYLE
  5
59
100
AcDbSymbolTableRecord
100
AcDbTextStyleTableRecord
  2
Standard
 70
0
 40
0.0
 41
1.0
 50
0.0
 71
0
 42
2.5
  3

  4

1001
ACAD
1000
txt
1071
0
  0
ENDTAB
  0
TABLE
  2
VIEW
  5
6
100
AcDbSymbolTable
 70
0
  0
ENDTAB
  0
TABLE
  2
UCS
  5
7
100
AcDbSymbolTable
 70
0
  0
ENDTAB
  0
TABLE
  2
APPID
  5
9
100
AcDbSymbolTable
 70
1
  0
APPID
  5
12
100
AcDbSymbolTableRecord
100
AcDbRegAppTableRecord
  2
ACAD
 70
0
  0
APPID
  5
5A
100
AcDbSymbolTableRecord
100
AcDbRegAppTableRecord
  2
QCAD
 70
0
  0
ENDTAB
  0
TABLE
  2
DIMSTYLE
  5
A
100
AcDbSymbolTable
 70
1
100
AcDbDimStyleTable
 71
0
  0
DIMSTYLE
105
27
100
AcDbSymbolTableRecord
100
AcDbDimStyleTableRecord
  2
Standard
 41
2.5
 42
0.625
 43
3.75
 44
1.25
 70
0
 73
0
 74
0
 77
1
 78
8
140
2.5
141
2.5
143
0.03937007874016
147
0.625
171
3
172
1
271
2
272
2
274
3
278
44
283
0
284
8
340
59
  0
ENDTAB
  0
TABLE
  2
BLOCK_RECORD
  5
1
100
AcDbSymbolTable
 70
1
  0
BLOCK_RECORD
  5
1F
100
AcDbSymbolTableRecord
100
AcDbBlockTableRecord
  2
*Model_Space
340
22
  0
BLOCK_RECORD
  5
1B
100
AcDbSymbolTableRecord
100
AcDbBlockTableRecord
  2
*Paper_Space
340
1E
  0
BLOCK_RECORD
  5
23
100
AcDbSymbolTableRecord
100
AcDbBlockTableRecord
  2
*Paper_Space0
340
26
  0
ENDTAB
  0
ENDSEC
  0
SECTION
  2
BLOCKS
  0
BLOCK
  5
20
100
AcDbEntity
  8
0
100
AcDbBlockBegin
  2
*Model_Space
 70
0
 10
0.0
 20
0.0
 30
0.0
  3
*Model_Space
  1

  0
ENDBLK
  5
21
100
AcDbEntity
  8
0
100
AcDbBlockEnd
  0
BLOCK
  5
1C
100
AcDbEntity
 67
1
  8
0
100
AcDbBlockBegin
  2
*Paper_Space
 70
0
 10
0.0
 20
0.0
 30
0.0
  3
*Paper_Space
  1

  0
ENDBLK
  5
1D
100
AcDbEntity
 67
1
  8
0
100
AcDbBlockEnd
  0
BLOCK
  5
24
100
AcDbEntity
  8
0
100
AcDbBlockBegin
  2
*Paper_Space0
 70
0
 10
0.0
 20
0.0
 30
0.0
  3
*Paper_Space0
  1

  0
ENDBLK
  5
25
100
AcDbEntity
  8
0
100
AcDbBlockEnd
  0
ENDSEC
  0
SECTION
  2
ENTITIES
  0
LINE
  5
5B
100
AcDbEntity
  8
Construction
 62
256
370
-1
 48
1.0
  6
BYLAYER
100
AcDbLine
 10
272.3769179024363893
 20
50.0566693782374159
 30
0.0
 11
279.4399398197792834
 21
57.11969129558031
 31
0.0
  0
LINE
  5
5C
100
AcDbEntity
  8
Construction
 62
256
370
-1
 48
1.0
  6
BYLAYER
100
AcDbLine
 10
279.4399398197792834
 20
57.11969129558031
 30
0.0
 11
286.0455336611253188
 21
64.6122667682000156
 31
0.0
  0
LINE
  5
5D
100
AcDbEntity
  8
Construction
 62
256
370
-1
 48
1.0
  6
BYLAYER
100
AcDbLine
 10
240.1327622419474892
 20
26.629919011267134
 30
0.0
 11
248.7303884614350409
 21
31.7145409834213297
 31
0.0
  0
LINE
  5
5E
100
AcDbEntity
  8
Construction
 62
256
370
-1
 48
1.0
  6
BYLAYER
100
AcDbLine
 10
248.7303884614350409
 20
31.7145409834213297
 30
0.0
 11
256.9917831742777707
 21
37.3289790326250568
 31
0.0
  0
LINE
  5
5F
100
AcDbEntity
  8
Construction
 62
256
370
-1
 48
1.0
  6
BYLAYER
100
AcDbLine
 10
222.0657319366387128
 20
18.1282198820101712
 30
0.0
 11
231.2328354186211072
 21
22.0951797961446346
 31
0.0
  0
LINE
  5
60
100
AcDbEntity
  8
Construction
 62
256
370
-1
 48
1.0
  6
BYLAYER
100
AcDbLine
 10
231.2328354186211072
 20
22.0951797961446346
 30
0.0
 11
240.1327622419474892
 21
26.629919011267134
 31
0.0
  0
LINE
  5
61
100
AcDbEntity
  8
Construction
 62
256
370
-1
 48
1.0
  6
BYLAYER
100
AcDbLine
 10
279.4399398197790561
 20
274.8056709809033009
 30
0.0
 11
272.376917902436162
 21
281.868692898246195
 31
0.0
  0
LINE
  5
62
100
AcDbEntity
  8
Construction
 62
256
370
-1
 48
1.0
  6
BYLAYER
100
AcDbLine
 10
203.0756201189865351
 20
11.9579585187893827
 30
0.0
 11
212.6676301653913015
 21
14.7446950473124048
 31
0.0
  0
LINE
  5
63
100
AcDbEntity
  8
Construction
 62
256
370
-1
 48
1.0
  6
BYLAYER
100
AcDbLine
 10
212.6676301653913015
 20
14.7446950473124048
 30
0.0
 11
222.0657319366387128
 21
18.1282198820101712
 31
0.0
  0
LINE
  5
64
100
AcDbEntity
  8
Construction
 62
256
370
-1
 48
1.0
  6
BYLAYER
100
AcDbLine
 10
311.3683893160068692
 20
224.4944850151057381
 30
0.0
 11
307.4014294018718374
 21
233.6615884970883599
 31
0.0
  0
LINE
  5
65
100
AcDbEntity
  8
Construction
 62
256
370
-1
 48
1.0
  6
BYLAYER
100
AcDbLine
 10
307.4014294018718374
 20
233.6615884970883599
 30
0.0
 11
302.8666901867491106
 21
242.5615153204144008
 31
0.0
  0
LINE
  5
66
100
AcDbEntity
  8
Construction
 62
256
370
-1
 48
1.0
  6
BYLAYER
100
AcDbLine
 10
143.605943923050404
 20
8.2164436292399046
 30
0.0
 11
153.5502354546138122
 21
7.2764313181463081
 31
0.0
  0
LINE
  5
67
100
AcDbEntity
  8
Construction
 62
256
370
-1
 48
1.0
  6
BYLAYER
100
AcDbLine
 10
153.5502354546138122
 20
7.2764313181463081
 30
0.0
 11
163.5339280597746665
 21
6.9626811382418055
 31
0.0
  0
LINE
  5
68
100
AcDbEntity
  8
Construction
 62
256
370
-1
 48
1.0
  6
BYLAYER
100
AcDbLine
 10
317.538650679227203
 20
205.5043731974534467
 30
0.0
 11
314.751914150704124
 21
215.0963832438584404
 31
0.0
  0
LINE
  5
69
100
AcDbEntity
  8
Construction
 62
256
370
-1
 48
1.0
  6
BYLAYER
100
AcDbLine
 10
314.751914150704124
 20
215.0963832438584404
 30
0.0
 11
311.3683893160068692
 21
224.4944850151057381
 31
0.0
  0
LINE
  5
6A
100
AcDbEntity
  8
Construction
 62
256
370
-1
 48
1.0
  6
BYLAYER
100
AcDbLine
 10
4.5339280597747234
 20
165.9626811382416918
 30
0.0
 11
4.8476782396793965
 21
155.9789885330809511
 31
0.0
  0
LINE
  5
6B
100
AcDbEntity
  8
Construction
 62
256
370
-1
 48
1.0
  6
BYLAYER
100
AcDbLine
 10
4.8476782396793965
 20
155.9789885330809511
 30
0.0
 11
5.7876905507725382
 21
146.0346970015174293
 31
0.0
  0
LINE
  5
6C
100
AcDbEntity
  8
Construction
 62
256
370
-1
 48
1.0
  6
BYLAYER
100
AcDbLine
 10
114.4002259541582589
 20
317.1806672291711493
 30
0.0
 11
105.0021241829106771
 21
313.7971423944737808
 31
0.0
  0
LINE
  5
6D
100
AcDbEntity
  8
Construction
 62
256
370
-1
 48
1.0
  6
BYLAYER
100
AcDbLine
 10
105.0021241829106771
 20
313.7971423944737808
 30
0.0
 11
95.8350207009282826
 21
309.8301824803388627
 31
0.0
  0
LINE
  5
6E
100
AcDbEntity
  8
Construction
 62
256
370
-1
 48
1.0
  6
BYLAYER
100
AcDbLine
 10
123.9922360005628548
 20
11.957958518789269
 30
0.0
 11
133.7402990406444587
 21
9.7790082723799969
 31
0.0
  0
LINE
  5
6F
100
AcDbEntity
  8
Construction
 62
256
370
-1
 48
1.0
  6
BYLAYER
100
AcDbLine
 10
133.7402990406444587
 20
9.7790082723799969
 30
0.0
 11
143.605943923050404
 21
8.2164436292399046
 31
0.0
  0
LINE
  5
70
100
AcDbEntity
  8
Construction
 62
256
370
-1
 48
1.0
  6
BYLAYER
100
AcDbLine
 10
222.0657319366383717
 20
313.7971423944737808
 30
0.0
 11
212.6676301653914152
 21
317.1806672291711493
 31
0.0
  0
LINE
  5
71
100
AcDbEntity
  8
Construction
 62
256
370
-1
 48
1.0
  6
BYLAYER
100
AcDbLine
 10
212.6676301653914152
 20
317.1806672291711493
 30
0.0
 11
203.0756201189865351
 21
319.9674037576940009
 31
0.0
  0
LINE
  5
72
100
AcDbEntity
  8
Construction
 62
256
370
-1
 48
1.0
  6
BYLAYER
100
AcDbLine
 10
286.0455336611253188
 20
64.6122667682000156
 30
0.0
 11
292.1676301653913015
 21
72.5048260237389286
 31
0.0
  0
LINE
  5
73
100
AcDbEntity
  8
Construction
 62
256
370
-1
 48
1.0
  6
BYLAYER
100
AcDbLine
 10
292.1676301653913015
 20
72.5048260237389286
 30
0.0
 11
297.7820682145950286
 21
80.7662207365813742
 31
0.0
  0
LINE
  5
74
100
AcDbEntity
  8
Construction
 62
256
370
-1
 48
1.0
  6
BYLAYER
100
AcDbLine
 10
321.2801655687767379
 20
185.8906652749659543
 30
0.0
 11
319.7176009256363614
 21
195.7563101573717859
 31
0.0
  0
LINE
  5
75
100
AcDbEntity
  8
Construction
 62
256
370
-1
 48
1.0
  6
BYLAYER
100
AcDbLine
 10
319.7176009256363614
 20
195.7563101573717859
 30
0.0
 11
317.538650679227203
 21
205.5043731974534467
 31
0.0
  0
LINE
  5
76
100
AcDbEntity
  8
Construction
 62
256
370
-1
 48
1.0
  6
BYLAYER
100
AcDbLine
 10
302.8666901867491106
 20
242.5615153204144008
 30
0.0
 11
297.7820682145950286
 21
251.1591415399020661
 31
0.0
  0
LINE
  5
77
100
AcDbEntity
  8
Construction
 62
256
370
-1
 48
1.0
  6
BYLAYER
100
AcDbLine
 10
297.7820682145950286
 20
251.1591415399020661
 30
0.0
 11
292.1676301653913015
 21
259.4205362527451371
 31
0.0
  0
LINE
  5
78
100
AcDbEntity
  8
Construction
 62
256
370
-1
 48
1.0
  6
BYLAYER
100
AcDbLine
 10
15.6994668035426912
 20
224.4944850151055107
 30
0.0
 11
12.3159419688454932
 21
215.0963832438584404
 31
0.0
  0
LINE
  5
79
100
AcDbEntity
  8
Construction
 62
256
370
-1
 48
1.0
  6
BYLAYER
100
AcDbLine
 10
12.3159419688454932
 20
215.0963832438584404
 30
0.0
 11
9.5292054403223005
 21
205.504373197453674
 31
0.0
  0
LINE
  5
7A
100
AcDbEntity
  8
Construction
 62
256
370
-1
 48
1.0
  6
BYLAYER
100
AcDbLine
 10
256.9917831742778844
 20
294.5963832438583268
 30
0.0
 11
248.7303884614351546
 21
300.2108212930620539
 31
0.0
  0
LINE
  5
7B
100
AcDbEntity
  8
Construction
 62
256
370
-1
 48
1.0
  6
BYLAYER
100
AcDbLine
 10
248.7303884614351546
 20
300.2108212930620539
 30
0.0
 11
240.1327622419474892
 21
305.2954432652161358
 31
0.0
  0
LINE
  5
7C
100
AcDbEntity
  8
Construction
 62
256
370
-1
 48
1.0
  6
BYLAYER
100
AcDbLine
 10
95.8350207009282826
 20
309.8301824803388627
 30
0.0
 11
86.9350938776019007
 21
305.2954432652162495
 31
0.0
  0
LINE
  5
7D
100
AcDbEntity
  8
Construction
 62
256
370
-1
 48
1.0
  6
BYLAYER
100
AcDbLine
 10
86.9350938776019007
 20
305.2954432652162495
 30
0.0
 11
78.3374676581144058
 21
300.2108212930621676
 31
0.0
  0
LINE
  5
7E
100
AcDbEntity
  8
Construction
 62
256
370
-1
 48
1.0
  6
BYLAYER
100
AcDbLine
 10
5.7876905507725382
 20
185.8906652749659543
 30
0.0
 11
4.8476782396793965
 21
175.9463737434025461
 31
0.0
  0
LINE
  5
7F
100
AcDbEntity
  8
Construction
 62
256
370
-1
 48
1.0
  6
BYLAYER
100
AcDbLine
 10
4.8476782396793965
 20
175.9463737434025461
 30
0.0
 11
4.5339280597747234
 21
165.9626811382416918
 31
0.0
  0
LINE
  5
80
100
AcDbEntity
  8
Construction
 62
256
370
-1
 48
1.0
  6
BYLAYER
100
AcDbLine
 10
15.6994668035426344
 20
107.4308772613777592
 30
0.0
 11
19.6664267176775525
 21
98.2637737793957058
 31
0.0
  0
LINE
  5
81
100
AcDbEntity
  8
Construction
 62
256
370
-1
 48
1.0
  6
BYLAYER
100
AcDbLine
 10
19.6664267176775525
 20
98.2637737793957058
 30
0.0
 11
24.2011659328001656
 21
89.3638469560693238
 31
0.0
  0
LINE
  5
82
100
AcDbEntity
  8
Construction
 62
256
370
-1
 48
1.0
  6
BYLAYER
100
AcDbLine
 10
240.1327622419474892
 20
305.2954432652161358
 30
0.0
 11
231.2328354186209936
 21
309.8301824803389763
 31
0.0
  0
LINE
  5
83
100
AcDbEntity
  8
Construction
 62
256
370
-1
 48
1.0
  6
BYLAYER
100
AcDbLine
 10
231.2328354186209936
 20
309.8301824803389763
 30
0.0
 11
222.0657319366383717
 21
313.7971423944737808
 31
0.0
  0
LINE
  5
84
100
AcDbEntity
  8
Construction
 62
256
370
-1
 48
1.0
  6
BYLAYER
100
AcDbLine
 10
24.2011659328001656
 20
89.3638469560693238
 30
0.0
 11
29.2857879049543044
 21
80.7662207365813174
 31
0.0
  0
LINE
  5
85
100
AcDbEntity
  8
Construction
 62
256
370
-1
 48
1.0
  6
BYLAYER
100
AcDbLine
 10
29.2857879049543044
 20
80.7662207365813174
 30
0.0
 11
34.9002259541580884
 21
72.5048260237383033
 31
0.0
  0
LINE
  5
86
100
AcDbEntity
  8
Construction
 62
256
370
-1
 48
1.0
  6
BYLAYER
100
AcDbLine
 10
183.4619121964990427
 20
323.7089186472438769
 30
0.0
 11
173.5176206649356345
 21
324.648930958336905
 31
0.0
  0
LINE
  5
87
100
AcDbEntity
  8
Construction
 62
256
370
-1
 48
1.0
  6
BYLAYER
100
AcDbLine
 10
256.9917831742777707
 20
37.3289790326250568
 30
0.0
 11
264.8843424298165701
 21
43.4510755368913806
 31
0.0
  0
LINE
  5
88
100
AcDbEntity
  8
Construction
 62
256
370
-1
 48
1.0
  6
BYLAYER
100
AcDbLine
 10
264.8843424298165701
 20
43.4510755368913806
 30
0.0
 11
272.3769179024363893
 21
50.0566693782374159
 31
0.0
  0
LINE
  5
89
100
AcDbEntity
  8
Construction
 62
256
370
-1
 48
1.0
  6
BYLAYER
100
AcDbLine
 10
153.5502354546139827
 20
324.648930958336905
 30
0.0
 11
143.6059439230505177
 21
323.7089186472437632
 31
0.0
  0
LINE
  5
8A
100
AcDbEntity
  8
Construction
 62
256
370
-1
 48
1.0
  6
BYLAYER
100
AcDbLine
 10
143.6059439230505177
 20
323.7089186472437632
 30
0.0
 11
133.7402990406446293
 21
322.1463540041031592
 31
0.0
  0
LINE
  5
8B
100
AcDbEntity
  8
Construction
 62
256
370
-1
 48
1.0
  6
BYLAYER
100
AcDbLine
 10
292.1676301653913015
 20
259.4205362527451371
 30
0.0
 11
286.0455336611253188
 21
267.3130955082832543
 31
0.0
  0
LINE
  5
8C
100
AcDbEntity
  8
Construction
 62
256
370
-1
 48
1.0
  6
BYLAYER
100
AcDbLine
 10
163.5339280597746665
 20
6.9626811382418055
 30
0.0
 11
173.5176206649355208
 21
7.2764313181464786
 31
0.0
  0
LINE
  5
8D
100
AcDbEntity
  8
Construction
 62
256
370
-1
 48
1.0
  6
BYLAYER
100
AcDbLine
 10
173.5176206649355208
 20
7.2764313181464786
 30
0.0
 11
183.461912196498929
 21
8.2164436292398477
 31
0.0
  0
LINE
  5
8E
100
AcDbEntity
  8
Construction
 62
256
370
-1
 48
1.0
  6
BYLAYER
100
AcDbLine
 10
322.5339280597747802
 20
165.9626811382406117
 30
0.0
 11
322.2201778798698797
 21
175.9463737434020913
 31
0.0
  0
LINE
  5
8F
100
AcDbEntity
  8
Construction
 62
256
370
-1
 48
1.0
  6
BYLAYER
100
AcDbLine
 10
322.2201778798698797
 20
175.9463737434020913
 30
0.0
 11
321.2801655687767379
 21
185.8906652749659543
 31
0.0
  0
LINE
  5
90
100
AcDbEntity
  8
Construction
 62
256
370
-1
 48
1.0
  6
BYLAYER
100
AcDbLine
 10
54.6909382171130574
 20
281.8686928982463087
 30
0.0
 11
47.6279162997700496
 21
274.8056709809034146
 31
0.0
  0
LINE
  5
91
100
AcDbEntity
  8
Construction
 62
256
370
-1
 48
1.0
  6
BYLAYER
100
AcDbLine
 10
47.6279162997700496
 20
274.8056709809034146
 30
0.0
 11
41.0223224584242416
 21
267.3130955082834816
 31
0.0
  0
LINE
  5
92
100
AcDbEntity
  8
Construction
 62
256
370
-1
 48
1.0
  6
BYLAYER
100
AcDbLine
 10
302.8666901867491106
 20
89.3638469560694375
 30
0.0
 11
307.4014294018718374
 21
98.2637737793956489
 31
0.0
  0
LINE
  5
93
100
AcDbEntity
  8
Construction
 62
256
370
-1
 48
1.0
  6
BYLAYER
100
AcDbLine
 10
307.4014294018718374
 20
98.2637737793956489
 30
0.0
 11
311.3683893160068692
 21
107.4308772613779297
 31
0.0
  0
LINE
  5
94
100
AcDbEntity
  8
Construction
 62
256
370
-1
 48
1.0
  6
BYLAYER
100
AcDbLine
 10
272.376917902436162
 20
281.868692898246195
 30
0.0
 11
264.8843424298163427
 21
288.4742867395922303
 31
0.0
  0
LINE
  5
95
100
AcDbEntity
  8
Construction
 62
256
370
-1
 48
1.0
  6
BYLAYER
100
AcDbLine
 10
264.8843424298163427
 20
288.4742867395922303
 30
0.0
 11
256.9917831742778844
 21
294.5963832438583268
 31
0.0
  0
LINE
  5
96
100
AcDbEntity
  8
Construction
 62
256
370
-1
 48
1.0
  6
BYLAYER
100
AcDbLine
 10
29.2857879049544181
 20
251.1591415399022935
 30
0.0
 11
24.2011659328002224
 21
242.5615153204145145
 31
0.0
  0
LINE
  5
97
100
AcDbEntity
  8
Construction
 62
256
370
-1
 48
1.0
  6
BYLAYER
100
AcDbLine
 10
24.2011659328002224
 20
242.5615153204145145
 30
0.0
 11
19.6664267176775525
 21
233.6615884970882462
 31
0.0
  0
LINE
  5
98
100
AcDbEntity
  8
Construction
 62
256
370
-1
 48
1.0
  6
BYLAYER
100
AcDbLine
 10
41.0223224584242416
 20
64.6122667681997882
 30
0.0
 11
47.6279162997700496
 21
57.1196912955804237
 31
0.0
  0
LINE
  5
99
100
AcDbEntity
  8
Construction
 62
256
370
-1
 48
1.0
  6
BYLAYER
100
AcDbLine
 10
47.6279162997700496
 20
57.1196912955804237
 30
0.0
 11
54.6909382171133416
 21
50.0566693782374159
 31
0.0
  0
LINE
  5
9A
100
AcDbEntity
  8
Construction
 62
256
370
-1
 48
1.0
  6
BYLAYER
100
AcDbLine
 10
70.0760729452715054
 20
37.3289790326251136
 30
0.0
 11
78.3374676581142921
 21
31.7145409834214433
 31
0.0
  0
LINE
  5
9B
100
AcDbEntity
  8
Construction
 62
256
370
-1
 48
1.0
  6
BYLAYER
100
AcDbLine
 10
78.3374676581142921
 20
31.7145409834214433
 30
0.0
 11
86.9350938776018438
 21
26.6299190112671909
 31
0.0
  0
LINE
  5
9C
100
AcDbEntity
  8
Construction
 62
256
370
-1
 48
1.0
  6
BYLAYER
100
AcDbLine
 10
78.3374676581144058
 20
300.2108212930621676
 30
0.0
 11
70.0760729452712212
 21
294.5963832438585541
 31
0.0
  0
LINE
  5
9D
100
AcDbEntity
  8
Construction
 62
256
370
-1
 48
1.0
  6
BYLAYER
100
AcDbLine
 10
183.461912196498929
 20
8.2164436292398477
 30
0.0
 11
193.3275570789048743
 21
9.7790082723799969
 31
0.0
  0
LINE
  5
9E
100
AcDbEntity
  8
Construction
 62
256
370
-1
 48
1.0
  6
BYLAYER
100
AcDbLine
 10
193.3275570789048743
 20
9.7790082723799969
 30
0.0
 11
203.0756201189865351
 21
11.9579585187893827
 31
0.0
  0
LINE
  5
9F
100
AcDbEntity
  8
Construction
 62
256
370
-1
 48
1.0
  6
BYLAYER
100
AcDbLine
 10
5.7876905507725382
 20
146.0346970015174293
 30
0.0
 11
7.3502551939133127
 21
136.1690521191115977
 31
0.0
  0
LINE
  5
A0
100
AcDbEntity
  8
Construction
 62
256
370
-1
 48
1.0
  6
BYLAYER
100
AcDbLine
 10
7.3502551939133127
 20
136.1690521191115977
 30
0.0
 11
9.5292054403223005
 21
126.4209890790299369
 31
0.0
  0
LINE
  5
A1
100
AcDbEntity
  8
Construction
 62
256
370
-1
 48
1.0
  6
BYLAYER
100
AcDbLine
 10
163.5339280597746665
 20
324.9626811382418055
 30
0.0
 11
153.5502354546139827
 21
324.648930958336905
 31
0.0
  0
LINE
  5
A2
100
AcDbEntity
  8
Construction
 62
256
370
-1
 48
1.0
  6
BYLAYER
100
AcDbLine
 10
133.7402990406446293
 20
322.1463540041031592
 30
0.0
 11
123.9922360005628548
 21
319.9674037576941146
 31
0.0
  0
LINE
  5
A3
100
AcDbEntity
  8
Construction
 62
256
370
-1
 48
1.0
  6
BYLAYER
100
AcDbLine
 10
123.9922360005628548
 20
319.9674037576941146
 30
0.0
 11
114.4002259541582589
 21
317.1806672291711493
 31
0.0
  0
LINE
  5
A4
100
AcDbEntity
  8
Construction
 62
256
370
-1
 48
1.0
  6
BYLAYER
100
AcDbLine
 10
70.0760729452712212
 20
294.5963832438585541
 30
0.0
 11
62.1835136897328766
 21
288.474286739592344
 31
0.0
  0
LINE
  5
A5
100
AcDbEntity
  8
Construction
 62
256
370
-1
 48
1.0
  6
BYLAYER
100
AcDbLine
 10
62.1835136897328766
 20
288.474286739592344
 30
0.0
 11
54.6909382171130574
 21
281.8686928982463087
 31
0.0
  0
LINE
  5
A6
100
AcDbEntity
  8
Construction
 62
256
370
-1
 48
1.0
  6
BYLAYER
100
AcDbLine
 10
41.0223224584242416
 20
267.3130955082834816
 30
0.0
 11
34.9002259541581452
 21
259.4205362527450234
 31
0.0
  0
LINE
  5
A7
100
AcDbEntity
  8
Construction
 62
256
370
-1
 48
1.0
  6
BYLAYER
100
AcDbLine
 10
34.9002259541581452
 20
259.4205362527450234
 30
0.0
 11
29.2857879049544181
 21
251.1591415399022935
 31
0.0
  0
LINE
  5
A8
100
AcDbEntity
  8
Construction
 62
256
370
-1
 48
1.0
  6
BYLAYER
100
AcDbLine
 10
19.6664267176775525
 20
233.6615884970882462
 30
0.0
 11
15.6994668035426912
 21
224.4944850151055107
 31
0.0
  0
LINE
  5
A9
100
AcDbEntity
  8
Construction
 62
256
370
-1
 48
1.0
  6
BYLAYER
100
AcDbLine
 10
9.5292054403223005
 20
205.504373197453674
 30
0.0
 11
7.3502551939129717
 21
195.7563101573720132
 31
0.0
  0
LINE
  5
AA
100
AcDbEntity
  8
Construction
 62
256
370
-1
 48
1.0
  6
BYLAYER
100
AcDbLine
 10
7.3502551939129717
 20
195.7563101573720132
 30
0.0
 11
5.7876905507725382
 21
185.8906652749659543
 31
0.0
  0
LINE
  5
AB
100
AcDbEntity
  8
Construction
 62
256
370
-1
 48
1.0
  6
BYLAYER
100
AcDbLine
 10
9.5292054403223005
 20
126.4209890790299369
 30
0.0
 11
12.3159419688454363
 21
116.8289790326251136
 31
0.0
  0
LINE
  5
AC
100
AcDbEntity
  8
Construction
 62
256
370
-1
 48
1.0
  6
BYLAYER
100
AcDbLine
 10
12.3159419688454363
 20
116.8289790326251136
 30
0.0
 11
15.6994668035426344
 21
107.4308772613777592
 31
0.0
  0
LINE
  5
AD
100
AcDbEntity
  8
Construction
 62
256
370
-1
 48
1.0
  6
BYLAYER
100
AcDbLine
 10
34.9002259541580884
 20
72.5048260237383033
 30
0.0
 11
41.0223224584242416
 21
64.6122667681997882
 31
0.0
  0
LINE
  5
AE
100
AcDbEntity
  8
Construction
 62
256
370
-1
 48
1.0
  6
BYLAYER
100
AcDbLine
 10
54.6909382171133416
 20
50.0566693782374159
 30
0.0
 11
62.183513689733104
 21
43.451075536891608
 31
0.0
  0
LINE
  5
AF
100
AcDbEntity
  8
Construction
 62
256
370
-1
 48
1.0
  6
BYLAYER
100
AcDbLine
 10
62.183513689733104
 20
43.451075536891608
 30
0.0
 11
70.0760729452715054
 21
37.3289790326251136
 31
0.0
  0
LINE
  5
B0
100
AcDbEntity
  8
Construction
 62
256
370
-1
 48
1.0
  6
BYLAYER
100
AcDbLine
 10
86.9350938776018438
 20
26.6299190112671909
 30
0.0
 11
95.8350207009282258
 21
22.0951797961445209
 31
0.0
  0
LINE
  5
B1
100
AcDbEntity
  8
Construction
 62
256
370
-1
 48
1.0
  6
BYLAYER
100
AcDbLine
 10
95.8350207009282258
 20
22.0951797961445209
 30
0.0
 11
105.0021241829106202
 21
18.1282198820099438
 31
0.0
  0
LINE
  5
B2
100
AcDbEntity
  8
Construction
 62
256
370
-1
 48
1.0
  6
BYLAYER
100
AcDbLine
 10
105.0021241829106202
 20
18.1282198820099438
 30
0.0
 11
114.4002259541580884
 21
14.7446950473123479
 31
0.0
  0
LINE
  5
B3
100
AcDbEntity
  8
Construction
 62
256
370
-1
 48
1.0
  6
BYLAYER
100
AcDbLine
 10
114.4002259541580884
 20
14.7446950473123479
 30
0.0
 11
123.9922360005628548
 21
11.957958518789269
 31
0.0
  0
LINE
  5
B4
100
AcDbEntity
  8
Construction
 62
256
370
-1
 48
1.0
  6
BYLAYER
100
AcDbLine
 10
297.7820682145950286
 20
80.7662207365813742
 30
0.0
 11
302.8666901867491106
 21
89.3638469560694375
 31
0.0
  0
LINE
  5
B5
100
AcDbEntity
  8
Construction
 62
256
370
-1
 48
1.0
  6
BYLAYER
100
AcDbLine
 10
311.3683893160068692
 20
107.4308772613779297
 30
0.0
 11
314.751914150704124
 21
116.8289790326248863
 31
0.0
  0
LINE
  5
B6
100
AcDbEntity
  8
Construction
 62
256
370
-1
 48
1.0
  6
BYLAYER
100
AcDbLine
 10
314.751914150704124
 20
116.8289790326248863
 30
0.0
 11
317.5386506792269756
 21
126.4209890790294821
 31
0.0
  0
LINE
  5
B7
100
AcDbEntity
  8
Construction
 62
256
370
-1
 48
1.0
  6
BYLAYER
100
AcDbLine
 10
317.5386506792269756
 20
126.4209890790294821
 30
0.0
 11
319.7176009256363614
 21
136.1690521191119387
 31
0.0
  0
LINE
  5
B8
100
AcDbEntity
  8
Construction
 62
256
370
-1
 48
1.0
  6
BYLAYER
100
AcDbLine
 10
319.7176009256363614
 20
136.1690521191119387
 30
0.0
 11
321.2801655687767379
 21
146.0346970015174293
 31
0.0
  0
LINE
  5
B9
100
AcDbEntity
  8
Construction
 62
256
370
-1
 48
1.0
  6
BYLAYER
100
AcDbLine
 10
321.2801655687767379
 20
146.0346970015174293
 30
0.0
 11
322.2201778798698797
 21
155.9789885330822017
 31
0.0
  0
LINE
  5
BA
100
AcDbEntity
  8
Construction
 62
256
370
-1
 48
1.0
  6
BYLAYER
100
AcDbLine
 10
203.0756201189865351
 20
319.9674037576940009
 30
0.0
 11
193.327557078904988
 21
322.1463540041031592
 31
0.0
  0
LINE
  5
BB
100
AcDbEntity
  8
Construction
 62
256
370
-1
 48
1.0
  6
BYLAYER
100
AcDbLine
 10
193.327557078904988
 20
322.1463540041031592
 30
0.0
 11
183.4619121964990427
 21
323.7089186472438769
 31
0.0
  0
LINE
  5
BC
100
AcDbEntity
  8
Construction
 62
256
370
-1
 48
1.0
  6
BYLAYER
100
AcDbLine
 10
279.4399398197790561
 20
274.8056709809033009
 30
0.0
 11
286.0455336611253188
 21
267.3130955082832543
 31
0.0
  0
LINE
  5
BD
100
AcDbEntity
  8
Construction
 62
256
370
-1
 48
1.0
  6
BYLAYER
100
AcDbLine
 10
322.2201778798698797
 20
155.9789885330822017
 30
0.0
 11
322.5339280597747802
 21
165.9626811382406117
 31
0.0
  0
LINE
  5
BE
100
AcDbEntity
  8
Construction
 62
256
370
-1
 48
1.0
  6
BYLAYER
100
AcDbLine
 10
173.5176206649356345
 20
324.648930958336905
 30
0.0
 11
163.5339280597746665
 21
324.9626811382418055
 31
0.0
  0
CIRCLE
  5
BF
100
AcDbEntity
  8
0
 62
256
370
-1
 48
1.0
  6
BYLAYER
100
AcDbCircle
 10
164.1589280597747234
 20
166.4626811382414644
 30
0.0
 40
145.0
  0
ENDSEC
  0
SECTION
  2
OBJECTS
  0
DICTIONARY
  5
C
100
AcDbDictionary
280
0
281
1
  3
ACAD_GROUP
350
D
  3
ACAD_LAYOUT
350
1A
  3
ACAD_MLINESTYLE
350
17
  3
ACAD_PLOTSETTINGS
350
19
  3
ACAD_PLOTSTYLENAME
350
E
  3
AcDbVariableDictionary
350
C0
  3
QCAD_OBJECTS
350
C1
  0
DICTIONARY
  5
D
100
AcDbDictionary
280
0
281
1
  0
ACDBDICTIONARYWDFLT
  5
E
100
AcDbDictionary
281
1
  3
Normal
350
F
100
AcDbDictionaryWithDefault
340
F
  0
ACDBPLACEHOLDER
  5
F
  0
DICTIONARY
  5
17
100
AcDbDictionary
280
0
281
1
  3
Standard
350
18
  0
MLINESTYLE
  5
18
100
AcDbMlineStyle
  2
STANDARD
 70
0
  3

 62
256
 51
90.0
 52
90.0
 71
2
 49
0.5
 62
256
  6
BYLAYER
 49
-0.5
 62
256
  6
BYLAYER
  0
DICTIONARY
  5
19
100
AcDbDictionary
280
0
281
1
  0
DICTIONARY
  5
1A
100
AcDbDictionary
281
1
  3
Layout1
350
1E
  3
Layout2
350
26
  3
Model
350
22
  0
LAYOUT
  5
1E
100
AcDbPlotSettings
  1

  2
none_device
  4

  6

 40
0.0
 41
0.0
 42
0.0
 43
0.0
 44
0.0
 45
0.0
 46
0.0
 47
0.0
 48
0.0
 49
0.0
140
0.0
141
0.0
142
1.0
143
1.0
 70
688
 72
0
 73
0
 74
5
  7

 75
16
147
1.0
148
0.0
149
0.0
100
AcDbLayout
  1
Layout1
 70
1
 71
1
 10
0.0
 20
0.0
 11
420.0
 21
297.0
 12
0.0
 22
0.0
 32
0.0
 14
100000000000000000000.0
 24
100000000000000000000.0
 34
100000000000000000000.0
 15
-100000000000000000000.0
 25
-100000000000000000000.0
 35
-100000000000000000000.0
146
0.0
 13
0.0
 23
0.0
 33
0.0
 16
1.0
 26
0.0
 36
0.0
 17
0.0
 27
1.0
 37
0.0
 76
0
330
1B
  0
LAYOUT
  5
22
100
AcDbPlotSettings
  1

  2
none_device
  4

  6

 40
0.0
 41
0.0
 42
0.0
 43
0.0
 44
0.0
 45
0.0
 46
0.0
 47
0.0
 48
0.0
 49
0.0
140
0.0
141
0.0
142
1.0
143
1.0
 70
1712
 72
0
 73
0
 74
0
  7

 75
0
147
1.0
148
0.0
149
0.0
100
AcDbLayout
  1
Model
 70
1
 71
0
 10
0.0
 20
0.0
 11
12.0
 21
9.0
 12
0.0
 22
0.0
 32
0.0
 14
0.0
 24
0.0
 34
0.0
 15
0.0
 25
0.0
 35
0.0
146
0.0
 13
0.0
 23
0.0
 33
0.0
 16
1.0
 26
0.0
 36
0.0
 17
0.0
 27
1.0
 37
0.0
 76
0
330
1F
  0
LAYOUT
  5
26
100
AcDbPlotSettings
  1

  2
none_device
  4

  6

 40
0.0
 41
0.0
 42
0.0
 43
0.0
 44
0.0
 45
0.0
 46
0.0
 47
0.0
 48
0.0
 49
0.0
140
0.0
141
0.0
142
1.0
143
1.0
 70
688
 72
0
 73
0
 74
5
  7

 75
16
147
1.0
148
0.0
149
0.0
100
AcDbLayout
  1
Layout2
 70
1
 71
2
 10
0.0
 20
0.0
 11
12.0
 21
9.0
 12
0.0
 22
0.0
 32
0.0
 14
0.0
 24
0.0
 34
0.0
 15
0.0
 25
0.0
 35
0.0
146
0.0
 13
0.0
 23
0.0
 33
0.0
 16
1.0
 26
0.0
 36
0.0
 17
0.0
 27
1.0
 37
0.0
 76
0
330
23
  0
DICTIONARY
  5
C0
100
AcDbDictionary
281
1
  3
DIMASSOC
350
C3
  3
HIDETEXT
350
C2
  0
DICTIONARYVAR
  5
C2
100
DictionaryVariables
280
0
  1
2
  0
DICTIONARYVAR
  5
C3
100
DictionaryVariables
280
0
  1
1
  0
DICTIONARY
  5
C1
100
AcDbDictionary
281
1
  3
ColorSettings/BackgroundColor
350
C4
  3
ColorSettings/ColorMode
350
C5
  3
Grid/DisplayGrid00
350
C6
  3
Grid/DisplayGrid01
350
C7
  3
Grid/DisplayGrid02
350
C8
  3
Grid/DisplayGrid03
350
C9
  3
Grid/GridSpacingX00
350
CA
  3
Grid/GridSpacingX01
350
CB
  3
Grid/GridSpacingX02
350
CC
  3
Grid/GridSpacingX03
350
CD
  3
Grid/GridSpacingY00
350
CE
  3
Grid/GridSpacingY01
350
CF
  3
Grid/GridSpacingY02
350
D0
  3
Grid/GridSpacingY03
350
D1
  3
Grid/IsometricGrid00
350
D2
  3
Grid/IsometricGrid01
350
D3
  3
Grid/IsometricGrid02
350
D4
  3
Grid/IsometricGrid03
350
D5
  3
Grid/IsometricProjection00
350
D6
  3
Grid/IsometricProjection01
350
D7
  3
Grid/IsometricProjection02
350
D8
  3
Grid/IsometricProjection03
350
D9
  3
Grid/MetaGridSpacingX00
350
DA
  3
Grid/MetaGridSpacingX01
350
DB
  3
Grid/MetaGridSpacingX02
350
DC
  3
Grid/MetaGridSpacingX03
350
DD
  3
Grid/MetaGridSpacingY00
350
DE
  3
Grid/MetaGridSpacingY01
350
DF
  3
Grid/MetaGridSpacingY02
350
E0
  3
Grid/MetaGridSpacingY03
350
E1
  3
MultiPageSettings/Columns
350
E2
  3
MultiPageSettings/GlueMarginsBottom
350
E3
  3
MultiPageSettings/GlueMarginsLeft
350
E4
  3
MultiPageSettings/GlueMarginsRight
350
E5
  3
MultiPageSettings/GlueMarginsTop
350
E6
  3
MultiPageSettings/PrintCropMarks
350
E7
  3
MultiPageSettings/Rows
350
E8
  3
PageSettings/OffsetX
350
E9
  3
PageSettings/OffsetY
350
EA
  3
PageSettings/PageOrientation
350
EB
  3
PageSettings/PaperHeight
350
EC
  3
PageSettings/PaperWidth
350
ED
  3
PageSettings/Scale
350
EE
  3
PageSettings/ShowPaperBorders
350
EF
  3
PageTagSettings/EnablePageTags
350
F0
  3
PageTagSettings/TagAlignment
350
F1
  3
PageTagSettings/TagFont
350
F2
  3
PageTagSettings/TagPosition
350
F3
  3
QCADVersion
350
F4
  3
UnitSettings/PaperUnit
350
F5
  3
ViewportCenter
350
F6
  3
ViewportHeight
350
F7
  3
ViewportWidth
350
F8
  0
XRECORD
  5
C4
330
C1
100
AcDbXrecord
280
1
1000
White
  0
XRECORD
  5
C5
330
C1
100
AcDbXrecord
280
1
1000
FullColor
  0
XRECORD
  5
C6
330
C1
100
AcDbXrecord
280
1
290
1
  0
XRECORD
  5
C7
330
C1
100
AcDbXrecord
280
1
290
1
  0
XRECORD
  5
C8
330
C1
100
AcDbXrecord
280
1
290
1
  0
XRECORD
  5
C9
330
C1
100
AcDbXrecord
280
1
290
1
  0
XRECORD
  5
CA
330
C1
100
AcDbXrecord
280
1
1000
auto
  0
XRECORD
  5
CB
330
C1
100
AcDbXrecord
280
1
1000
auto
  0
XRECORD
  5
CC
330
C1
100
AcDbXrecord
280
1
1000
auto
  0
XRECORD
  5
CD
330
C1
100
AcDbXrecord
280
1
1000
auto
  0
XRECORD
  5
CE
330
C1
100
AcDbXrecord
280
1
1000
auto
  0
XRECORD
  5
CF
330
C1
100
AcDbXrecord
280
1
1000
auto
  0
XRECORD
  5
D0
330
C1
100
AcDbXrecord
280
1
1000
auto
  0
XRECORD
  5
D1
330
C1
100
AcDbXrecord
280
1
1000
auto
  0
XRECORD
  5
D2
330
C1
100
AcDbXrecord
280
1
290
0
  0
XRECORD
  5
D3
330
C1
100
AcDbXrecord
280
1
290
0
  0
XRECORD
  5
D4
330
C1
100
AcDbXrecord
280
1
290
0
  0
XRECORD
  5
D5
330
C1
100
AcDbXrecord
280
1
290
0
  0
XRECORD
  5
D6
330
C1
100
AcDbXrecord
280
1
 90
65537
  0
XRECORD
  5
D7
330
C1
100
AcDbXrecord
280
1
 90
65537
  0
XRECORD
  5
D8
330
C1
100
AcDbXrecord
280
1
 90
65537
  0
XRECORD
  5
D9
330
C1
100
AcDbXrecord
280
1
 90
65537
  0
XRECORD
  5
DA
330
C1
100
AcDbXrecord
280
1
1000
auto
  0
XRECORD
  5
DB
330
C1
100
AcDbXrecord
280
1
1000
auto
  0
XRECORD
  5
DC
330
C1
100
AcDbXrecord
280
1
1000
auto
  0
XRECORD
  5
DD
330
C1
100
AcDbXrecord
280
1
1000
auto
  0
XRECORD
  5
DE
330
C1
100
AcDbXrecord
280
1
1000
auto
  0
XRECORD
  5
DF
330
C1
100
AcDbXrecord
280
1
1000
auto
  0
XRECORD
  5
E0
330
C1
100
AcDbXrecord
280
1
1000
auto
  0
XRECORD
  5
E1
330
C1
100
AcDbXrecord
280
1
1000
auto
  0
XRECORD
  5
E2
330
C1
100
AcDbXrecord
280
1
 90
1
  0
XRECORD
  5
E3
330
C1
100
AcDbXrecord
280
1
 40
10.0
  0
XRECORD
  5
E4
330
C1
100
AcDbXrecord
280
1
 40
10.0
  0
XRECORD
  5
E5
330
C1
100
AcDbXrecord
280
1
 40
10.0
  0
XRECORD
  5
E6
330
C1
100
AcDbXrecord
280
1
 40
10.0
  0
XRECORD
  5
E7
330
C1
100
AcDbXrecord
280
1
290
0
  0
XRECORD
  5
E8
330
C1
100
AcDbXrecord
280
1
 90
1
  0
XRECORD
  5
E9
330
C1
100
AcDbXrecord
280
1
 40
0.0
  0
XRECORD
  5
EA
330
C1
100
AcDbXrecord
280
1
 40
0.0
  0
XRECORD
  5
EB
330
C1
100
AcDbXrecord
280
1
1000
Portrait
  0
XRECORD
  5
EC
330
C1
100
AcDbXrecord
280
1
 40
279.3999999999999773
  0
XRECORD
  5
ED
330
C1
100
AcDbXrecord
280
1
 40
215.9000000000000057
  0
XRECORD
  5
EE
330
C1
100
AcDbXrecord
280
1
1000
1:1
  0
XRECORD
  5
EF
330
C1
100
AcDbXrecord
280
1
290
1
  0
XRECORD
  5
F0
330
C1
100
AcDbXrecord
280
1
290
0
  0
XRECORD
  5
F1
330
C1
100
AcDbXrecord
280
1
1000
Inside
  0
XRECORD
  5
F2
330
C1
100
AcDbXrecord
280
1
1000
Arial,10,-1,5,50,0,0,0,0,0
  0
XRECORD
  5
F3
330
C1
100
AcDbXrecord
280
1
1000
TopLeft
  0
XRECORD
  5
F4
330
C1
100
AcDbXrecord
280
1
1000
3.30.1
  0
XRECORD
  5
F5
330
C1
100
AcDbXrecord
280
1
 90
4
  0
XRECORD
  5
F7
330
C1
100
AcDbXrecord
280
1
 40
54.5641241533814423
  0
XRECORD
  5
F8
330
C1
100
AcDbXrecord
280
1
 40
95.202369752535617
  0
ENDSEC
  0
EOF
